<?xml version="1.0" standalone="no"?>
<!DOCTYPE svg PUBLIC "-//W3C//DTD SVG 1.1//EN" "http://www.w3.org/Graphics/SVG/1.1/DTD/svg11.dtd" >
<svg xmlns="http://www.w3.org/2000/svg" xmlns:xlink="http://www.w3.org/1999/xlink" version="1.1">
<metadata>
Created by FontForge 20190801 at Sat Nov 21 10:33:52 2015
 By Jimmy Wärting
Copyright (c) 2015, Cadson Demak (info@cadsondemak.com)
</metadata>
<defs>
<font id="Athiti-Regular" horiz-adv-x="0" >
  <font-face 
    font-family="Athiti"
    font-weight="400"
    font-stretch="normal"
    units-per-em="1000"
    panose-1="0 0 5 0 0 0 0 0 0 0"
    ascent="750"
    descent="-250"
    x-height="468"
    cap-height="614"
    bbox="-518 -437 971 1080"
    underline-thickness="50"
    underline-position="-100"
    unicode-range="U+000D-FB02"
  />
<missing-glyph horiz-adv-x="601" 
d="M100 714h400v-714h-400v714zM462 38v638h-323v-638h323z" />
    <glyph glyph-name="fi" unicode="fi" horiz-adv-x="543" 
d="M100 413h-65l8 51h57v60q0 38 24.5 68t60.5 49q22 6 51 9t51 3q65 0 118 -16l-16 -50q-43 11 -106 11q-54 0 -105 -11q-10 -19 -14.5 -35.5t-4.5 -36.5v-51h304v-464h-59v413h-245v-413h-59v413z" />
    <glyph glyph-name="fl" unicode="fl" horiz-adv-x="603" 
d="M435 29.5q-26 26.5 -26 47.5v340h-250v-417h-59v417h-65l8 51h57v64q0 39 24.5 70.5t60.5 49.5q53 12 118 12q87 0 165 -29v-548q0 -15 1.5 -23.5t6.5 -17.5h14l62 29l27 -33q-17 -19 -42 -32t-53 -16q-23 9 -49 35.5zM409 468v129q-56 12 -117 12q-63 0 -114 -11
q-10 -19 -14.5 -36t-4.5 -40v-54h250z" />
    <glyph glyph-name="ru_lakkhangyaothai" unicode="&#xe24;&#xe45;" horiz-adv-x="835" 
d="M417 441q-50 26 -121 26q-50 0 -96 -11.5t-81 -33.5v-5l62 -78q11 -14 11 -32q0 -6 -2 -20l-34 -195q-1 -6 -1 -15q0 -17 8.5 -24t27.5 -7h62v-41q-37 -13 -78 -13q-36 0 -57 20.5t-21 57.5q0 13 1 19l36 222l-70 92v42q108 79 238 79q90 0 137 -40q77 35 158 35
q74 0 116 -29.5t42 -82.5v-602h-62v645q-45 14 -103 14q-62 0 -119 -20q8 -21 8 -40v-599h-62v636z" />
    <glyph glyph-name="lu_lakkhangyaothai" unicode="&#xe26;&#xe45;" horiz-adv-x="829" 
d="M426 441q-54 27 -120 27q-92 0 -159 -46v-5l65 -78q11 -12 11 -31q0 -5 -2 -21l-33 -220q-11 -75 -82 -75q-32 0 -58 12v41h43q21 0 29.5 7.5t11.5 27.5l33 231l-73 92v42q52 38 104.5 58.5t116.5 20.5q84 0 131 -35q76 30 147 30q74 0 116 -29.5t42 -82.5v-602h-62v645
q-45 14 -103 14q-49 0 -106 -16q10 -21 10 -44v-599h-62v636z" />
    <glyph glyph-name=".notdef" horiz-adv-x="601" 
d="M100 714h400v-714h-400v714zM462 38v638h-323v-638h323z" />
    <glyph glyph-name=".null" horiz-adv-x="500" 
 />
    <glyph glyph-name=".null" horiz-adv-x="500" 
 />
    <glyph glyph-name="nonmarkingreturn" unicode="&#xd;" horiz-adv-x="260" 
 />
    <glyph glyph-name="space" unicode=" " horiz-adv-x="300" 
 />
    <glyph glyph-name="A" unicode="A" horiz-adv-x="591" 
d="M40 7q42 155 93 316.5t100 290.5h125q49 -129 100 -290.5t93 -316.5l-67 -7q-23 93 -57 209h-264q-38 -137 -56 -209zM409 265q-59 200 -92 288h-44q-38 -103 -93 -288h229z" />
    <glyph glyph-name="Aacute" unicode="&#xc1;" horiz-adv-x="591" 
d="M270 706l83 142l81 -8l-119 -142zM40 7q42 155 93 316.5t100 290.5h125q49 -129 100 -290.5t93 -316.5l-67 -7q-23 93 -57 209h-264q-38 -137 -56 -209zM409 265q-59 200 -92 288h-44q-38 -103 -93 -288h229z" />
    <glyph glyph-name="Abreve" unicode="&#x102;" horiz-adv-x="591" 
d="M207 726q-31 28 -39 78l59 10q4 -33 18.5 -49.5t50.5 -16.5q35 0 49.5 16.5t18.5 49.5l59 -10q-8 -49 -39 -77.5t-88 -28.5q-58 0 -89 28zM40 7q42 155 93 316.5t100 290.5h125q49 -129 100 -290.5t93 -316.5l-67 -7q-23 93 -57 209h-264q-38 -137 -56 -209zM409 265
q-59 200 -92 288h-44q-38 -103 -93 -288h229z" />
    <glyph glyph-name="uni1EAE" unicode="&#x1eae;" horiz-adv-x="591" 
d="M271 857l61 105l58 -10l-81 -104zM206 726q-31 28 -39 78l59 10q4 -33 18.5 -49.5t50.5 -16.5q35 0 49.5 16.5t18.5 49.5l59 -10q-8 -49 -39 -77.5t-88 -28.5q-58 0 -89 28zM40 7q42 155 93 316.5t100 290.5h125q49 -129 100 -290.5t93 -316.5l-67 -7q-23 93 -57 209
h-264q-38 -137 -56 -209zM409 265q-59 200 -92 288h-44q-38 -103 -93 -288h229z" />
    <glyph glyph-name="uni1EB6" unicode="&#x1eb6;" horiz-adv-x="591" 
d="M206 726q-31 28 -39 78l59 10q4 -33 18.5 -49.5t50.5 -16.5q35 0 49.5 16.5t18.5 49.5l59 -10q-8 -49 -39 -77.5t-88 -28.5q-58 0 -89 28zM40 7q42 155 93 316.5t100 290.5h125q49 -129 100 -290.5t93 -316.5l-67 -7q-23 93 -57 209h-264q-38 -137 -56 -209zM409 265
q-59 200 -92 288h-44q-38 -103 -93 -288h229zM259.5 -151.5q-13.5 12.5 -13.5 34.5q0 24 13 36.5t37 12.5t37 -12.5t13 -36.5q0 -22 -13 -34.5t-37 -12.5q-23 0 -36.5 12.5z" />
    <glyph glyph-name="uni1EB0" unicode="&#x1eb0;" horiz-adv-x="591" 
d="M200 952l59 10l60 -105l-38 -9zM206 726q-31 28 -39 78l59 10q4 -33 18.5 -49.5t50.5 -16.5q35 0 49.5 16.5t18.5 49.5l59 -10q-8 -49 -39 -77.5t-88 -28.5q-58 0 -89 28zM40 7q42 155 93 316.5t100 290.5h125q49 -129 100 -290.5t93 -316.5l-67 -7q-23 93 -57 209h-264
q-38 -137 -56 -209zM409 265q-59 200 -92 288h-44q-38 -103 -93 -288h229z" />
    <glyph glyph-name="uni1EB2" unicode="&#x1eb2;" horiz-adv-x="591" 
d="M272 874v25q34 0 47 5t13 18q0 11 -6.5 16.5t-22.5 5.5q-19 0 -40 -8l-9 32q30 11 55 11q63 0 63 -56q0 -51 -62 -53v-35h-29zM206 726q-31 28 -39 78l59 10q4 -33 18.5 -49.5t50.5 -16.5q35 0 49.5 16.5t18.5 49.5l59 -10q-8 -49 -39 -77.5t-88 -28.5q-58 0 -89 28z
M40 7q42 155 93 316.5t100 290.5h125q49 -129 100 -290.5t93 -316.5l-67 -7q-23 93 -57 209h-264q-38 -137 -56 -209zM409 265q-59 200 -92 288h-44q-38 -103 -93 -288h229z" />
    <glyph glyph-name="uni1EB4" unicode="&#x1eb4;" horiz-adv-x="591" 
d="M181 877q7 69 66 69q26 0 58 -20q24 -13 35 -13q32 0 40 37l33 -10q-7 -70 -66 -70q-14 0 -25.5 4.5t-26.5 13.5q-12 8 -21 11.5t-19 3.5q-34 0 -40 -37zM207 726q-31 28 -39 78l59 10q4 -33 18.5 -49.5t50.5 -16.5q35 0 49.5 16.5t18.5 49.5l59 -10q-8 -49 -39 -77.5
t-88 -28.5q-58 0 -89 28zM40 7q42 155 93 316.5t100 290.5h125q49 -129 100 -290.5t93 -316.5l-67 -7q-23 93 -57 209h-264q-38 -137 -56 -209zM409 265q-59 200 -92 288h-44q-38 -103 -93 -288h229z" />
    <glyph glyph-name="uni01CD" unicode="&#x1cd;" horiz-adv-x="591" 
d="M164 839l39 8l89 -88h6l87 88l41 -8l-101 -133h-60zM40 7q42 155 93 316.5t100 290.5h125q49 -129 100 -290.5t93 -316.5l-67 -7q-23 93 -57 209h-264q-38 -137 -56 -209zM409 265q-59 200 -92 288h-44q-38 -103 -93 -288h229z" />
    <glyph glyph-name="Acircumflex" unicode="&#xc2;" horiz-adv-x="591" 
d="M164 706l101 133h60l101 -133l-41 -8l-87 88h-6l-89 -88zM40 7q42 155 93 316.5t100 290.5h125q49 -129 100 -290.5t93 -316.5l-67 -7q-23 93 -57 209h-264q-38 -137 -56 -209zM409 265q-59 200 -92 288h-44q-38 -103 -93 -288h229z" />
    <glyph glyph-name="uni1EA4" unicode="&#x1ea4;" horiz-adv-x="591" 
d="M420 796l61 105l58 -10l-81 -104zM164 706l101 133h60l101 -133l-41 -8l-87 88h-6l-89 -88zM40 7q42 155 93 316.5t100 290.5h125q49 -129 100 -290.5t93 -316.5l-67 -7q-23 93 -57 209h-264q-38 -137 -56 -209zM409 265q-59 200 -92 288h-44q-38 -103 -93 -288h229z" />
    <glyph glyph-name="uni1EAC" unicode="&#x1eac;" horiz-adv-x="591" 
d="M164 705l101 133h60l101 -133l-41 -8l-87 88h-6l-89 -88zM40 7q42 155 93 316.5t100 290.5h125q49 -129 100 -290.5t93 -316.5l-67 -7q-23 93 -57 209h-264q-38 -137 -56 -209zM409 265q-59 200 -92 288h-44q-38 -103 -93 -288h229zM257.5 -151.5q-13.5 12.5 -13.5 34.5
q0 24 13 36.5t37 12.5t37 -12.5t13 -36.5q0 -22 -13 -34.5t-37 -12.5q-23 0 -36.5 12.5z" />
    <glyph glyph-name="uni1EA6" unicode="&#x1ea6;" horiz-adv-x="591" 
d="M51 890l59 11l60 -106l-38 -8zM165 706l101 132h59l102 -132l-39 -9l-90 89h-5l-88 -89zM40 7q42 155 93 316.5t100 290.5h125q49 -129 100 -290.5t93 -316.5l-67 -7q-23 93 -57 209h-264q-38 -137 -56 -209zM409 265q-59 200 -92 288h-44q-38 -103 -93 -288h229z" />
    <glyph glyph-name="uni1EA8" unicode="&#x1ea8;" horiz-adv-x="591" 
d="M413 845v24q34 0 47 5.5t13 18.5q0 11 -6.5 16.5t-22.5 5.5q-19 0 -40 -8l-9 32q27 10 55 10q63 0 63 -56q0 -51 -62 -53v-34h-29zM163 706l101 133h60l101 -133l-41 -8l-87 88h-6l-89 -88zM40 7q42 155 93 316.5t100 290.5h125q49 -129 100 -290.5t93 -316.5l-67 -7
q-23 93 -57 209h-264q-38 -137 -56 -209zM409 265q-59 200 -92 288h-44q-38 -103 -93 -288h229z" />
    <glyph glyph-name="uni1EAA" unicode="&#x1eaa;" horiz-adv-x="591" 
d="M177 900q7 70 66 70q26 0 58 -20q24 -13 35 -13q32 0 40 37l33 -11q-7 -70 -66 -70q-14 0 -25.5 4.5t-26.5 13.5q-12 8 -21 11.5t-19 3.5q-34 0 -40 -36zM164 706l101 132h60l101 -132l-41 -9l-87 89h-6l-89 -89zM40 7q42 155 93 316.5t100 290.5h125q49 -129 100 -290.5
t93 -316.5l-67 -7q-23 93 -57 209h-264q-38 -137 -56 -209zM409 265q-59 200 -92 288h-44q-38 -103 -93 -288h229z" />
    <glyph glyph-name="Adieresis" unicode="&#xc4;" horiz-adv-x="591" 
d="M188.5 711q-10.5 10 -10.5 27q0 18 10.5 27.5t28.5 9.5t28 -9.5t10 -27.5q0 -17 -10 -27t-28 -10t-28.5 10zM345.5 711q-10.5 10 -10.5 27q0 18 10.5 27.5t29.5 9.5q18 0 28 -9.5t10 -27.5q0 -17 -10 -27t-28 -10q-19 0 -29.5 10zM40 7q42 155 93 316.5t100 290.5h125
q49 -129 100 -290.5t93 -316.5l-67 -7q-23 93 -57 209h-264q-38 -137 -56 -209zM409 265q-59 200 -92 288h-44q-38 -103 -93 -288h229z" />
    <glyph glyph-name="uni1EA0" unicode="&#x1ea0;" horiz-adv-x="591" 
d="M40 7q42 155 93 316.5t100 290.5h125q49 -129 100 -290.5t93 -316.5l-67 -7q-23 93 -57 209h-264q-38 -137 -56 -209zM409 265q-59 200 -92 288h-44q-38 -103 -93 -288h229zM257.5 -146.5q-13.5 12.5 -13.5 34.5q0 24 13 36.5t37 12.5t37 -12.5t13 -36.5q0 -22 -13 -34.5
t-37 -12.5q-23 0 -36.5 12.5z" />
    <glyph glyph-name="Agrave" unicode="&#xc0;" horiz-adv-x="591" 
d="M158 841l81 9l83 -143l-45 -7zM40 7q42 155 93 316.5t100 290.5h125q49 -129 100 -290.5t93 -316.5l-67 -7q-23 93 -57 209h-264q-38 -137 -56 -209zM409 265q-59 200 -92 288h-44q-38 -103 -93 -288h229z" />
    <glyph glyph-name="uni1EA2" unicode="&#x1ea2;" horiz-adv-x="591" 
d="M267 756v28q51 0 70 6.5t19 29.5q0 18 -10.5 26t-35.5 8q-28 0 -54 -9l-13 37q35 15 76 15q44 0 65 -20.5t21 -55.5q0 -71 -92 -74v-40h-34zM40 7q42 155 93 316.5t100 290.5h125q49 -129 100 -290.5t93 -316.5l-67 -7q-23 93 -57 209h-264q-38 -137 -56 -209zM409 265
q-59 200 -92 288h-44q-38 -103 -93 -288h229z" />
    <glyph glyph-name="Amacron" unicode="&#x100;" horiz-adv-x="591" 
d="M171 759h248v-53h-248v53zM40 7q42 155 93 316.5t100 290.5h125q49 -129 100 -290.5t93 -316.5l-67 -7q-23 93 -57 209h-264q-38 -137 -56 -209zM409 265q-59 200 -92 288h-44q-38 -103 -93 -288h229z" />
    <glyph glyph-name="Aogonek" unicode="&#x104;" horiz-adv-x="594" 
d="M436 -140.5q-24 20.5 -24 57.5q0 33 18 55t52 38q-30 107 -55 199h-264q-38 -137 -56 -209l-67 7q42 155 93 316.5t100 290.5h125q49 -129 100 -290.5t93 -316.5l-24 -3q-34 -19 -47 -38t-13 -46q0 -17 6 -30q16 -4 39 -4q16 0 41 5l10 -41q-25 -11 -60 -11
q-43 0 -67 20.5zM409 265q-59 200 -92 288h-44q-38 -103 -93 -288h229z" />
    <glyph glyph-name="Aring" unicode="&#xc5;" horiz-adv-x="591" 
d="M212 720q-27 22 -27 64q0 39 31.5 66.5t85.5 27.5q49 0 76 -23t27 -65q0 -39 -32 -65.5t-86 -26.5q-48 0 -75 22zM353 744q7 26 7 44q0 24 -15.5 37.5t-44.5 13.5q-41 0 -63 -7q-7 -21 -7 -46q0 -23 15.5 -36t44.5 -13q38 0 63 7zM40 7q42 155 93 316.5t100 290.5h125
q49 -129 100 -290.5t93 -316.5l-67 -7q-23 93 -57 209h-264q-38 -137 -56 -209zM409 265q-59 200 -92 288h-44q-38 -103 -93 -288h229z" />
    <glyph glyph-name="Aringacute" unicode="&#x1fa;" horiz-adv-x="591" 
d="M258 938l83 142l81 -8l-119 -142zM211 711q-27 22 -27 64q0 40 31.5 67.5t85.5 27.5q49 0 76 -23t27 -66q0 -39 -32 -65.5t-86 -26.5q-48 0 -75 22zM352 736q7 25 7 43q0 24 -15.5 38t-44.5 14q-38 0 -63 -8q-7 -20 -7 -46q0 -23 15.5 -36t44.5 -13q39 0 63 8zM40 7
q42 155 93 316.5t100 290.5h125q49 -129 100 -290.5t93 -316.5l-67 -7q-23 93 -57 209h-264q-38 -137 -56 -209zM409 265q-59 200 -92 288h-44q-38 -103 -93 -288h229z" />
    <glyph glyph-name="Atilde" unicode="&#xc3;" horiz-adv-x="591" 
d="M152 712q6 90 78 90q15 0 28.5 -6.5t34.5 -19.5q18 -12 28 -17t21 -5q37 0 44 50l41 -13q-6 -90 -78 -90q-17 0 -31 7t-34 20q-15 11 -25.5 16t-21.5 5q-21 0 -31 -13t-13 -37zM40 7q42 155 93 316.5t100 290.5h125q49 -129 100 -290.5t93 -316.5l-67 -7q-23 93 -57 209
h-264q-38 -137 -56 -209zM409 265q-59 200 -92 288h-44q-38 -103 -93 -288h229z" />
    <glyph glyph-name="AE" unicode="&#xc6;" horiz-adv-x="946" 
d="M545.5 8.5q-54.5 18.5 -54.5 64.5v137h-274q-43 -80 -108 -210l-60 20q151 307 323 594h490v-58h-309v-220h280v-56h-280v-220q64 -12 145 -12q90 0 161 16l14 -55q-73 -19 -178 -19q-95 0 -149.5 18.5zM491 266v287h-83q-75 -124 -161 -287h244z" />
    <glyph glyph-name="AEacute" unicode="&#x1fc;" horiz-adv-x="946" 
d="M523 706l83 142l81 -8l-119 -142zM545.5 8.5q-54.5 18.5 -54.5 64.5v137h-274q-43 -80 -108 -210l-60 20q151 307 323 594h490v-58h-309v-220h280v-56h-280v-220q64 -12 145 -12q90 0 161 16l14 -55q-73 -19 -178 -19q-95 0 -149.5 18.5zM491 266v287h-83
q-75 -124 -161 -287h244z" />
    <glyph glyph-name="B" unicode="B" horiz-adv-x="535" 
d="M81 602q82 22 160 22q108 0 160.5 -42.5t52.5 -126.5q0 -91 -81 -140v-5q111 -36 111 -138q0 -58 -21.5 -95t-74 -57t-144.5 -20h-163v602zM339 338q53 46 53 116q0 60 -37.5 86t-116.5 26q-41 0 -95 -9v-219h196zM237 57q73 0 113.5 12t56 36t15.5 64q0 51 -35 81.5
t-103 30.5h-141v-224h94z" />
    <glyph glyph-name="C" unicode="C" horiz-adv-x="555" 
d="M57 291q0 151 63.5 242t191.5 91q51 0 98.5 -11t74.5 -28v-46q0 -40 -11 -67h-41l-10 82q-46 11 -112 11q-62 0 -124 -17q-67 -100 -67 -253q0 -127 47.5 -186t151.5 -59q47 0 89.5 11t71.5 30l29 -47q-32 -26 -81.5 -39.5t-110.5 -13.5q-260 0 -260 300z" />
    <glyph glyph-name="Cacute" unicode="&#x106;" horiz-adv-x="555" 
d="M284 706l83 142l81 -8l-119 -142zM57 291q0 151 63.5 242t191.5 91q51 0 98.5 -11t74.5 -28v-46q0 -40 -11 -67h-41l-10 82q-46 11 -112 11q-62 0 -124 -17q-67 -100 -67 -253q0 -127 47.5 -186t151.5 -59q47 0 89.5 11t71.5 30l29 -47q-32 -26 -81.5 -39.5t-110.5 -13.5
q-260 0 -260 300z" />
    <glyph glyph-name="Ccaron" unicode="&#x10c;" horiz-adv-x="551" 
d="M172 839l39 8l89 -88h6l87 88l41 -8l-101 -133h-60zM53 291q0 151 63.5 242t191.5 91q51 0 98.5 -11t74.5 -28v-46q0 -40 -11 -67h-41l-10 82q-46 11 -112 11q-62 0 -124 -17q-67 -100 -67 -253q0 -127 47.5 -186t151.5 -59q47 0 89.5 11t71.5 30l29 -47
q-32 -26 -81.5 -39.5t-110.5 -13.5q-260 0 -260 300z" />
    <glyph glyph-name="Ccedilla" unicode="&#xc7;" horiz-adv-x="555" 
d="M214 -200l14 40q30 -12 68 -12q25 0 50 5q6 15 6 33q0 37 -46 37q-26 0 -44 -7l-36 36l51 61q-111 11 -165.5 87t-54.5 211q0 151 63.5 242t191.5 91q51 0 98.5 -11t74.5 -28v-46q0 -40 -11 -67h-41l-10 82q-46 11 -112 11q-62 0 -124 -17q-67 -100 -67 -253
q0 -127 47.5 -186t151.5 -59q47 0 89.5 11t71.5 30l29 -47q-60 -46 -166 -52l-19 -1l-40 -55q19 8 45 8q75 0 75 -74q0 -86 -106 -86q-47 0 -84 16z" />
    <glyph glyph-name="Ccircumflex" unicode="&#x108;" horiz-adv-x="555" 
d="M182 706l101 132h60l101 -132l-41 -9l-87 89h-6l-89 -89zM57 291q0 151 63.5 242t191.5 91q51 0 98.5 -11t74.5 -28v-46q0 -40 -11 -67h-41l-10 82q-46 11 -112 11q-62 0 -124 -17q-67 -100 -67 -253q0 -127 47.5 -186t151.5 -59q47 0 89.5 11t71.5 30l29 -47
q-32 -26 -81.5 -39.5t-110.5 -13.5q-260 0 -260 300z" />
    <glyph glyph-name="Cdotaccent" unicode="&#x10a;" horiz-adv-x="555" 
d="M279.5 713.5q-13.5 12.5 -13.5 34.5q0 24 13 36.5t37 12.5t37 -12.5t13 -36.5q0 -22 -13 -34.5t-37 -12.5q-23 0 -36.5 12.5zM57 291q0 151 63.5 242t191.5 91q51 0 98.5 -11t74.5 -28v-46q0 -40 -11 -67h-41l-10 82q-46 11 -112 11q-62 0 -124 -17q-67 -100 -67 -253
q0 -127 47.5 -186t151.5 -59q47 0 89.5 11t71.5 30l29 -47q-32 -26 -81.5 -39.5t-110.5 -13.5q-260 0 -260 300z" />
    <glyph glyph-name="D" unicode="D" horiz-adv-x="573" 
d="M81 605q82 19 168 19q146 0 210 -78t64 -230q0 -99 -24 -167.5t-86.5 -108.5t-173.5 -40h-158v605zM238 58q97 0 166 20q27 37 41.5 97.5t14.5 134.5q0 89 -20.5 145t-67.5 83.5t-127 27.5q-42 0 -101 -8v-500h94z" />
    <glyph glyph-name="Eth" unicode="&#xd0;" horiz-adv-x="632" 
d="M141 297h-96v50h96v258q81 19 167 19q146 0 210.5 -78t64.5 -230q0 -99 -24 -167.5t-86.5 -108.5t-173.5 -40h-158v297zM298 58q97 0 166 20q27 37 41.5 97.5t14.5 134.5q0 89 -20.5 145t-67.5 83.5t-127 27.5q-42 0 -101 -8v-211h111v-50h-111v-239h94z" />
    <glyph glyph-name="Dcaron" unicode="&#x10e;" horiz-adv-x="573" 
d="M151 839l39 8l89 -88h6l87 88l41 -8l-101 -133h-60zM81 605q82 19 168 19q146 0 210 -78t64 -230q0 -99 -24 -167.5t-86.5 -108.5t-173.5 -40h-158v605zM238 58q97 0 166 20q27 37 41.5 97.5t14.5 134.5q0 89 -20.5 145t-67.5 83.5t-127 27.5q-42 0 -101 -8v-500h94z" />
    <glyph glyph-name="Dcroat" unicode="&#x110;" horiz-adv-x="618" 
d="M126 278h-81v56h81v271q82 19 168 19q146 0 210 -78t64 -230q0 -99 -24 -167.5t-86.5 -108.5t-173.5 -40h-158v278zM283 58q97 0 166 20q27 37 41.5 97.5t14.5 134.5q0 89 -20.5 145t-67.5 83.5t-127 27.5q-42 0 -101 -8v-224h97v-56h-97v-220h94z" />
    <glyph glyph-name="uni1E0C" unicode="&#x1e0c;" horiz-adv-x="573" 
d="M81 605q82 19 168 19q146 0 210 -78t64 -230q0 -99 -24 -167.5t-86.5 -108.5t-173.5 -40h-158v605zM238 58q97 0 166 20q27 37 41.5 97.5t14.5 134.5q0 89 -20.5 145t-67.5 83.5t-127 27.5q-42 0 -101 -8v-500h94zM251.5 -146.5q-13.5 12.5 -13.5 34.5q0 24 13 36.5
t37 12.5t37 -12.5t13 -36.5q0 -22 -13 -34.5t-37 -12.5q-23 0 -36.5 12.5z" />
    <glyph glyph-name="uni1E0E" unicode="&#x1e0e;" horiz-adv-x="574" 
d="M82 605q82 19 168 19q146 0 210 -78t64 -230q0 -99 -24 -167.5t-86.5 -108.5t-173.5 -40h-158v605zM239 58q97 0 166 20q27 37 41.5 97.5t14.5 134.5q0 89 -20.5 145t-67.5 83.5t-127 27.5q-42 0 -101 -8v-500h94zM81 -71h302v-57h-302v57z" />
    <glyph glyph-name="E" unicode="E" horiz-adv-x="523" 
d="M136 10q-55 19 -55 64v540h371v-58h-309v-220h280v-56h-280v-219q64 -12 146 -12q90 0 160 16l14 -55q-72 -19 -177 -19q-95 0 -150 19z" />
    <glyph glyph-name="Eacute" unicode="&#xc9;" horiz-adv-x="528" 
d="M234 707l83 143l81 -9l-119 -141zM136 10q-55 19 -55 64v540h371v-58h-309v-220h280v-56h-280v-219q64 -12 146 -12q90 0 160 16l14 -55q-72 -19 -177 -19q-95 0 -150 19z" />
    <glyph glyph-name="Ebreve" unicode="&#x114;" horiz-adv-x="528" 
d="M191 729q-31 28 -39 78l59 10q4 -33 18.5 -49.5t50.5 -16.5q35 0 49.5 16.5t18.5 49.5l59 -10q-8 -49 -39 -77.5t-88 -28.5q-58 0 -89 28zM136 10q-55 19 -55 64v540h371v-58h-309v-220h280v-56h-280v-219q64 -12 146 -12q90 0 160 16l14 -55q-72 -19 -177 -19
q-95 0 -150 19z" />
    <glyph glyph-name="Ecaron" unicode="&#x11a;" horiz-adv-x="528" 
d="M142 839l39 8l89 -88h6l87 88l41 -8l-101 -133h-60zM136 10q-55 19 -55 64v540h371v-58h-309v-220h280v-56h-280v-219q64 -12 146 -12q90 0 160 16l14 -55q-72 -19 -177 -19q-95 0 -150 19z" />
    <glyph glyph-name="Ecircumflex" unicode="&#xca;" horiz-adv-x="528" 
d="M136 706l101 132h60l101 -132l-41 -9l-87 89h-6l-89 -89zM136 10q-55 19 -55 64v540h371v-58h-309v-220h280v-56h-280v-219q64 -12 146 -12q90 0 160 16l14 -55q-72 -19 -177 -19q-95 0 -150 19z" />
    <glyph glyph-name="uni1EBE" unicode="&#x1ebe;" horiz-adv-x="537" 
d="M393 796l61 105l58 -10l-81 -104zM137 706l101 133h60l101 -133l-41 -8l-87 88h-6l-89 -88zM136 10q-55 19 -55 64v540h371v-58h-309v-220h280v-56h-280v-219q64 -12 146 -12q90 0 160 16l14 -55q-72 -19 -177 -19q-95 0 -150 19z" />
    <glyph glyph-name="uni1EC6" unicode="&#x1ec6;" horiz-adv-x="538" 
d="M148 706l101 133h60l101 -133l-41 -8l-87 88h-6l-89 -88zM136 10q-55 19 -55 64v540h371v-58h-309v-220h280v-56h-280v-219q64 -12 146 -12q90 0 160 16l14 -55q-72 -19 -177 -19q-95 0 -150 19zM240.5 -151.5q-13.5 12.5 -13.5 34.5q0 24 13 36.5t37 12.5t37 -12.5
t13 -36.5q0 -22 -13 -34.5t-37 -12.5q-23 0 -36.5 12.5z" />
    <glyph glyph-name="uni1EC0" unicode="&#x1ec0;" horiz-adv-x="535" 
d="M31 893l59 10l60 -105l-38 -9zM145 708l101 133h59l102 -133l-39 -8l-90 88h-5l-88 -88zM143 10q-55 19 -55 64v540h371v-58h-309v-220h280v-56h-280v-219q64 -12 146 -12q90 0 160 16l14 -55q-72 -19 -177 -19q-95 0 -150 19z" />
    <glyph glyph-name="uni1EC2" unicode="&#x1ec2;" horiz-adv-x="540" 
d="M386 844v25q34 0 47 5t13 18q0 12 -6.5 17t-22.5 5q-19 0 -40 -8l-9 32q30 11 55 11q63 0 63 -56q0 -51 -62 -53v-35h-29zM136 706l101 132h60l101 -132l-41 -9l-87 89h-6l-89 -89zM136 10q-55 19 -55 64v540h371v-58h-309v-220h280v-56h-280v-219q64 -12 146 -12
q90 0 160 16l14 -55q-72 -19 -177 -19q-95 0 -150 19z" />
    <glyph glyph-name="uni1EC4" unicode="&#x1ec4;" horiz-adv-x="528" 
d="M150 900q7 70 66 70q26 0 58 -20q24 -13 35 -13q32 0 40 37l33 -11q-7 -70 -66 -70q-14 0 -25.5 4.5t-26.5 13.5q-12 8 -21 11.5t-19 3.5q-34 0 -40 -36zM137 706l101 132h60l101 -132l-41 -9l-87 89h-6l-89 -89zM136 10q-55 19 -55 64v540h371v-58h-309v-220h280v-56
h-280v-219q64 -12 146 -12q90 0 160 16l14 -55q-72 -19 -177 -19q-95 0 -150 19z" />
    <glyph glyph-name="Edieresis" unicode="&#xcb;" horiz-adv-x="528" 
d="M167.5 711q-10.5 10 -10.5 27q0 18 10.5 27.5t28.5 9.5t28 -9.5t10 -27.5q0 -17 -10 -27t-28 -10t-28.5 10zM324.5 711q-10.5 10 -10.5 27q0 18 10.5 27.5t29.5 9.5q18 0 28 -9.5t10 -27.5q0 -17 -10 -27t-28 -10q-19 0 -29.5 10zM136 10q-55 19 -55 64v540h371v-58h-309
v-220h280v-56h-280v-219q64 -12 146 -12q90 0 160 16l14 -55q-72 -19 -177 -19q-95 0 -150 19z" />
    <glyph glyph-name="Edotaccent" unicode="&#x116;" horiz-adv-x="528" 
d="M239.5 713.5q-13.5 12.5 -13.5 34.5q0 24 13 36.5t37 12.5t37 -12.5t13 -36.5q0 -22 -13 -34.5t-37 -12.5q-23 0 -36.5 12.5zM136 10q-55 19 -55 64v540h371v-58h-309v-220h280v-56h-280v-219q64 -12 146 -12q90 0 160 16l14 -55q-72 -19 -177 -19q-95 0 -150 19z" />
    <glyph glyph-name="uni1EB8" unicode="&#x1eb8;" horiz-adv-x="528" 
d="M136 10q-55 19 -55 64v540h371v-58h-309v-220h280v-56h-280v-219q64 -12 146 -12q90 0 160 16l14 -55q-72 -19 -177 -19q-95 0 -150 19zM245.5 -146.5q-13.5 12.5 -13.5 34.5q0 24 13 36.5t37 12.5t37 -12.5t13 -36.5q0 -22 -13 -34.5t-37 -12.5q-23 0 -36.5 12.5z" />
    <glyph glyph-name="Egrave" unicode="&#xc8;" horiz-adv-x="528" 
d="M154 840l81 8l83 -142l-45 -8zM136 10q-55 19 -55 64v540h371v-58h-309v-220h280v-56h-280v-219q64 -12 146 -12q90 0 160 16l14 -55q-72 -19 -177 -19q-95 0 -150 19z" />
    <glyph glyph-name="uni1EBA" unicode="&#x1eba;" horiz-adv-x="528" 
d="M238 755v28q51 0 70 6.5t19 29.5q0 19 -10.5 27t-35.5 8q-30 0 -54 -10l-13 37q35 15 76 15q44 0 65 -20.5t21 -54.5q0 -72 -92 -74v-41h-34zM136 10q-55 19 -55 64v540h371v-58h-309v-220h280v-56h-280v-219q64 -12 146 -12q90 0 160 16l14 -55q-72 -19 -177 -19
q-95 0 -150 19z" />
    <glyph glyph-name="Emacron" unicode="&#x112;" horiz-adv-x="528" 
d="M126 760h285v-53h-285v53zM136 10q-55 19 -55 64v540h371v-58h-309v-220h280v-56h-280v-219q64 -12 146 -12q90 0 160 16l14 -55q-72 -19 -177 -19q-95 0 -150 19z" />
    <glyph glyph-name="Eogonek" unicode="&#x118;" horiz-adv-x="528" 
d="M356 -140.5q-24 20.5 -24 57.5q0 49 40 78q-52 -4 -86 -4q-95 0 -150 19t-55 64v540h371v-58h-309v-220h280v-56h-280v-219q64 -12 146 -12q90 0 160 16l15 -56q-18 -7 -30 -10q-27 -18 -37 -36t-10 -43q0 -17 6 -29q16 -4 38 -4q24 0 41 5l11 -42q-25 -11 -60 -11
q-43 0 -67 20.5z" />
    <glyph glyph-name="uni1EBC" unicode="&#x1ebc;" horiz-adv-x="528" 
d="M134 710q6 89 78 89q15 0 28.5 -6.5t34.5 -19.5q18 -12 28 -17t21 -5q37 0 44 50l41 -13q-6 -90 -78 -90q-17 0 -31 7t-34 20q-14 11 -25 16.5t-22 5.5q-37 0 -44 -50zM136 10q-55 19 -55 64v540h371v-58h-309v-220h280v-56h-280v-219q64 -12 146 -12q90 0 160 16l14 -55
q-72 -19 -177 -19q-95 0 -150 19z" />
    <glyph glyph-name="F" unicode="F" horiz-adv-x="491" 
d="M82 616h379v-58h-316v-222h265v-56h-265v-280h-63v616z" />
    <glyph glyph-name="G" unicode="G" horiz-adv-x="588" 
d="M125 68q-68 77 -68 223q0 154 67 243.5t203 89.5q56 0 106 -11t77 -28v-46q0 -40 -11 -67h-41l-10 82q-42 11 -122 11q-76 0 -135 -16q-34 -51 -52.5 -115.5t-18.5 -138.5q0 -126 52 -185.5t156 -59.5q42 0 72.5 5t58.5 15v196h-142v56h168l37 -29v-178
q0 -55 -56.5 -89.5t-146.5 -34.5q-126 0 -194 77z" />
    <glyph glyph-name="Gbreve" unicode="&#x11e;" horiz-adv-x="588" 
d="M227 729q-31 28 -39 78l59 10q4 -33 18.5 -49.5t50.5 -16.5q35 0 49.5 16.5t18.5 49.5l59 -10q-8 -49 -39 -77.5t-88 -28.5q-58 0 -89 28zM125 68q-68 77 -68 223q0 154 67 243.5t203 89.5q56 0 106 -11t77 -28v-46q0 -40 -11 -67h-41l-10 82q-42 11 -122 11
q-76 0 -135 -16q-34 -51 -52.5 -115.5t-18.5 -138.5q0 -126 52 -185.5t156 -59.5q42 0 72.5 5t58.5 15v196h-142v56h168l37 -29v-178q0 -55 -56.5 -89.5t-146.5 -34.5q-126 0 -194 77z" />
    <glyph glyph-name="Gcaron" unicode="&#x1e6;" horiz-adv-x="588" 
d="M175 839l39 8l89 -88h6l87 88l41 -8l-101 -133h-60zM125 68q-68 77 -68 223q0 154 67 243.5t203 89.5q56 0 106 -11t77 -28v-46q0 -40 -11 -67h-41l-10 82q-42 11 -122 11q-76 0 -135 -16q-34 -51 -52.5 -115.5t-18.5 -138.5q0 -126 52 -185.5t156 -59.5q42 0 72.5 5
t58.5 15v196h-142v56h168l37 -29v-178q0 -55 -56.5 -89.5t-146.5 -34.5q-126 0 -194 77z" />
    <glyph glyph-name="Gcircumflex" unicode="&#x11c;" horiz-adv-x="588" 
d="M177 706l101 132h60l101 -132l-41 -9l-87 89h-6l-89 -89zM125 68q-68 77 -68 223q0 154 67 243.5t203 89.5q56 0 106 -11t77 -28v-46q0 -40 -11 -67h-41l-10 82q-42 11 -122 11q-76 0 -135 -16q-34 -51 -52.5 -115.5t-18.5 -138.5q0 -126 52 -185.5t156 -59.5
q42 0 72.5 5t58.5 15v196h-142v56h168l37 -29v-178q0 -55 -56.5 -89.5t-146.5 -34.5q-126 0 -194 77z" />
    <glyph glyph-name="Gcommaaccent" unicode="&#x122;" horiz-adv-x="588" 
d="M125 68q-68 77 -68 223q0 154 67 243.5t203 89.5q56 0 106 -11t77 -28v-46q0 -40 -11 -67h-41l-10 82q-42 11 -122 11q-76 0 -135 -16q-34 -51 -52.5 -115.5t-18.5 -138.5q0 -126 52 -185.5t156 -59.5q42 0 72.5 5t58.5 15v196h-142v56h168l37 -29v-178
q0 -55 -56.5 -89.5t-146.5 -34.5q-126 0 -194 77zM300 -245q18 33 26.5 64t8.5 67h-54v43q18 7 43 7q61 0 61 -66q0 -32 -12.5 -63.5t-34.5 -59.5z" />
    <glyph glyph-name="Gdotaccent" unicode="&#x120;" horiz-adv-x="588" 
d="M281.5 713.5q-13.5 12.5 -13.5 34.5q0 24 13 36.5t37 12.5t37 -12.5t13 -36.5q0 -22 -13 -34.5t-37 -12.5q-23 0 -36.5 12.5zM125 68q-68 77 -68 223q0 154 67 243.5t203 89.5q56 0 106 -11t77 -28v-46q0 -40 -11 -67h-41l-10 82q-42 11 -122 11q-76 0 -135 -16
q-34 -51 -52.5 -115.5t-18.5 -138.5q0 -126 52 -185.5t156 -59.5q42 0 72.5 5t58.5 15v196h-142v56h168l37 -29v-178q0 -55 -56.5 -89.5t-146.5 -34.5q-126 0 -194 77z" />
    <glyph glyph-name="uni1E20" unicode="&#x1e20;" horiz-adv-x="588" 
d="M168 759h285v-53h-285v53zM125 68q-68 77 -68 223q0 154 67 243.5t203 89.5q56 0 106 -11t77 -28v-46q0 -40 -11 -67h-41l-10 82q-42 11 -122 11q-76 0 -135 -16q-34 -51 -52.5 -115.5t-18.5 -138.5q0 -126 52 -185.5t156 -59.5q42 0 72.5 5t58.5 15v196h-142v56h168
l37 -29v-178q0 -55 -56.5 -89.5t-146.5 -34.5q-126 0 -194 77z" />
    <glyph glyph-name="H" unicode="H" horiz-adv-x="592" 
d="M82 614h63v-287h302v287h63v-614h-63v268h-302v-268h-63v614z" />
    <glyph glyph-name="Hbar" unicode="&#x126;" horiz-adv-x="671" 
d="M121 443h-65v52h65v119h63v-119h302v119h63v-119h65v-52h-65v-443h-63v268h-302v-268h-63v443zM486 327v116h-302v-116h302z" />
    <glyph glyph-name="uni1E2A" unicode="&#x1e2a;" horiz-adv-x="591" 
d="M81 614h63v-287h302v287h63v-614h-63v268h-302v-268h-63v614zM207 -145q-31 28 -39 78l59 9q4 -33 18.5 -49.5t50.5 -16.5q35 0 49.5 16.5t18.5 49.5l59 -9q-8 -49 -39 -77.5t-88 -28.5q-58 0 -89 28z" />
    <glyph glyph-name="Hcircumflex" unicode="&#x124;" horiz-adv-x="591" 
d="M165 706l101 132h60l101 -132l-41 -9l-87 89h-6l-89 -89zM81 614h63v-287h302v287h63v-614h-63v268h-302v-268h-63v614z" />
    <glyph glyph-name="uni1E24" unicode="&#x1e24;" horiz-adv-x="591" 
d="M81 614h63v-287h302v287h63v-614h-63v268h-302v-268h-63v614zM258.5 -146.5q-13.5 12.5 -13.5 34.5q0 24 13 36.5t37 12.5t37 -12.5t13 -36.5q0 -22 -13 -34.5t-37 -12.5q-23 0 -36.5 12.5z" />
    <glyph glyph-name="I" unicode="I" horiz-adv-x="231" 
d="M84 614h63v-614h-63v614z" />
    <glyph glyph-name="IJ" unicode="&#x132;" horiz-adv-x="658" 
d="M337.5 -2q-36.5 7 -64.5 18l15 55q60 -23 123 -23q60 0 97 21q8 23 8 59v488h63v-491q0 -66 -45 -100t-125 -34q-35 0 -71.5 7zM84 614h63v-614h-63v614z" />
    <glyph glyph-name="Iacute" unicode="&#xcd;" horiz-adv-x="232" 
d="M87 706l83 142l81 -8l-119 -142zM84 614h63v-614h-63v614z" />
    <glyph glyph-name="Ibreve" unicode="&#x12c;" horiz-adv-x="232" 
d="M28 729q-31 28 -39 78l59 10q4 -33 18.5 -49.5t50.5 -16.5q35 0 49.5 16.5t18.5 49.5l59 -10q-8 -49 -39 -77.5t-88 -28.5q-58 0 -89 28zM84 614h63v-614h-63v614z" />
    <glyph glyph-name="uni01CF" unicode="&#x1cf;" horiz-adv-x="232" 
d="M-15 839l39 8l90 -88h5l88 88l40 -8l-101 -133h-59zM84 614h63v-614h-63v614z" />
    <glyph glyph-name="Icircumflex" unicode="&#xce;" horiz-adv-x="232" 
d="M-15 706l102 133h59l101 -133l-40 -8l-88 88h-5l-90 -88zM84 614h63v-614h-63v614z" />
    <glyph glyph-name="Idieresis" unicode="&#xcf;" horiz-adv-x="232" 
d="M9.5 711q-10.5 10 -10.5 27q0 18 10.5 27.5t28.5 9.5t28 -9.5t10 -27.5q0 -17 -10 -27t-28 -10t-28.5 10zM165.5 711q-10.5 10 -10.5 27q0 18 10.5 27.5t29.5 9.5q18 0 28 -9.5t10 -27.5q0 -17 -10 -27t-28 -10q-19 0 -29.5 10zM84 614h63v-614h-63v614z" />
    <glyph glyph-name="Idotaccent" unicode="&#x130;" horiz-adv-x="232" 
d="M79.5 701.5q-13.5 12.5 -13.5 34.5q0 24 13 36.5t37 12.5t37 -12.5t13 -36.5q0 -23 -13 -35t-37 -12q-23 0 -36.5 12.5zM84 614h63v-614h-63v614z" />
    <glyph glyph-name="uni1ECA" unicode="&#x1eca;" horiz-adv-x="252" 
d="M94 614h63v-614h-63v614zM89.5 -151.5q-13.5 12.5 -13.5 34.5q0 24 13 36.5t37 12.5t37 -12.5t13 -36.5q0 -22 -13 -34.5t-37 -12.5q-23 0 -36.5 12.5z" />
    <glyph glyph-name="Igrave" unicode="&#xcc;" horiz-adv-x="232" 
d="M-16 840l80 8l84 -142l-46 -8zM84 614h63v-614h-63v614z" />
    <glyph glyph-name="uni1EC8" unicode="&#x1ec8;" horiz-adv-x="262" 
d="M97 755v28q51 0 70 6.5t19 29.5q0 19 -10.5 27t-35.5 8q-30 0 -54 -10l-13 37q35 15 76 15q44 0 65 -20.5t21 -54.5q0 -72 -92 -74v-41h-34zM96 614h63v-614h-63v614z" />
    <glyph glyph-name="Imacron" unicode="&#x12a;" horiz-adv-x="232" 
d="M-26 759h285v-53h-285v53zM84 614h63v-614h-63v614z" />
    <glyph glyph-name="Iogonek" unicode="&#x12e;" horiz-adv-x="232" 
d="M181 -155q-25 -11 -60 -11q-43 0 -67 20.5t-24 57.5q0 28 14.5 49t39.5 39v614h63v-614q-33 -17 -47.5 -36.5t-14.5 -48.5q0 -18 6 -30q16 -4 39 -4q22 0 41 5z" />
    <glyph glyph-name="Itilde" unicode="&#x128;" horiz-adv-x="232" 
d="M-22 711q6 89 78 89q16 0 30.5 -7t33.5 -20q17 -11 27 -16t21 -5q21 0 31 13t13 37l41 -13q-6 -90 -78 -90q-17 0 -31.5 7t-32.5 20q-17 12 -27 17t-21 5q-37 0 -44 -50zM84 614h63v-614h-63v614z" />
    <glyph glyph-name="J" unicode="J" horiz-adv-x="416" 
d="M95.5 -2q-36.5 7 -64.5 18l15 55q60 -23 123 -23q60 0 97 21q8 23 8 59v488h63v-491q0 -66 -45 -100t-125 -34q-35 0 -71.5 7z" />
    <glyph glyph-name="Jcircumflex" unicode="&#x134;" horiz-adv-x="416" 
d="M165 706l101 132h60l101 -132l-41 -9l-87 89h-6l-89 -89zM95.5 -2q-36.5 7 -64.5 18l15 55q60 -23 123 -23q60 0 97 21q8 23 8 59v488h63v-491q0 -66 -45 -100t-125 -34q-35 0 -71.5 7z" />
    <glyph glyph-name="K" unicode="K" horiz-adv-x="589" 
d="M466 2.5q-15 9.5 -24 29.5l-78 175q-19 44 -44.5 64t-75.5 20h-99v-291h-63v614h63v-266h94q49 0 75 20.5t44 58.5q44 91 86 190l60 -24q-58 -126 -87 -184q-16 -34 -32.5 -52.5t-50.5 -33.5v-6q35 -12 52.5 -29t33.5 -52l87 -191l50 -8v-36q-27 -8 -53 -8q-23 0 -38 9.5
z" />
    <glyph glyph-name="Kcommaaccent" unicode="&#x136;" horiz-adv-x="589" 
d="M466 2.5q-15 9.5 -24 29.5l-78 175q-19 44 -44.5 64t-75.5 20h-99v-291h-63v614h63v-266h94q49 0 75 20.5t44 58.5q44 91 86 190l60 -24q-58 -126 -87 -184q-16 -34 -32.5 -52.5t-50.5 -33.5v-6q35 -12 52.5 -29t33.5 -52l87 -191l50 -8v-36q-27 -8 -53 -8q-23 0 -38 9.5
zM263 -238q17 32 26 62.5t9 67.5h-54v43q18 7 43 7q61 0 61 -66q0 -32 -12.5 -63.5t-34.5 -59.5z" />
    <glyph glyph-name="L" unicode="L" horiz-adv-x="456" 
d="M82 614h63v-556h282v-58h-345v614z" />
    <glyph glyph-name="Lacute" unicode="&#x139;" horiz-adv-x="456" 
d="M83 705l83 142l81 -8l-119 -142zM82 614h63v-556h282v-58h-345v614z" />
    <glyph glyph-name="Lcaron" unicode="&#x13d;" horiz-adv-x="456" 
d="M261 436q17 32 26 62.5t9 67.5h-54v43q18 7 43 7q61 0 61 -66q0 -32 -12.5 -63.5t-34.5 -59.5zM82 614h63v-556h282v-58h-345v614z" />
    <glyph glyph-name="Lcommaaccent" unicode="&#x13b;" horiz-adv-x="456" 
d="M82 614h63v-556h282v-58h-345v614zM232 -238q17 32 26 62.5t9 67.5h-54v43q18 7 43 7q61 0 61 -66q0 -32 -12.5 -63.5t-34.5 -59.5z" />
    <glyph glyph-name="Ldot" unicode="&#x13f;" horiz-adv-x="456" 
d="M82 614h63v-556h282v-58h-345v614zM252 251q-14 13 -14 35q0 21 14.5 34.5t35.5 13.5t35 -13.5t14 -34.5q0 -22 -13.5 -35t-35.5 -13t-36 13z" />
    <glyph glyph-name="uni1E36" unicode="&#x1e36;" horiz-adv-x="456" 
d="M82 614h63v-556h282v-58h-345v614zM219.5 -146.5q-13.5 12.5 -13.5 34.5q0 24 13 36.5t37 12.5t37 -12.5t13 -36.5q0 -22 -13 -34.5t-37 -12.5q-23 0 -36.5 12.5z" />
    <glyph glyph-name="uni1E38" unicode="&#x1e38;" horiz-adv-x="466" 
d="M-17 759h286v-53h-286v53zM92 614h63v-556h282v-58h-345v614zM227.5 -146.5q-13.5 12.5 -13.5 34.5q0 24 13 36.5t37 12.5t37 -12.5t13 -36.5q0 -22 -13 -34.5t-37 -12.5q-23 0 -36.5 12.5z" />
    <glyph glyph-name="uni1E3A" unicode="&#x1e3a;" horiz-adv-x="456" 
d="M82 614h63v-556h282v-58h-345v614zM82 -71h305v-57h-305v57z" />
    <glyph glyph-name="Lslash" unicode="&#x141;" horiz-adv-x="478" 
d="M112 263l-91 -30l-15 48l106 34v299h63v-279l114 37l15 -48l-129 -41v-225h273v-58h-336v263z" />
    <glyph glyph-name="M" unicode="M" horiz-adv-x="682" 
d="M101 614h67l170 -362h7l169 362h68l27 -614h-63l-14 319l-4 180l-7 2l-153 -314h-54l-153 314l-7 -2l-3 -180l-14 -319h-64z" />
    <glyph glyph-name="uni1E42" unicode="&#x1e42;" horiz-adv-x="685" 
d="M102 614h67l170 -362h7l169 362h68l27 -614h-63l-14 319l-4 180l-7 2l-153 -314h-54l-153 314l-7 -2l-3 -180l-14 -319h-64zM305.5 -146.5q-13.5 12.5 -13.5 34.5q0 24 13 36.5t37 12.5t37 -12.5t13 -36.5q0 -22 -13 -34.5t-37 -12.5q-23 0 -36.5 12.5z" />
    <glyph glyph-name="N" unicode="N" horiz-adv-x="617" 
d="M82 614h71l320 -518l8 2l-9 190v326h63v-614h-71l-320 518l-7 -2l8 -190v-326h-63v614z" />
    <glyph glyph-name="Nacute" unicode="&#x143;" horiz-adv-x="616" 
d="M275 705l83 143l81 -9l-119 -141zM81 614h71l320 -518l8 2l-9 190v326h63v-614h-71l-320 518l-7 -2l8 -190v-326h-63v614z" />
    <glyph glyph-name="Ncaron" unicode="&#x147;" horiz-adv-x="616" 
d="M189 839l39 8l89 -88h6l87 88l41 -8l-101 -133h-60zM81 614h71l320 -518l8 2l-9 190v326h63v-614h-71l-320 518l-7 -2l8 -190v-326h-63v614z" />
    <glyph glyph-name="Ncommaaccent" unicode="&#x145;" horiz-adv-x="616" 
d="M81 614h71l320 -518l8 2l-9 190v326h63v-614h-71l-320 518l-7 -2l8 -190v-326h-63v614zM292 -238q17 32 26 62.5t9 67.5h-54v43q18 7 43 7q61 0 61 -66q0 -32 -12.5 -63.5t-34.5 -59.5z" />
    <glyph glyph-name="uni1E44" unicode="&#x1e44;" horiz-adv-x="616" 
d="M282.5 713.5q-13.5 12.5 -13.5 34.5q0 24 13 36.5t37 12.5t37 -12.5t13 -36.5q0 -22 -13 -34.5t-37 -12.5q-23 0 -36.5 12.5zM81 614h71l320 -518l8 2l-9 190v326h63v-614h-71l-320 518l-7 -2l8 -190v-326h-63v614z" />
    <glyph glyph-name="uni1E46" unicode="&#x1e46;" horiz-adv-x="616" 
d="M81 614h71l320 -518l8 2l-9 190v326h63v-614h-71l-320 518l-7 -2l8 -190v-326h-63v614zM280.5 -146.5q-13.5 12.5 -13.5 34.5q0 24 13 36.5t37 12.5t37 -12.5t13 -36.5q0 -22 -13 -34.5t-37 -12.5q-23 0 -36.5 12.5z" />
    <glyph glyph-name="Eng" unicode="&#x14a;" horiz-adv-x="616" 
d="M346 -162q75 20 114 46q7 28 7 70v46l-324 518l-7 -2l8 -190v-326h-63v614h71l320 -518l8 2l-9 190v326h63v-644q0 -76 -35 -119.5t-124 -75.5z" />
    <glyph glyph-name="uni1E48" unicode="&#x1e48;" horiz-adv-x="616" 
d="M81 614h71l320 -518l8 2l-9 190v326h63v-614h-71l-320 518l-7 -2l8 -190v-326h-63v614zM194 -71h305v-57h-305v57z" />
    <glyph glyph-name="Ntilde" unicode="&#xd1;" horiz-adv-x="616" 
d="M171 709q6 90 78 90q15 0 28.5 -6.5t34.5 -19.5q18 -12 28 -17t21 -5q37 0 44 50l41 -13q-6 -90 -78 -90q-17 0 -31 7t-34 20q-15 11 -25.5 16t-21.5 5q-21 0 -31 -13t-13 -37zM81 614h71l320 -518l8 2l-9 190v326h63v-614h-71l-320 518l-7 -2l8 -190v-326h-63v614z" />
    <glyph glyph-name="O" unicode="O" horiz-adv-x="610" 
d="M57 297q0 163 59 245t198 82q123 0 181 -77t58 -230q0 -162 -59 -244t-198 -82q-239 0 -239 306zM379 56.5q34 6.5 56 16.5q25 45 40 103.5t15 126.5q0 137 -43 199.5t-147 62.5q-36 0 -71.5 -6.5t-56.5 -17.5q-52 -93 -52 -230t42.5 -199t147.5 -62q35 0 69 6.5z" />
    <glyph glyph-name="Oacute" unicode="&#xd3;" horiz-adv-x="610" 
d="M279 705l83 143l81 -9l-119 -141zM57 297q0 163 59 245t198 82q123 0 181 -77t58 -230q0 -162 -59 -244t-198 -82q-239 0 -239 306zM379 56.5q34 6.5 56 16.5q25 45 40 103.5t15 126.5q0 137 -43 199.5t-147 62.5q-36 0 -71.5 -6.5t-56.5 -17.5q-52 -93 -52 -230
t42.5 -199t147.5 -62q35 0 69 6.5z" />
    <glyph glyph-name="Obreve" unicode="&#x14e;" horiz-adv-x="610" 
d="M216 729q-31 28 -39 78l59 10q4 -33 18.5 -49.5t50.5 -16.5q35 0 49.5 16.5t18.5 49.5l59 -10q-8 -49 -39 -77.5t-88 -28.5q-58 0 -89 28zM57 297q0 163 59 245t198 82q123 0 181 -77t58 -230q0 -162 -59 -244t-198 -82q-239 0 -239 306zM379 56.5q34 6.5 56 16.5
q25 45 40 103.5t15 126.5q0 137 -43 199.5t-147 62.5q-36 0 -71.5 -6.5t-56.5 -17.5q-52 -93 -52 -230t42.5 -199t147.5 -62q35 0 69 6.5z" />
    <glyph glyph-name="uni01D1" unicode="&#x1d1;" horiz-adv-x="610" 
d="M176 839l39 8l89 -88h6l87 88l41 -8l-101 -133h-60zM57 297q0 163 59 245t198 82q123 0 181 -77t58 -230q0 -162 -59 -244t-198 -82q-239 0 -239 306zM379 56.5q34 6.5 56 16.5q25 45 40 103.5t15 126.5q0 137 -43 199.5t-147 62.5q-36 0 -71.5 -6.5t-56.5 -17.5
q-52 -93 -52 -230t42.5 -199t147.5 -62q35 0 69 6.5z" />
    <glyph glyph-name="Ocircumflex" unicode="&#xd4;" horiz-adv-x="610" 
d="M181 706l101 132h60l101 -132l-41 -9l-87 89h-6l-89 -89zM57 297q0 163 59 245t198 82q123 0 181 -77t58 -230q0 -162 -59 -244t-198 -82q-239 0 -239 306zM379 56.5q34 6.5 56 16.5q25 45 40 103.5t15 126.5q0 137 -43 199.5t-147 62.5q-36 0 -71.5 -6.5t-56.5 -17.5
q-52 -93 -52 -230t42.5 -199t147.5 -62q35 0 69 6.5z" />
    <glyph glyph-name="uni1ED0" unicode="&#x1ed0;" horiz-adv-x="611" 
d="M438 796l61 105l58 -10l-81 -104zM181 706l101 133h60l101 -133l-41 -8l-87 88h-6l-89 -88zM57 297q0 163 59 245t198 82q123 0 181 -77t58 -230q0 -162 -59 -244t-198 -82q-239 0 -239 306zM379 56.5q34 6.5 56 16.5q25 45 40 103.5t15 126.5q0 137 -43 199.5t-147 62.5
q-36 0 -71.5 -6.5t-56.5 -17.5q-52 -93 -52 -230t42.5 -199t147.5 -62q35 0 69 6.5z" />
    <glyph glyph-name="uni1ED8" unicode="&#x1ed8;" horiz-adv-x="610" 
d="M180 706l101 133h60l101 -133l-41 -8l-87 88h-6l-89 -88zM57 297q0 163 59 245t198 82q123 0 181 -77t58 -230q0 -162 -59 -244t-198 -82q-239 0 -239 306zM379 56.5q34 6.5 56 16.5q25 45 40 103.5t15 126.5q0 137 -43 199.5t-147 62.5q-36 0 -71.5 -6.5t-56.5 -17.5
q-52 -93 -52 -230t42.5 -199t147.5 -62q35 0 69 6.5zM274.5 -151.5q-13.5 12.5 -13.5 34.5q0 24 13 36.5t37 12.5t37 -12.5t13 -36.5q0 -22 -13 -34.5t-37 -12.5q-23 0 -36.5 12.5z" />
    <glyph glyph-name="uni1ED2" unicode="&#x1ed2;" horiz-adv-x="607" 
d="M59 890l59 10l60 -105l-38 -9zM173 705l101 133h59l102 -133l-39 -8l-90 88h-5l-88 -88zM54 297q0 163 59 245t198 82q123 0 181 -77t58 -230q0 -162 -59 -244t-198 -82q-239 0 -239 306zM376 56.5q34 6.5 56 16.5q25 45 40 103.5t15 126.5q0 137 -43 199.5t-147 62.5
q-36 0 -71.5 -6.5t-56.5 -17.5q-52 -93 -52 -230t42.5 -199t147.5 -62q35 0 69 6.5z" />
    <glyph glyph-name="uni1ED4" unicode="&#x1ed4;" horiz-adv-x="599" 
d="M428 844v25q34 0 47 5t13 18q0 12 -6.5 17t-22.5 5q-23 0 -40 -8l-9 32q30 11 55 11q63 0 63 -56q0 -51 -62 -53v-34h-29zM178 706l101 132h60l101 -132l-41 -9l-87 89h-6l-89 -89zM57 297q0 163 59 245t198 82q123 0 181 -77t58 -230q0 -162 -59 -244t-198 -82
q-239 0 -239 306zM379 56.5q34 6.5 56 16.5q25 45 40 103.5t15 126.5q0 137 -43 199.5t-147 62.5q-36 0 -71.5 -6.5t-56.5 -17.5q-52 -93 -52 -230t42.5 -199t147.5 -62q35 0 69 6.5z" />
    <glyph glyph-name="uni1ED6" unicode="&#x1ed6;" horiz-adv-x="610" 
d="M195 901q7 69 66 69q26 0 58 -20q24 -13 35 -13q32 0 40 37l33 -11q-7 -69 -66 -69q-14 0 -25.5 4.5t-26.5 13.5q-12 8 -21 11.5t-19 3.5q-34 0 -40 -37zM182 706l101 133h60l101 -133l-41 -8l-87 88h-6l-89 -88zM57 297q0 163 59 245t198 82q123 0 181 -77t58 -230
q0 -162 -59 -244t-198 -82q-239 0 -239 306zM379 56.5q34 6.5 56 16.5q25 45 40 103.5t15 126.5q0 137 -43 199.5t-147 62.5q-36 0 -71.5 -6.5t-56.5 -17.5q-52 -93 -52 -230t42.5 -199t147.5 -62q35 0 69 6.5z" />
    <glyph glyph-name="Odieresis" unicode="&#xd6;" horiz-adv-x="610" 
d="M201.5 711q-10.5 10 -10.5 27q0 18 10.5 27.5t28.5 9.5t28 -9.5t10 -27.5q0 -17 -10 -27t-28 -10t-28.5 10zM358.5 711q-10.5 10 -10.5 27q0 18 10.5 27.5t29.5 9.5q18 0 28 -9.5t10 -27.5q0 -17 -10 -27t-28 -10q-19 0 -29.5 10zM57 297q0 163 59 245t198 82
q123 0 181 -77t58 -230q0 -162 -59 -244t-198 -82q-239 0 -239 306zM379 56.5q34 6.5 56 16.5q25 45 40 103.5t15 126.5q0 137 -43 199.5t-147 62.5q-36 0 -71.5 -6.5t-56.5 -17.5q-52 -93 -52 -230t42.5 -199t147.5 -62q35 0 69 6.5z" />
    <glyph glyph-name="uni1ECC" unicode="&#x1ecc;" horiz-adv-x="610" 
d="M57 297q0 163 59 245t198 82q123 0 181 -77t58 -230q0 -162 -59 -244t-198 -82q-239 0 -239 306zM379 56.5q34 6.5 56 16.5q25 45 40 103.5t15 126.5q0 137 -43 199.5t-147 62.5q-36 0 -71.5 -6.5t-56.5 -17.5q-52 -93 -52 -230t42.5 -199t147.5 -62q35 0 69 6.5z
M265.5 -151.5q-13.5 12.5 -13.5 34.5q0 24 13 36.5t37 12.5t37 -12.5t13 -36.5q0 -22 -13 -34.5t-37 -12.5q-23 0 -36.5 12.5z" />
    <glyph glyph-name="Ograve" unicode="&#xd2;" horiz-adv-x="610" 
d="M188 840l81 8l83 -142l-45 -8zM57 297q0 163 59 245t198 82q123 0 181 -77t58 -230q0 -162 -59 -244t-198 -82q-239 0 -239 306zM379 56.5q34 6.5 56 16.5q25 45 40 103.5t15 126.5q0 137 -43 199.5t-147 62.5q-36 0 -71.5 -6.5t-56.5 -17.5q-52 -93 -52 -230t42.5 -199
t147.5 -62q35 0 69 6.5z" />
    <glyph glyph-name="uni1ECE" unicode="&#x1ece;" horiz-adv-x="610" 
d="M280 755v28q51 0 70 6.5t19 29.5q0 19 -10.5 27t-35.5 8q-30 0 -54 -10l-13 37q35 15 76 15q44 0 65 -20.5t21 -54.5q0 -72 -92 -74v-41h-34zM57 297q0 163 59 245t198 82q123 0 181 -77t58 -230q0 -162 -59 -244t-198 -82q-239 0 -239 306zM379 56.5q34 6.5 56 16.5
q25 45 40 103.5t15 126.5q0 137 -43 199.5t-147 62.5q-36 0 -71.5 -6.5t-56.5 -17.5q-52 -93 -52 -230t42.5 -199t147.5 -62q35 0 69 6.5z" />
    <glyph glyph-name="Ohorn" unicode="&#x1a0;" horiz-adv-x="643" 
d="M57 299q0 163 59 245t198 82q67 0 112 -21.5t74 -65.5h15q22 40 33.5 82.5t12.5 96.5h60q-2 -81 -24.5 -135.5t-72.5 -90.5q29 -69 29 -172q0 -163 -59 -245t-198 -82q-239 0 -239 306zM379 58.5q34 6.5 56 16.5q25 45 40 104t15 127q0 137 -43 199.5t-147 62.5
q-35 0 -70.5 -6.5t-57.5 -17.5q-52 -93 -52 -231q0 -137 42.5 -199t147.5 -62q35 0 69 6.5z" />
    <glyph glyph-name="uni1EDA" unicode="&#x1eda;" horiz-adv-x="643" 
d="M272 706l83 143l81 -9l-119 -141zM57 299q0 163 59 245t198 82q67 0 112 -21.5t74 -65.5h15q22 40 33.5 82.5t12.5 96.5h60q-2 -81 -24.5 -135.5t-72.5 -90.5q29 -69 29 -172q0 -163 -59 -245t-198 -82q-239 0 -239 306zM379 58.5q34 6.5 56 16.5q25 45 40 104t15 127
q0 137 -43 199.5t-147 62.5q-35 0 -70.5 -6.5t-57.5 -17.5q-52 -93 -52 -231q0 -137 42.5 -199t147.5 -62q35 0 69 6.5z" />
    <glyph glyph-name="uni1EE2" unicode="&#x1ee2;" horiz-adv-x="643" 
d="M57 299q0 163 59 245t198 82q67 0 112 -21.5t74 -65.5h15q22 40 33.5 82.5t12.5 96.5h60q-2 -81 -24.5 -135.5t-72.5 -90.5q29 -69 29 -172q0 -163 -59 -245t-198 -82q-239 0 -239 306zM379 58.5q34 6.5 56 16.5q25 45 40 104t15 127q0 137 -43 199.5t-147 62.5
q-35 0 -70.5 -6.5t-57.5 -17.5q-52 -93 -52 -231q0 -137 42.5 -199t147.5 -62q35 0 69 6.5zM274.5 -151.5q-13.5 12.5 -13.5 34.5q0 24 13 36.5t37 12.5t37 -12.5t13 -36.5q0 -22 -13 -34.5t-37 -12.5q-23 0 -36.5 12.5z" />
    <glyph glyph-name="uni1EDC" unicode="&#x1edc;" horiz-adv-x="643" 
d="M187 840l81 9l83 -143l-45 -7zM57 299q0 163 59 245t198 82q67 0 112 -21.5t74 -65.5h15q22 40 33.5 82.5t12.5 96.5h60q-2 -81 -24.5 -135.5t-72.5 -90.5q29 -69 29 -172q0 -163 -59 -245t-198 -82q-239 0 -239 306zM379 58.5q34 6.5 56 16.5q25 45 40 104t15 127
q0 137 -43 199.5t-147 62.5q-35 0 -70.5 -6.5t-57.5 -17.5q-52 -93 -52 -231q0 -137 42.5 -199t147.5 -62q35 0 69 6.5z" />
    <glyph glyph-name="uni1EDE" unicode="&#x1ede;" horiz-adv-x="643" 
d="M279 755v28q51 0 70 6.5t19 29.5q0 19 -10.5 27t-35.5 8q-30 0 -54 -10l-13 37q35 15 76 15q44 0 65 -20.5t21 -54.5q0 -72 -92 -74v-41h-34zM57 299q0 163 59 245t198 82q67 0 112 -21.5t74 -65.5h15q22 40 33.5 82.5t12.5 96.5h60q-2 -81 -24.5 -135.5t-72.5 -90.5
q29 -69 29 -172q0 -163 -59 -245t-198 -82q-239 0 -239 306zM379 58.5q34 6.5 56 16.5q25 45 40 104t15 127q0 137 -43 199.5t-147 62.5q-35 0 -70.5 -6.5t-57.5 -17.5q-52 -93 -52 -231q0 -137 42.5 -199t147.5 -62q35 0 69 6.5z" />
    <glyph glyph-name="uni1EE0" unicode="&#x1ee0;" horiz-adv-x="643" 
d="M177 710q6 89 78 89q15 0 28.5 -6.5t34.5 -19.5q18 -12 28 -17t21 -5q37 0 44 50l41 -13q-6 -90 -78 -90q-17 0 -31 7t-34 20q-14 11 -25 16.5t-22 5.5q-37 0 -44 -50zM57 299q0 163 59 245t198 82q67 0 112 -21.5t74 -65.5h15q22 40 33.5 82.5t12.5 96.5h60
q-2 -81 -24.5 -135.5t-72.5 -90.5q29 -69 29 -172q0 -163 -59 -245t-198 -82q-239 0 -239 306zM379 58.5q34 6.5 56 16.5q25 45 40 104t15 127q0 137 -43 199.5t-147 62.5q-35 0 -70.5 -6.5t-57.5 -17.5q-52 -93 -52 -231q0 -137 42.5 -199t147.5 -62q35 0 69 6.5z" />
    <glyph glyph-name="Ohungarumlaut" unicode="&#x150;" horiz-adv-x="610" 
d="M194 706q18 33 26.5 63.5t8.5 67.5h-54v43q18 7 42 7q60 0 60 -66t-46 -123zM359 706q18 33 26.5 63.5t8.5 67.5h-54v43q18 7 43 7q30 0 44.5 -16.5t14.5 -49.5q0 -66 -46 -123zM57 297q0 163 59 245t198 82q123 0 181 -77t58 -230q0 -162 -59 -244t-198 -82
q-239 0 -239 306zM379 56.5q34 6.5 56 16.5q25 45 40 103.5t15 126.5q0 137 -43 199.5t-147 62.5q-36 0 -71.5 -6.5t-56.5 -17.5q-52 -93 -52 -230t42.5 -199t147.5 -62q35 0 69 6.5z" />
    <glyph glyph-name="Omacron" unicode="&#x14c;" horiz-adv-x="610" 
d="M164 759h285v-53h-285v53zM57 297q0 163 59 245t198 82q123 0 181 -77t58 -230q0 -162 -59 -244t-198 -82q-239 0 -239 306zM379 56.5q34 6.5 56 16.5q25 45 40 103.5t15 126.5q0 137 -43 199.5t-147 62.5q-36 0 -71.5 -6.5t-56.5 -17.5q-52 -93 -52 -230t42.5 -199
t147.5 -62q35 0 69 6.5z" />
    <glyph glyph-name="Oslash" unicode="&#xd8;" horiz-adv-x="615" 
d="M106 -57l43 93q-90 72 -90 261q0 163 59 245t198 82q52 0 95 -16l34 71l52 -13l-38 -82q96 -70 96 -267q0 -162 -59 -244t-198 -82q-59 0 -103 18l-37 -80zM385 550q-34 15 -83 15q-36 0 -71.5 -6.5t-56.5 -17.5q-52 -93 -52 -230q0 -78 12.5 -130.5t41.5 -83.5z
M381.5 55.5q33.5 6.5 55.5 17.5q25 44 40 103t15 127q0 81 -14.5 135.5t-46.5 84.5l-210 -457q37 -17 91 -17q36 0 69.5 6.5z" />
    <glyph glyph-name="Oslashacute" unicode="&#x1fe;" horiz-adv-x="615" 
d="M273 706l83 143l81 -9l-119 -141zM106 -57l43 93q-90 72 -90 261q0 163 59 245t198 82q52 0 95 -16l34 71l52 -13l-38 -82q96 -70 96 -267q0 -162 -59 -244t-198 -82q-59 0 -103 18l-37 -80zM385 550q-34 15 -83 15q-36 0 -71.5 -6.5t-56.5 -17.5q-52 -93 -52 -230
q0 -78 12.5 -130.5t41.5 -83.5zM381.5 55.5q33.5 6.5 55.5 17.5q25 44 40 103t15 127q0 81 -14.5 135.5t-46.5 84.5l-210 -457q37 -17 91 -17q36 0 69.5 6.5z" />
    <glyph glyph-name="Otilde" unicode="&#xd5;" horiz-adv-x="610" 
d="M171 707q6 90 78 90q15 0 28.5 -6.5t34.5 -19.5q18 -12 28 -17t21 -5q37 0 44 49l41 -13q-6 -89 -78 -89q-17 0 -31 7t-34 20q-15 11 -25.5 16t-21.5 5q-21 0 -31 -13t-13 -37zM57 297q0 163 59 245t198 82q123 0 181 -77t58 -230q0 -162 -59 -244t-198 -82
q-239 0 -239 306zM379 56.5q34 6.5 56 16.5q25 45 40 103.5t15 126.5q0 137 -43 199.5t-147 62.5q-36 0 -71.5 -6.5t-56.5 -17.5q-52 -93 -52 -230t42.5 -199t147.5 -62q35 0 69 6.5z" />
    <glyph glyph-name="OE" unicode="&#x152;" horiz-adv-x="891" 
d="M470 28h-6q-62 -37 -164 -37q-120 0 -180 77t-60 229q0 163 60.5 245t200.5 82q63 0 121 -10h371v-58h-309v-220h280v-56h-280v-214q66 -18 148 -18q88 0 158 16l14 -55q-72 -19 -178 -19q-126 0 -176 38zM384 55.5q35 6.5 58 17.5v482q-33 6 -60.5 8t-72.5 2
q-38 0 -75.5 -6.5t-58.5 -17.5q-52 -93 -52 -230q0 -136 43.5 -199t148.5 -63q34 0 69 6.5z" />
    <glyph glyph-name="P" unicode="P" horiz-adv-x="517" 
d="M82 599q91 25 165 25q233 0 233 -206q0 -108 -55.5 -160t-180.5 -52h-99v-206h-63v599zM236 263q51 0 83 3t62 12q36 50 36 137q0 80 -43.5 115.5t-127.5 35.5q-58 0 -101 -11v-292h91z" />
    <glyph glyph-name="Thorn" unicode="&#xde;" horiz-adv-x="481" 
d="M81 616h63v-122h105q89 0 137 -43.5t48 -126.5q0 -86 -48.5 -130t-136.5 -44h-105v-150h-63v616zM245 206q69 0 97.5 29t28.5 89t-29 87t-97 27h-101v-232h101z" />
    <glyph glyph-name="Q" unicode="Q" horiz-adv-x="613" 
d="M292 -130.5q-44 6.5 -66 15.5v43l17 73q-186 30 -186 299q0 162 59.5 243t198.5 81q123 0 181 -75.5t58 -228.5q0 -161 -58 -242t-194 -82q-10 0 -15 1v-75q38 -8 85 -8q74 0 134 12l11 -49q-56 -14 -144 -14q-37 0 -81 6.5zM380.5 61.5q34.5 6.5 55.5 17.5
q25 44 40 102.5t15 124.5q0 93 -18 149t-59.5 83t-112.5 27q-36 0 -72 -6.5t-57 -17.5q-25 -44 -38.5 -102t-13.5 -125q0 -93 18 -149t59.5 -83t112.5 -27q36 0 70.5 6.5z" />
    <glyph glyph-name="R" unicode="R" horiz-adv-x="575" 
d="M455 2.5q-15 9.5 -24 29.5l-61 138q-13 30 -24.5 47t-33 27t-58.5 10h-110v-254h-63v600q83 24 164 24q111 0 164.5 -44.5t53.5 -136.5q0 -114 -100 -166v-8q23 -11 37 -26.5t26 -42.5l70 -155l50 -8v-36q-26 -8 -53 -8q-23 0 -38 9.5zM328 311q37 24 54 53t17 77
q0 67 -37 96t-120 29q-50 0 -98 -10v-245h184z" />
    <glyph glyph-name="Racute" unicode="&#x154;" horiz-adv-x="575" 
d="M226 706l83 142l81 -8l-119 -142zM455 2.5q-15 9.5 -24 29.5l-61 138q-13 30 -24.5 47t-33 27t-58.5 10h-110v-254h-63v600q83 24 164 24q111 0 164.5 -44.5t53.5 -136.5q0 -114 -100 -166v-8q23 -11 37 -26.5t26 -42.5l70 -155l50 -8v-36q-26 -8 -53 -8q-23 0 -38 9.5z
M328 311q37 24 54 53t17 77q0 67 -37 96t-120 29q-50 0 -98 -10v-245h184z" />
    <glyph glyph-name="Rcaron" unicode="&#x158;" horiz-adv-x="575" 
d="M131 839l39 8l89 -88h6l87 88l41 -8l-101 -133h-60zM455 2.5q-15 9.5 -24 29.5l-61 138q-13 30 -24.5 47t-33 27t-58.5 10h-110v-254h-63v600q83 24 164 24q111 0 164.5 -44.5t53.5 -136.5q0 -114 -100 -166v-8q23 -11 37 -26.5t26 -42.5l70 -155l50 -8v-36
q-26 -8 -53 -8q-23 0 -38 9.5zM328 311q37 24 54 53t17 77q0 67 -37 96t-120 29q-50 0 -98 -10v-245h184z" />
    <glyph glyph-name="Rcommaaccent" unicode="&#x156;" horiz-adv-x="575" 
d="M455 2.5q-15 9.5 -24 29.5l-61 138q-13 30 -24 46t-31 26.5t-55 11.5h-116v-254h-63v600q83 24 164 24q111 0 164.5 -44.5t53.5 -136.5q0 -114 -100 -166v-8q23 -11 37 -26.5t26 -42.5l70 -155l50 -8v-36q-26 -8 -53 -8q-23 0 -38 9.5zM328 311q37 24 54 53t17 77
q0 67 -37 96t-120 29q-50 0 -98 -10v-245h184zM257 -238q17 32 26 62.5t9 67.5h-54v43q18 7 43 7q61 0 61 -66q0 -32 -12.5 -63.5t-34.5 -59.5z" />
    <glyph glyph-name="uni1E5A" unicode="&#x1e5a;" horiz-adv-x="575" 
d="M455 2.5q-15 9.5 -24 29.5l-61 138q-13 30 -24.5 47t-33 27t-58.5 10h-110v-254h-63v600q83 24 164 24q111 0 164.5 -44.5t53.5 -136.5q0 -114 -100 -166v-8q23 -11 37 -26.5t26 -42.5l70 -155l50 -8v-36q-26 -8 -53 -8q-23 0 -38 9.5zM328 311q37 24 54 53t17 77
q0 67 -37 96t-120 29q-50 0 -98 -10v-245h184zM253.5 -145.5q-13.5 12.5 -13.5 34.5q0 23 13.5 36t36.5 13q24 0 37 -13t13 -36t-13 -35t-37 -12q-23 0 -36.5 12.5z" />
    <glyph glyph-name="uni1E5C" unicode="&#x1e5c;" horiz-adv-x="575" 
d="M105 759h285v-53h-285v53zM455 2.5q-15 9.5 -24 29.5l-61 138q-13 30 -24.5 47t-33 27t-58.5 10h-110v-254h-63v600q83 24 164 24q111 0 164.5 -44.5t53.5 -136.5q0 -114 -100 -166v-8q23 -11 37 -26.5t26 -42.5l70 -155l50 -8v-36q-26 -8 -53 -8q-23 0 -38 9.5zM328 311
q37 24 54 53t17 77q0 67 -37 96t-120 29q-50 0 -98 -10v-245h184zM248.5 -146.5q-13.5 12.5 -13.5 34.5q0 24 13 36.5t37 12.5t37 -12.5t13 -36.5q0 -22 -13 -34.5t-37 -12.5q-23 0 -36.5 12.5z" />
    <glyph glyph-name="uni1E5E" unicode="&#x1e5e;" horiz-adv-x="576" 
d="M456 2.5q-15 9.5 -24 29.5l-61 138q-13 30 -24.5 47t-33 27t-58.5 10h-110v-254h-63v600q83 24 164 24q111 0 164.5 -44.5t53.5 -136.5q0 -114 -100 -166v-8q23 -11 37 -26.5t26 -42.5l70 -155l50 -8v-36q-26 -8 -53 -8q-23 0 -38 9.5zM328 311q37 24 54 53t17 77
q0 67 -37 96t-120 29q-50 0 -98 -10v-245h184zM81 -71h305v-57h-305v57z" />
    <glyph glyph-name="S" unicode="S" horiz-adv-x="514" 
d="M54 36l22 55q43 -21 86 -30.5t93 -9.5q65 0 118 20q16 35 16 84q0 51 -30 77t-104 45q-90 22 -139 58.5t-49 111.5q0 78 46 127.5t154 49.5q56 0 94 -9.5t72 -28.5v-31q0 -38 -15 -85h-44l-10 89q-64 8 -103 8q-71 0 -101 -27t-30 -85q0 -34 14 -55.5t44.5 -35.5
t85.5 -27q95 -22 137 -58.5t42 -104.5q0 -81 -46 -132t-158 -51q-105 0 -195 45z" />
    <glyph glyph-name="Sacute" unicode="&#x15a;" horiz-adv-x="514" 
d="M221 706l83 143l81 -9l-119 -141zM54 36l22 55q43 -21 86 -30.5t93 -9.5q65 0 118 20q16 35 16 84q0 51 -30 77t-104 45q-90 22 -139 58.5t-49 111.5q0 78 46 127.5t154 49.5q56 0 94 -9.5t72 -28.5v-31q0 -38 -15 -85h-44l-10 89q-64 8 -103 8q-71 0 -101 -27t-30 -85
q0 -34 14 -55.5t44.5 -35.5t85.5 -27q95 -22 137 -58.5t42 -104.5q0 -81 -46 -132t-158 -51q-105 0 -195 45z" />
    <glyph glyph-name="Scaron" unicode="&#x160;" horiz-adv-x="514" 
d="M131 839l39 8l89 -88h6l87 88l41 -8l-101 -133h-60zM54 36l22 55q43 -21 86 -30.5t93 -9.5q65 0 118 20q16 35 16 84q0 51 -30 77t-104 45q-90 22 -139 58.5t-49 111.5q0 78 46 127.5t154 49.5q56 0 94 -9.5t72 -28.5v-31q0 -38 -15 -85h-44l-10 89q-64 8 -103 8
q-71 0 -101 -27t-30 -85q0 -34 14 -55.5t44.5 -35.5t85.5 -27q95 -22 137 -58.5t42 -104.5q0 -81 -46 -132t-158 -51q-105 0 -195 45z" />
    <glyph glyph-name="Scedilla" unicode="&#x15e;" horiz-adv-x="514" 
d="M175 -200l14 40q30 -12 68 -12q25 0 50 5q6 15 6 33q0 37 -46 37q-26 0 -44 -7l-36 36l49 60q-100 2 -182 44l22 55q43 -21 86 -30.5t93 -9.5q65 0 118 20q16 35 16 84q0 51 -30 77t-104 45q-90 22 -139 58.5t-49 111.5q0 78 46 127.5t154 49.5q56 0 94 -9.5t72 -28.5
v-31q0 -38 -15 -85h-44l-10 89q-64 8 -103 8q-71 0 -101 -27t-30 -85q0 -34 14 -55.5t44.5 -35.5t85.5 -27q95 -22 137 -58.5t42 -104.5q0 -73 -38 -122.5t-129 -58.5l-41 -57q19 8 44 8q76 0 76 -74q0 -86 -106 -86q-47 0 -84 16z" />
    <glyph glyph-name="Scircumflex" unicode="&#x15c;" horiz-adv-x="514" 
d="M133 706l101 132h60l101 -132l-41 -9l-87 89h-6l-89 -89zM54 36l22 55q43 -21 86 -30.5t93 -9.5q65 0 118 20q16 35 16 84q0 51 -30 77t-104 45q-90 22 -139 58.5t-49 111.5q0 78 46 127.5t154 49.5q56 0 94 -9.5t72 -28.5v-31q0 -38 -15 -85h-44l-10 89q-64 8 -103 8
q-71 0 -101 -27t-30 -85q0 -34 14 -55.5t44.5 -35.5t85.5 -27q95 -22 137 -58.5t42 -104.5q0 -81 -46 -132t-158 -51q-105 0 -195 45z" />
    <glyph glyph-name="Scommaaccent" unicode="&#x218;" horiz-adv-x="514" 
d="M54 36l22 55q43 -21 86 -30.5t93 -9.5q65 0 118 20q16 35 16 84q0 51 -30 77t-104 45q-90 22 -139 58.5t-49 111.5q0 78 46 127.5t154 49.5q56 0 94 -9.5t72 -28.5v-31q0 -38 -15 -85h-44l-10 89q-64 8 -103 8q-71 0 -101 -27t-30 -85q0 -34 14 -55.5t44.5 -35.5
t85.5 -27q95 -22 137 -58.5t42 -104.5q0 -81 -46 -132t-158 -51q-105 0 -195 45zM235 -238q17 32 26 62.5t9 67.5h-54v43q18 7 43 7q61 0 61 -66q0 -32 -12.5 -63.5t-34.5 -59.5z" />
    <glyph glyph-name="uni1E60" unicode="&#x1e60;" horiz-adv-x="514" 
d="M219.5 713.5q-13.5 12.5 -13.5 34.5q0 24 13 36.5t37 12.5t37 -12.5t13 -36.5q0 -22 -13 -34.5t-37 -12.5q-23 0 -36.5 12.5zM54 36l22 55q43 -21 86 -30.5t93 -9.5q65 0 118 20q16 35 16 84q0 51 -30 77t-104 45q-90 22 -139 58.5t-49 111.5q0 78 46 127.5t154 49.5
q56 0 94 -9.5t72 -28.5v-31q0 -38 -15 -85h-44l-10 89q-64 8 -103 8q-71 0 -101 -27t-30 -85q0 -34 14 -55.5t44.5 -35.5t85.5 -27q95 -22 137 -58.5t42 -104.5q0 -81 -46 -132t-158 -51q-105 0 -195 45z" />
    <glyph glyph-name="uni1E62" unicode="&#x1e62;" horiz-adv-x="514" 
d="M54 36l22 55q43 -21 86 -30.5t93 -9.5q65 0 118 20q16 35 16 84q0 51 -30 77t-104 45q-90 22 -139 58.5t-49 111.5q0 78 46 127.5t154 49.5q56 0 94 -9.5t72 -28.5v-31q0 -38 -15 -85h-44l-10 89q-64 8 -103 8q-71 0 -101 -27t-30 -85q0 -34 14 -55.5t44.5 -35.5
t85.5 -27q95 -22 137 -58.5t42 -104.5q0 -81 -46 -132t-158 -51q-105 0 -195 45zM228.5 -146.5q-13.5 12.5 -13.5 34.5q0 24 13 36.5t37 12.5t37 -12.5t13 -36.5q0 -22 -13 -34.5t-37 -12.5q-23 0 -36.5 12.5z" />
    <glyph glyph-name="uni1E9E" unicode="&#x1e9e;" horiz-adv-x="583" 
d="M279.5 -2.5q-30.5 5.5 -69.5 18.5l16 53q39 -11 66 -15t60 -4q36 0 58 3.5t46 12.5q20 45 20 107q0 61 -39 90.5t-119 29.5h-43v58l144 168v9q-32 15 -60 21.5t-68 6.5q-80 0 -114 -36.5t-34 -123.5v-396h-62v396q0 108 49.5 163t154.5 55q110 0 201 -63v-44l-142 -159
v-7q97 -5 145.5 -49t48.5 -120q0 -180 -193 -180q-35 0 -65.5 5.5z" />
    <glyph glyph-name="uni018F" unicode="&#x18f;" horiz-adv-x="618" 
d="M114.5 57.5q-57.5 65.5 -57.5 179.5q0 28 2 40l72 63l353 -4q0 229 -206 229q-62 0 -105 -14t-87 -42l-25 49q51 32 101.5 49t122.5 17q128 0 195 -80t67 -230q0 -159 -63 -240.5t-196 -81.5q-116 0 -173.5 65.5zM438 110q46 59 46 173l-361 -5q-4 -32 -4 -60
q0 -78 43.5 -122.5t126.5 -44.5q103 0 149 59z" />
    <glyph glyph-name="T" unicode="T" horiz-adv-x="533" 
d="M235 555h-198v59h459v-59h-198v-555h-63v555z" />
    <glyph glyph-name="Tbar" unicode="&#x166;" horiz-adv-x="533" 
d="M235 282h-116v51h116v222h-198v59h459v-59h-198v-222h117v-51h-117v-282h-63v282z" />
    <glyph glyph-name="Tcaron" unicode="&#x164;" horiz-adv-x="533" 
d="M136 839l39 8l89 -88h6l87 88l41 -8l-101 -133h-60zM235 555h-198v59h459v-59h-198v-555h-63v555z" />
    <glyph glyph-name="uni0162" unicode="&#x162;" horiz-adv-x="533" 
d="M164 -200l14 39q31 -11 69 -11q31 0 50 5q5 15 5 33q0 37 -46 37q-26 0 -43 -7l-37 36l59 70v553h-198v59h459v-59h-198v-555h-17l-47 -64q17 7 45 7q75 0 75 -73q0 -86 -106 -86q-47 0 -84 16z" />
    <glyph glyph-name="uni021A" unicode="&#x21a;" horiz-adv-x="544" 
d="M240 555h-198v59h459v-59h-198v-555h-63v555zM238 -235q17 32 26 62.5t9 67.5h-54v43q18 7 43 7q61 0 61 -66q0 -32 -12.5 -63.5t-34.5 -59.5z" />
    <glyph glyph-name="uni1E6C" unicode="&#x1e6c;" horiz-adv-x="533" 
d="M235 555h-198v59h459v-59h-198v-555h-63v555zM230.5 -151.5q-13.5 12.5 -13.5 34.5q0 24 13 36.5t37 12.5t37 -12.5t13 -36.5q0 -22 -13 -34.5t-37 -12.5q-23 0 -36.5 12.5z" />
    <glyph glyph-name="uni1E6E" unicode="&#x1e6e;" horiz-adv-x="533" 
d="M235 555h-198v59h459v-59h-198v-555h-63v555zM114 -71h305v-57h-305v57z" />
    <glyph glyph-name="U" unicode="U" horiz-adv-x="599" 
d="M78 170v444h63v-430q0 -76 37 -105t122 -29q99 0 156 25v539h63v-510q0 -58 -60.5 -85.5t-165.5 -27.5q-215 0 -215 179z" />
    <glyph glyph-name="Uacute" unicode="&#xda;" horiz-adv-x="599" 
d="M259 705l83 142l81 -8l-119 -142zM78 170v444h63v-430q0 -76 37 -105t122 -29q99 0 156 25v539h63v-510q0 -58 -60.5 -85.5t-165.5 -27.5q-215 0 -215 179z" />
    <glyph glyph-name="Ubreve" unicode="&#x16c;" horiz-adv-x="599" 
d="M212 729q-31 28 -39 78l59 10q4 -33 18.5 -49.5t50.5 -16.5q35 0 49.5 16.5t18.5 49.5l59 -10q-8 -49 -39 -77.5t-88 -28.5q-58 0 -89 28zM78 170v444h63v-430q0 -76 37 -105t122 -29q99 0 156 25v539h63v-510q0 -58 -60.5 -85.5t-165.5 -27.5q-215 0 -215 179z" />
    <glyph glyph-name="uni01D3" unicode="&#x1d3;" horiz-adv-x="599" 
d="M168 839l39 8l89 -88h6l87 88l41 -8l-101 -133h-60zM78 170v444h63v-430q0 -76 37 -105t122 -29q99 0 156 25v539h63v-510q0 -58 -60.5 -85.5t-165.5 -27.5q-215 0 -215 179z" />
    <glyph glyph-name="Ucircumflex" unicode="&#xdb;" horiz-adv-x="599" 
d="M169 706l101 132h60l101 -132l-41 -9l-87 89h-6l-89 -89zM78 170v444h63v-430q0 -76 37 -105t122 -29q99 0 156 25v539h63v-510q0 -58 -60.5 -85.5t-165.5 -27.5q-215 0 -215 179z" />
    <glyph glyph-name="Udieresis" unicode="&#xdc;" horiz-adv-x="599" 
d="M194.5 711q-10.5 10 -10.5 27q0 18 10.5 27.5t28.5 9.5t28 -9.5t10 -27.5q0 -17 -10 -27t-28 -10t-28.5 10zM351.5 711q-10.5 10 -10.5 27q0 18 10.5 27.5t29.5 9.5q18 0 28 -9.5t10 -27.5q0 -17 -10 -27t-28 -10q-19 0 -29.5 10zM78 170v444h63v-430q0 -76 37 -105
t122 -29q99 0 156 25v539h63v-510q0 -58 -60.5 -85.5t-165.5 -27.5q-215 0 -215 179z" />
    <glyph glyph-name="uni01D7" unicode="&#x1d7;" horiz-adv-x="599" 
d="M270 854l74 128l78 -10l-107 -125zM192.5 713.5q-10.5 9.5 -10.5 26.5q0 18 10.5 27.5t28.5 9.5t28 -9.5t10 -27.5q0 -17 -10 -26.5t-28 -9.5t-28.5 9.5zM349.5 713.5q-10.5 9.5 -10.5 26.5q0 18 10.5 27.5t29.5 9.5q18 0 28 -9.5t10 -27.5q0 -17 -10 -26.5t-28 -9.5
q-19 0 -29.5 9.5zM78 170v444h63v-430q0 -76 37 -105t122 -29q99 0 156 25v539h63v-510q0 -58 -60.5 -85.5t-165.5 -27.5q-215 0 -215 179z" />
    <glyph glyph-name="uni01D9" unicode="&#x1d9;" horiz-adv-x="599" 
d="M169 964l39 8l84 -83h6l83 83l40 -8l-96 -126h-60zM190.5 711q-10.5 10 -10.5 27q0 18 10.5 27.5t28.5 9.5t28 -9.5t10 -27.5q0 -17 -10 -27t-28 -10t-28.5 10zM347.5 711q-10.5 10 -10.5 27q0 18 10.5 27.5t29.5 9.5q18 0 28 -9.5t10 -27.5q0 -17 -10 -27t-28 -10
q-19 0 -29.5 10zM78 170v444h63v-430q0 -76 37 -105t122 -29q99 0 156 25v539h63v-510q0 -58 -60.5 -85.5t-165.5 -27.5q-215 0 -215 179z" />
    <glyph glyph-name="uni01DB" unicode="&#x1db;" horiz-adv-x="599" 
d="M177 970l77 9l75 -127l-46 -8zM191.5 711q-10.5 10 -10.5 27q0 18 10 27.5t28 9.5q19 0 29 -9.5t10 -27.5q0 -17 -10 -27t-29 -10q-17 0 -27.5 10zM348.5 711q-10.5 10 -10.5 27q0 18 10.5 27.5t28.5 9.5t28 -9.5t10 -27.5q0 -17 -10 -27t-28 -10t-28.5 10zM78 170v444
h63v-430q0 -76 37 -105t122 -29q99 0 156 25v539h63v-510q0 -58 -60.5 -85.5t-165.5 -27.5q-215 0 -215 179z" />
    <glyph glyph-name="uni01D5" unicode="&#x1d5;" horiz-adv-x="599" 
d="M158 894h285v-53h-285v53zM192.5 713q-10.5 10 -10.5 27q0 18 10.5 27.5t28.5 9.5t28 -9.5t10 -27.5q0 -17 -10 -27t-28 -10t-28.5 10zM349.5 713q-10.5 10 -10.5 27q0 18 10.5 27.5t29.5 9.5q18 0 28 -9.5t10 -27.5q0 -17 -10 -27t-28 -10q-19 0 -29.5 10zM78 170v444
h63v-430q0 -76 37 -105t122 -29q99 0 156 25v539h63v-510q0 -58 -60.5 -85.5t-165.5 -27.5q-215 0 -215 179z" />
    <glyph glyph-name="uni1EE4" unicode="&#x1ee4;" horiz-adv-x="599" 
d="M78 170v444h63v-430q0 -76 37 -105t122 -29q99 0 156 25v539h63v-510q0 -58 -60.5 -85.5t-165.5 -27.5q-215 0 -215 179zM270.5 -151.5q-13.5 12.5 -13.5 34.5q0 24 13 36.5t37 12.5t37 -12.5t13 -36.5q0 -22 -13 -34.5t-37 -12.5q-23 0 -36.5 12.5z" />
    <glyph glyph-name="Ugrave" unicode="&#xd9;" horiz-adv-x="599" 
d="M175 840l81 8l83 -142l-45 -8zM78 170v444h63v-430q0 -76 37 -105t122 -29q99 0 156 25v539h63v-510q0 -58 -60.5 -85.5t-165.5 -27.5q-215 0 -215 179z" />
    <glyph glyph-name="uni1EE6" unicode="&#x1ee6;" horiz-adv-x="599" 
d="M269 755v28q51 0 70 6.5t19 29.5q0 19 -10.5 27t-35.5 8q-30 0 -54 -10l-13 37q35 15 76 15q44 0 65 -20.5t21 -54.5q0 -72 -92 -74v-41h-34zM78 170v444h63v-430q0 -76 37 -105t122 -29q99 0 156 25v539h63v-510q0 -58 -60.5 -85.5t-165.5 -27.5q-215 0 -215 179z" />
    <glyph glyph-name="Uhorn" unicode="&#x1af;" horiz-adv-x="722" 
d="M78 169v445h63v-432q0 -76 37 -105t122 -29q97 0 156 26v540h62v-107h11q63 27 96 70t34 117h63q0 -192 -203 -244v-348q0 -58 -60.5 -85t-165.5 -27q-215 0 -215 179z" />
    <glyph glyph-name="uni1EE8" unicode="&#x1ee8;" horiz-adv-x="722" 
d="M271 705l83 143l81 -9l-119 -141zM78 169v445h63v-432q0 -76 37 -105t122 -29q97 0 156 26v540h62v-107h11q63 27 96 70t34 117h63q0 -192 -203 -244v-348q0 -58 -60.5 -85t-165.5 -27q-215 0 -215 179z" />
    <glyph glyph-name="uni1EF0" unicode="&#x1ef0;" horiz-adv-x="722" 
d="M78 169v445h63v-432q0 -76 37 -105t122 -29q97 0 156 26v540h62v-107h11q63 27 96 70t34 117h63q0 -192 -203 -244v-348q0 -58 -60.5 -85t-165.5 -27q-215 0 -215 179zM269.5 -151.5q-13.5 12.5 -13.5 34.5q0 24 13 36.5t37 12.5t37 -12.5t13 -36.5q0 -22 -13 -34.5
t-37 -12.5q-23 0 -36.5 12.5z" />
    <glyph glyph-name="uni1EEA" unicode="&#x1eea;" horiz-adv-x="722" 
d="M179 840l81 9l83 -143l-45 -7zM78 169v445h63v-432q0 -76 37 -105t122 -29q97 0 156 26v540h62v-107h11q63 27 96 70t34 117h63q0 -192 -203 -244v-348q0 -58 -60.5 -85t-165.5 -27q-215 0 -215 179z" />
    <glyph glyph-name="uni1EEC" unicode="&#x1eec;" horiz-adv-x="722" 
d="M269 755v28q51 0 70 6.5t19 29.5q0 19 -10.5 27t-35.5 8q-30 0 -54 -10l-13 37q35 15 76 15q44 0 65 -20.5t21 -54.5q0 -72 -92 -74v-41h-34zM78 169v445h63v-432q0 -76 37 -105t122 -29q97 0 156 26v540h62v-107h11q63 27 96 70t34 117h63q0 -192 -203 -244v-348
q0 -58 -60.5 -85t-165.5 -27q-215 0 -215 179z" />
    <glyph glyph-name="uni1EEE" unicode="&#x1eee;" horiz-adv-x="722" 
d="M168 710q6 89 78 89q15 0 28.5 -6.5t34.5 -19.5q18 -12 28 -17t21 -5q37 0 44 50l41 -13q-6 -90 -78 -90q-17 0 -31 7t-34 20q-14 11 -25 16.5t-22 5.5q-37 0 -44 -50zM78 169v445h63v-432q0 -76 37 -105t122 -29q97 0 156 26v540h62v-107h11q63 27 96 70t34 117h63
q0 -192 -203 -244v-348q0 -58 -60.5 -85t-165.5 -27q-215 0 -215 179z" />
    <glyph glyph-name="Uhungarumlaut" unicode="&#x170;" horiz-adv-x="599" 
d="M184 706q18 33 26.5 63.5t8.5 67.5h-54v43q18 7 42 7q60 0 60 -66t-46 -123zM349 706q18 33 26.5 63.5t8.5 67.5h-54v43q18 7 43 7q30 0 44.5 -16.5t14.5 -49.5q0 -66 -46 -123zM78 170v444h63v-430q0 -76 37 -105t122 -29q99 0 156 25v539h63v-510q0 -58 -60.5 -85.5
t-165.5 -27.5q-215 0 -215 179z" />
    <glyph glyph-name="Umacron" unicode="&#x16a;" horiz-adv-x="599" 
d="M156 759h285v-53h-285v53zM78 170v444h63v-430q0 -76 37 -105t122 -29q99 0 156 25v539h63v-510q0 -58 -60.5 -85.5t-165.5 -27.5q-215 0 -215 179z" />
    <glyph glyph-name="Uogonek" unicode="&#x172;" horiz-adv-x="599" 
d="M264.5 -144q-24.5 21 -24.5 57q0 26 11 44.5t32 33.5q-205 5 -205 179v444h63v-430q0 -76 37 -105t122 -29q99 0 156 25v539h63v-510q0 -51 -46.5 -78t-129.5 -33q-27 -18 -37.5 -35t-10.5 -41q0 -18 6 -30q16 -4 39 -4t41 5l10 -42q-25 -11 -60 -11q-42 0 -66.5 21z" />
    <glyph glyph-name="Uring" unicode="&#x16e;" horiz-adv-x="599" 
d="M216 671q-27 22 -27 64q0 40 31.5 67.5t85.5 27.5q49 0 76 -23t27 -66q0 -39 -32 -65.5t-86 -26.5q-48 0 -75 22zM357 696q7 25 7 43q0 24 -15.5 38t-44.5 14q-38 0 -63 -8q-7 -20 -7 -46q0 -23 15.5 -35.5t44.5 -12.5q42 0 63 7zM78 170v444h63v-430q0 -76 37 -105
t122 -29q99 0 156 25v539h63v-510q0 -58 -60.5 -85.5t-165.5 -27.5q-215 0 -215 179z" />
    <glyph glyph-name="Utilde" unicode="&#x168;" horiz-adv-x="599" 
d="M165 712q6 90 78 90q15 0 28.5 -6.5t34.5 -19.5q18 -12 28 -17t21 -5q37 0 44 50l41 -13q-6 -90 -78 -90q-17 0 -31 7t-34 20q-15 11 -25.5 16t-21.5 5q-21 0 -31 -13t-13 -37zM78 170v444h63v-430q0 -76 37 -105t122 -29q99 0 156 25v539h63v-510q0 -58 -60.5 -85.5
t-165.5 -27.5q-215 0 -215 179z" />
    <glyph glyph-name="V" unicode="V" horiz-adv-x="582" 
d="M134 289.5q-54 165.5 -94 325.5l67 5q33 -142 84 -303t92 -257h15q41 96 92 257t84 303l67 -5q-38 -157 -92.5 -323.5t-111.5 -291.5h-93q-56 124 -110 289.5z" />
    <glyph glyph-name="W" unicode="W" horiz-adv-x="826" 
d="M43 609l68 8q44 -240 125 -542h7q73 184 147 423q-15 60 -22 105l63 7q29 -139 66.5 -267.5t83.5 -267.5h9q77 288 125 542l68 -8q-69 -311 -158 -609h-79q-76 214 -124 385h-11q-70 -216 -139 -385h-72q-90 303 -157 609z" />
    <glyph glyph-name="Wacute" unicode="&#x1e82;" horiz-adv-x="826" 
d="M371 706l83 142l81 -8l-119 -142zM43 609l68 8q44 -240 125 -542h7q73 184 147 423q-15 60 -22 105l63 7q29 -139 66.5 -267.5t83.5 -267.5h9q77 288 125 542l68 -8q-69 -311 -158 -609h-79q-76 214 -124 385h-11q-70 -216 -139 -385h-72q-90 303 -157 609z" />
    <glyph glyph-name="Wcircumflex" unicode="&#x174;" horiz-adv-x="826" 
d="M282 705l101 133h60l101 -133l-41 -8l-87 88h-6l-89 -88zM43 609l68 8q44 -240 125 -542h7q73 184 147 423q-15 60 -22 105l63 7q29 -139 66.5 -267.5t83.5 -267.5h9q77 288 125 542l68 -8q-69 -311 -158 -609h-79q-76 214 -124 385h-11q-70 -216 -139 -385h-72
q-90 303 -157 609z" />
    <glyph glyph-name="Wdieresis" unicode="&#x1e84;" horiz-adv-x="826" 
d="M306.5 711q-10.5 10 -10.5 27q0 18 10.5 27.5t28.5 9.5t28 -9.5t10 -27.5q0 -17 -10 -27t-28 -10t-28.5 10zM463.5 711q-10.5 10 -10.5 27q0 18 10.5 27.5t29.5 9.5q18 0 28 -9.5t10 -27.5q0 -17 -10 -27t-28 -10q-19 0 -29.5 10zM43 609l68 8q44 -240 125 -542h7
q73 184 147 423q-15 60 -22 105l63 7q29 -139 66.5 -267.5t83.5 -267.5h9q77 288 125 542l68 -8q-69 -311 -158 -609h-79q-76 214 -124 385h-11q-70 -216 -139 -385h-72q-90 303 -157 609z" />
    <glyph glyph-name="Wgrave" unicode="&#x1e80;" horiz-adv-x="826" 
d="M292 840l81 8l83 -142l-45 -8zM43 609l68 8q44 -240 125 -542h7q73 184 147 423q-15 60 -22 105l63 7q29 -139 66.5 -267.5t83.5 -267.5h9q77 288 125 542l68 -8q-69 -311 -158 -609h-79q-76 214 -124 385h-11q-70 -216 -139 -385h-72q-90 303 -157 609z" />
    <glyph glyph-name="X" unicode="X" horiz-adv-x="613" 
d="M47 10q78 140 194 295q-44 62 -95 144t-91 156l69 15q72 -142 168 -283h27q109 152 176 283l64 -14q-76 -143 -189 -296q48 -67 99.5 -148.5t88.5 -151.5l-66 -17q-63 124 -174 285h-26q-61 -84 -103 -149.5t-78 -135.5z" />
    <glyph glyph-name="Y" unicode="Y" horiz-adv-x="601" 
d="M269 221h-20q-65 84 -118 175.5t-101 205.5l63 17q39 -97 89 -187.5t101 -160.5h35q51 71 100.5 161t88.5 187l63 -17q-48 -114 -100.5 -205.5t-118.5 -175.5h-19v-221h-63v221z" />
    <glyph glyph-name="Yacute" unicode="&#xdd;" horiz-adv-x="601" 
d="M265 705l83 143l81 -9l-119 -141zM269 221h-20q-65 84 -118 175.5t-101 205.5l63 17q39 -97 89 -187.5t101 -160.5h35q51 71 100.5 161t88.5 187l63 -17q-48 -114 -100.5 -205.5t-118.5 -175.5h-19v-221h-63v221z" />
    <glyph glyph-name="Ycircumflex" unicode="&#x176;" horiz-adv-x="601" 
d="M170 706l101 132h60l101 -132l-41 -9l-87 89h-6l-89 -89zM269 221h-20q-65 84 -118 175.5t-101 205.5l63 17q39 -97 89 -187.5t101 -160.5h35q51 71 100.5 161t88.5 187l63 -17q-48 -114 -100.5 -205.5t-118.5 -175.5h-19v-221h-63v221z" />
    <glyph glyph-name="Ydieresis" unicode="&#x178;" horiz-adv-x="601" 
d="M193.5 711q-10.5 10 -10.5 27q0 18 10.5 27.5t28.5 9.5t28 -9.5t10 -27.5q0 -17 -10 -27t-28 -10t-28.5 10zM350.5 711q-10.5 10 -10.5 27q0 18 10.5 27.5t29.5 9.5q18 0 28 -9.5t10 -27.5q0 -17 -10 -27t-28 -10q-19 0 -29.5 10zM269 221h-20q-65 84 -118 175.5
t-101 205.5l63 17q39 -97 89 -187.5t101 -160.5h35q51 71 100.5 161t88.5 187l63 -17q-48 -114 -100.5 -205.5t-118.5 -175.5h-19v-221h-63v221z" />
    <glyph glyph-name="uni1E8E" unicode="&#x1e8e;" horiz-adv-x="601" 
d="M264.5 713.5q-13.5 12.5 -13.5 34.5q0 24 13 36.5t37 12.5t37 -12.5t13 -36.5q0 -22 -13 -34.5t-37 -12.5q-23 0 -36.5 12.5zM269 221h-20q-65 84 -118 175.5t-101 205.5l63 17q39 -97 89 -187.5t101 -160.5h35q51 71 100.5 161t88.5 187l63 -17q-48 -114 -100.5 -205.5
t-118.5 -175.5h-19v-221h-63v221z" />
    <glyph glyph-name="uni1EF4" unicode="&#x1ef4;" horiz-adv-x="601" 
d="M269 221h-20q-65 84 -118 175.5t-101 205.5l63 17q39 -97 89 -187.5t101 -160.5h35q51 71 100.5 161t88.5 187l63 -17q-48 -114 -100.5 -205.5t-118.5 -175.5h-19v-221h-63v221zM263.5 -151.5q-13.5 12.5 -13.5 34.5q0 24 13 36.5t37 12.5t37 -12.5t13 -36.5
q0 -22 -13 -34.5t-37 -12.5q-23 0 -36.5 12.5z" />
    <glyph glyph-name="Ygrave" unicode="&#x1ef2;" horiz-adv-x="601" 
d="M174 840l81 9l83 -143l-45 -7zM269 221h-20q-65 84 -118 175.5t-101 205.5l63 17q39 -97 89 -187.5t101 -160.5h35q51 71 100.5 161t88.5 187l63 -17q-48 -114 -100.5 -205.5t-118.5 -175.5h-19v-221h-63v221z" />
    <glyph glyph-name="uni1EF6" unicode="&#x1ef6;" horiz-adv-x="601" 
d="M271 755v28q51 0 70 6.5t19 29.5q0 19 -10.5 27t-35.5 8q-30 0 -54 -10l-13 37q35 15 76 15q44 0 65 -20.5t21 -54.5q0 -72 -92 -74v-41h-34zM269 221h-20q-65 84 -118 175.5t-101 205.5l63 17q39 -97 89 -187.5t101 -160.5h35q51 71 100.5 161t88.5 187l63 -17
q-48 -114 -100.5 -205.5t-118.5 -175.5h-19v-221h-63v221z" />
    <glyph glyph-name="uni1EF8" unicode="&#x1ef8;" horiz-adv-x="601" 
d="M163 710q6 89 78 89q15 0 28.5 -6.5t34.5 -19.5q18 -12 28 -17t21 -5q37 0 44 50l41 -13q-6 -90 -78 -90q-17 0 -31 7t-34 20q-14 11 -25 16.5t-22 5.5q-37 0 -44 -50zM269 221h-20q-65 84 -118 175.5t-101 205.5l63 17q39 -97 89 -187.5t101 -160.5h35q51 71 100.5 161
t88.5 187l63 -17q-48 -114 -100.5 -205.5t-118.5 -175.5h-19v-221h-63v221z" />
    <glyph glyph-name="Z" unicode="Z" horiz-adv-x="552" 
d="M56 68l356 478v10h-277v-68h-50q-16 44 -16 87v39h418v-67l-357 -478v-12h302v71h51q15 -47 15 -90v-38h-442v68z" />
    <glyph glyph-name="Zacute" unicode="&#x179;" horiz-adv-x="551" 
d="M233 706l83 142l81 -8l-119 -142zM55 68l356 478v10h-277v-68h-50q-16 44 -16 87v39h418v-67l-357 -478v-12h302v71h51q15 -47 15 -90v-38h-442v68z" />
    <glyph glyph-name="Zcaron" unicode="&#x17d;" horiz-adv-x="551" 
d="M147 839l39 8l89 -88h6l87 88l41 -8l-101 -133h-60zM55 68l356 478v10h-277v-68h-50q-16 44 -16 87v39h418v-67l-357 -478v-12h302v71h51q15 -47 15 -90v-38h-442v68z" />
    <glyph glyph-name="Zdotaccent" unicode="&#x17b;" horiz-adv-x="551" 
d="M245.5 713.5q-13.5 12.5 -13.5 34.5q0 24 13 36.5t37 12.5t37 -12.5t13 -36.5q0 -22 -13 -34.5t-37 -12.5q-23 0 -36.5 12.5zM55 68l356 478v10h-277v-68h-50q-16 44 -16 87v39h418v-67l-357 -478v-12h302v71h51q15 -47 15 -90v-38h-442v68z" />
    <glyph glyph-name="uni1E92" unicode="&#x1e92;" horiz-adv-x="551" 
d="M55 68l356 478v10h-277v-68h-50q-16 44 -16 87v39h418v-67l-357 -478v-12h302v71h51q15 -47 15 -90v-38h-442v68zM246.5 -146.5q-13.5 12.5 -13.5 34.5q0 24 13 36.5t37 12.5t37 -12.5t13 -36.5q0 -22 -13 -34.5t-37 -12.5q-23 0 -36.5 12.5z" />
    <glyph glyph-name="a" unicode="a" horiz-adv-x="465" 
d="M79.5 22.5q-34.5 31.5 -34.5 85.5q0 75 55 112.5t154 37.5q33 0 77 -4v68q0 60 -24 82.5t-84 22.5q-42 0 -77 -5l-10 -72h-45q-11 31 -11 61v19q32 18 78.5 32t88.5 14q69 0 107 -37.5t38 -107.5v-331h-52l-4 66h-8q-26 -35 -64.5 -55t-84.5 -20q-65 0 -99.5 31.5z
M271 61q38 21 63 58v89q-45 8 -100 8q-66 0 -103 -11q-12 -23 -17.5 -43.5t-5.5 -44.5q0 -43 20.5 -60t60.5 -17q44 0 82 21z" />
    <glyph glyph-name="aacute" unicode="&#xe1;" horiz-adv-x="465" 
d="M215 562l83 142l81 -8l-119 -142zM79.5 22.5q-34.5 31.5 -34.5 85.5q0 75 55 112.5t154 37.5q33 0 77 -4v68q0 60 -24 82.5t-84 22.5q-42 0 -77 -5l-10 -72h-45q-11 31 -11 61v19q32 18 78.5 32t88.5 14q69 0 107 -37.5t38 -107.5v-331h-52l-4 66h-8q-26 -35 -64.5 -55
t-84.5 -20q-65 0 -99.5 31.5zM271 61q38 21 63 58v89q-45 8 -100 8q-66 0 -103 -11q-12 -23 -17.5 -43.5t-5.5 -44.5q0 -43 20.5 -60t60.5 -17q44 0 82 21z" />
    <glyph glyph-name="abreve" unicode="&#x103;" horiz-adv-x="465" 
d="M162 580q-31 28 -39 78l59 9q4 -33 18.5 -49.5t50.5 -16.5q35 0 49.5 16.5t18.5 49.5l59 -9q-8 -49 -39 -77.5t-88 -28.5q-58 0 -89 28zM79.5 22.5q-34.5 31.5 -34.5 85.5q0 75 55 112.5t154 37.5q33 0 77 -4v68q0 60 -24 82.5t-84 22.5q-42 0 -77 -5l-10 -72h-45
q-11 31 -11 61v19q32 18 78.5 32t88.5 14q69 0 107 -37.5t38 -107.5v-331h-52l-4 66h-8q-26 -35 -64.5 -55t-84.5 -20q-65 0 -99.5 31.5zM271 61q38 21 63 58v89q-45 8 -100 8q-66 0 -103 -11q-12 -23 -17.5 -43.5t-5.5 -44.5q0 -43 20.5 -60t60.5 -17q44 0 82 21z" />
    <glyph glyph-name="uni1EAF" unicode="&#x1eaf;" horiz-adv-x="465" 
d="M219 710l61 106l58 -11l-81 -104zM154 580q-31 28 -39 78l59 9q4 -33 18.5 -49.5t50.5 -16.5q35 0 49.5 16.5t18.5 49.5l59 -9q-8 -49 -39 -77.5t-88 -28.5q-58 0 -89 28zM79.5 22.5q-34.5 31.5 -34.5 85.5q0 75 55 112.5t154 37.5q33 0 77 -4v68q0 60 -24 82.5t-84 22.5
q-42 0 -77 -5l-10 -72h-45q-11 31 -11 61v19q32 18 78.5 32t88.5 14q69 0 107 -37.5t38 -107.5v-331h-52l-4 66h-8q-26 -35 -64.5 -55t-84.5 -20q-65 0 -99.5 31.5zM271 61q38 21 63 58v89q-45 8 -100 8q-66 0 -103 -11q-12 -23 -17.5 -43.5t-5.5 -44.5q0 -43 20.5 -60
t60.5 -17q44 0 82 21z" />
    <glyph glyph-name="uni1EB7" unicode="&#x1eb7;" horiz-adv-x="465" 
d="M161 580q-31 28 -39 78l59 9q4 -33 18.5 -49.5t50.5 -16.5q35 0 49.5 16.5t18.5 49.5l59 -9q-8 -49 -39 -77.5t-88 -28.5q-58 0 -89 28zM79.5 22.5q-34.5 31.5 -34.5 85.5q0 75 55 112.5t154 37.5q33 0 77 -4v68q0 60 -24 82.5t-84 22.5q-42 0 -77 -5l-10 -72h-45
q-11 31 -11 61v19q32 18 78.5 32t88.5 14q69 0 107 -37.5t38 -107.5v-331h-52l-4 66h-8q-26 -35 -64.5 -55t-84.5 -20q-65 0 -99.5 31.5zM271 61q38 21 63 58v89q-45 8 -100 8q-66 0 -103 -11q-12 -23 -17.5 -43.5t-5.5 -44.5q0 -43 20.5 -60t60.5 -17q44 0 82 21z
M204.5 -151.5q-13.5 12.5 -13.5 34.5q0 24 13 36.5t37 12.5t37 -12.5t13 -36.5q0 -22 -13 -34.5t-37 -12.5q-23 0 -36.5 12.5z" />
    <glyph glyph-name="uni1EB1" unicode="&#x1eb1;" horiz-adv-x="465" 
d="M150 805l59 11l60 -106l-38 -9zM156 580q-31 28 -39 78l59 9q4 -33 18.5 -49.5t50.5 -16.5q35 0 49.5 16.5t18.5 49.5l59 -9q-8 -49 -39 -77.5t-88 -28.5q-58 0 -89 28zM79.5 22.5q-34.5 31.5 -34.5 85.5q0 75 55 112.5t154 37.5q33 0 77 -4v68q0 60 -24 82.5t-84 22.5
q-42 0 -77 -5l-10 -72h-45q-11 31 -11 61v19q32 18 78.5 32t88.5 14q69 0 107 -37.5t38 -107.5v-331h-52l-4 66h-8q-26 -35 -64.5 -55t-84.5 -20q-65 0 -99.5 31.5zM271 61q38 21 63 58v89q-45 8 -100 8q-66 0 -103 -11q-12 -23 -17.5 -43.5t-5.5 -44.5q0 -43 20.5 -60
t60.5 -17q44 0 82 21z" />
    <glyph glyph-name="uni1EB3" unicode="&#x1eb3;" horiz-adv-x="465" 
d="M219 728v24q34 0 47 5.5t13 18.5q0 11 -6.5 16t-22.5 5q-22 0 -40 -7l-9 31q26 11 55 11q63 0 63 -56q0 -51 -62 -53v-34h-29zM153 580q-31 28 -39 78l59 9q4 -33 18.5 -49.5t50.5 -16.5q35 0 49.5 16.5t18.5 49.5l59 -9q-8 -49 -39 -77.5t-88 -28.5q-58 0 -89 28z
M79.5 22.5q-34.5 31.5 -34.5 85.5q0 75 55 112.5t154 37.5q33 0 77 -4v68q0 60 -24 82.5t-84 22.5q-42 0 -77 -5l-10 -72h-45q-11 31 -11 61v19q32 18 78.5 32t88.5 14q69 0 107 -37.5t38 -107.5v-331h-52l-4 66h-8q-26 -35 -64.5 -55t-84.5 -20q-65 0 -99.5 31.5zM271 61
q38 21 63 58v89q-45 8 -100 8q-66 0 -103 -11q-12 -23 -17.5 -43.5t-5.5 -44.5q0 -43 20.5 -60t60.5 -17q44 0 82 21z" />
    <glyph glyph-name="uni1EB5" unicode="&#x1eb5;" horiz-adv-x="465" 
d="M129 730q7 70 66 70q26 0 58 -20q24 -13 35 -13q32 0 40 37l33 -11q-7 -70 -66 -70q-14 0 -25.5 4.5t-26.5 13.5q-12 8 -21 11.5t-19 3.5q-34 0 -40 -36zM154 580q-31 28 -39 78l59 9q4 -33 18.5 -49.5t50.5 -16.5q35 0 49.5 16.5t18.5 49.5l59 -9q-8 -49 -39 -77.5
t-88 -28.5q-58 0 -89 28zM79.5 22.5q-34.5 31.5 -34.5 85.5q0 75 55 112.5t154 37.5q33 0 77 -4v68q0 60 -24 82.5t-84 22.5q-42 0 -77 -5l-10 -72h-45q-11 31 -11 61v19q32 18 78.5 32t88.5 14q69 0 107 -37.5t38 -107.5v-331h-52l-4 66h-8q-26 -35 -64.5 -55t-84.5 -20
q-65 0 -99.5 31.5zM271 61q38 21 63 58v89q-45 8 -100 8q-66 0 -103 -11q-12 -23 -17.5 -43.5t-5.5 -44.5q0 -43 20.5 -60t60.5 -17q44 0 82 21z" />
    <glyph glyph-name="uni01CE" unicode="&#x1ce;" horiz-adv-x="465" 
d="M110 692l39 9l89 -89h6l87 89l41 -9l-101 -132h-60zM79.5 22.5q-34.5 31.5 -34.5 85.5q0 75 55 112.5t154 37.5q33 0 77 -4v68q0 60 -24 82.5t-84 22.5q-42 0 -77 -5l-10 -72h-45q-11 31 -11 61v19q32 18 78.5 32t88.5 14q69 0 107 -37.5t38 -107.5v-331h-52l-4 66h-8
q-26 -35 -64.5 -55t-84.5 -20q-65 0 -99.5 31.5zM271 61q38 21 63 58v89q-45 8 -100 8q-66 0 -103 -11q-12 -23 -17.5 -43.5t-5.5 -44.5q0 -43 20.5 -60t60.5 -17q44 0 82 21z" />
    <glyph glyph-name="acircumflex" unicode="&#xe2;" horiz-adv-x="465" 
d="M107 561l101 133h60l101 -133l-41 -8l-87 88h-6l-89 -88zM79.5 22.5q-34.5 31.5 -34.5 85.5q0 75 55 112.5t154 37.5q33 0 77 -4v68q0 60 -24 82.5t-84 22.5q-42 0 -77 -5l-10 -72h-45q-11 31 -11 61v19q32 18 78.5 32t88.5 14q69 0 107 -37.5t38 -107.5v-331h-52l-4 66
h-8q-26 -35 -64.5 -55t-84.5 -20q-65 0 -99.5 31.5zM271 61q38 21 63 58v89q-45 8 -100 8q-66 0 -103 -11q-12 -23 -17.5 -43.5t-5.5 -44.5q0 -43 20.5 -60t60.5 -17q44 0 82 21z" />
    <glyph glyph-name="uni1EA5" unicode="&#x1ea5;" horiz-adv-x="486" 
d="M366 649l61 105l58 -10l-81 -104zM110 559l101 133h60l101 -133l-41 -8l-87 88h-6l-89 -88zM79.5 22.5q-34.5 31.5 -34.5 85.5q0 75 55 112.5t154 37.5q33 0 77 -4v68q0 60 -24 82.5t-84 22.5q-42 0 -77 -5l-10 -66h-45q-11 31 -11 61v13q32 18 78.5 32t88.5 14
q69 0 107 -37.5t38 -107.5v-331h-52l-4 66h-8q-26 -35 -64.5 -55t-84.5 -20q-65 0 -99.5 31.5zM271 61q38 21 63 58v89q-45 8 -100 8q-66 0 -103 -11q-12 -23 -17.5 -43.5t-5.5 -44.5q0 -43 20.5 -60t60.5 -17q44 0 82 21z" />
    <glyph glyph-name="uni1EAD" unicode="&#x1ead;" horiz-adv-x="465" 
d="M106 559l101 132h60l101 -132l-41 -8l-87 88h-6l-89 -88zM79.5 22.5q-34.5 31.5 -34.5 85.5q0 75 55 112.5t154 37.5q33 0 77 -4v68q0 60 -24 82.5t-84 22.5q-42 0 -77 -5l-10 -72h-45q-11 31 -11 61v19q32 18 78.5 32t88.5 14q69 0 107 -37.5t38 -107.5v-331h-52l-4 66
h-8q-26 -35 -64.5 -55t-84.5 -20q-65 0 -99.5 31.5zM271 61q38 21 63 58v89q-45 8 -100 8q-66 0 -103 -11q-12 -23 -17.5 -43.5t-5.5 -44.5q0 -43 20.5 -60t60.5 -17q44 0 82 21zM200.5 -151.5q-13.5 12.5 -13.5 34.5q0 24 13 36.5t37 12.5t37 -12.5t13 -36.5
q0 -22 -13 -34.5t-37 -12.5q-23 0 -36.5 12.5z" />
    <glyph glyph-name="uni1EA7" unicode="&#x1ea7;" horiz-adv-x="470" 
d="M1 744l59 11l60 -106l-38 -8zM115 560l101 132h59l102 -132l-39 -9l-90 89h-5l-88 -89zM83.5 22.5q-34.5 31.5 -34.5 85.5q0 75 55 112.5t154 37.5q33 0 77 -4v68q0 60 -24 82.5t-84 22.5q-42 0 -77 -5l-10 -72h-45q-11 31 -11 61v19q32 18 78.5 32t88.5 14
q69 0 107 -37.5t38 -107.5v-331h-52l-4 66h-8q-26 -35 -64.5 -55t-84.5 -20q-65 0 -99.5 31.5zM275 61q38 21 63 58v89q-45 8 -100 8q-66 0 -103 -11q-12 -23 -17.5 -43.5t-5.5 -44.5q0 -43 20.5 -60t60.5 -17q44 0 82 21z" />
    <glyph glyph-name="uni1EA9" unicode="&#x1ea9;" horiz-adv-x="492" 
d="M358 697v25q34 0 47 5t13 18q0 12 -6.5 17t-22.5 5q-19 0 -40 -8l-9 32q30 11 55 11q63 0 63 -56q0 -51 -62 -53v-35h-29zM108 559l101 132h60l101 -132l-41 -9l-87 89h-6l-89 -89zM79.5 22.5q-34.5 31.5 -34.5 85.5q0 75 55 112.5t154 37.5q33 0 77 -4v68q0 60 -24 82.5
t-84 22.5q-42 0 -77 -5l-10 -72h-45q-11 31 -11 61v19q32 18 78.5 32t88.5 14q69 0 107 -37.5t38 -107.5v-331h-52l-4 66h-8q-26 -35 -64.5 -55t-84.5 -20q-65 0 -99.5 31.5zM271 61q38 21 63 58v89q-45 8 -100 8q-66 0 -103 -11q-12 -23 -17.5 -43.5t-5.5 -44.5
q0 -43 20.5 -60t60.5 -17q44 0 82 21z" />
    <glyph glyph-name="uni1EAB" unicode="&#x1eab;" horiz-adv-x="465" 
d="M122 753q7 70 66 70q26 0 58 -20q24 -13 35 -13q32 0 40 37l33 -11q-7 -69 -66 -69q-14 0 -25.5 4.5t-26.5 13.5q-12 8 -21 11.5t-19 3.5q-34 0 -40 -37zM108 559l101 132h60l101 -132l-41 -8l-87 88h-6l-89 -88zM79.5 22.5q-34.5 31.5 -34.5 85.5q0 75 55 112.5
t154 37.5q33 0 77 -4v68q0 60 -24 82.5t-84 22.5q-42 0 -77 -5l-10 -72h-45q-11 31 -11 61v19q32 18 78.5 32t88.5 14q69 0 107 -37.5t38 -107.5v-331h-52l-4 66h-8q-26 -35 -64.5 -55t-84.5 -20q-65 0 -99.5 31.5zM271 61q38 21 63 58v89q-45 8 -100 8q-66 0 -103 -11
q-12 -23 -17.5 -43.5t-5.5 -44.5q0 -43 20.5 -60t60.5 -17q44 0 82 21z" />
    <glyph glyph-name="adieresis" unicode="&#xe4;" horiz-adv-x="465" 
d="M134.5 564.5q-10.5 9.5 -10.5 26.5q0 18 10.5 27.5t28.5 9.5t28 -9.5t10 -27.5q0 -17 -10 -26.5t-28 -9.5t-28.5 9.5zM291.5 564.5q-10.5 9.5 -10.5 26.5q0 18 10.5 27.5t29.5 9.5q18 0 28 -9.5t10 -27.5q0 -17 -10 -26.5t-28 -9.5q-19 0 -29.5 9.5zM79.5 22.5
q-34.5 31.5 -34.5 85.5q0 75 55 112.5t154 37.5q33 0 77 -4v68q0 60 -24 82.5t-84 22.5q-42 0 -77 -5l-10 -72h-45q-11 31 -11 61v19q32 18 78.5 32t88.5 14q69 0 107 -37.5t38 -107.5v-331h-52l-4 66h-8q-26 -35 -64.5 -55t-84.5 -20q-65 0 -99.5 31.5zM271 61q38 21 63 58
v89q-45 8 -100 8q-66 0 -103 -11q-12 -23 -17.5 -43.5t-5.5 -44.5q0 -43 20.5 -60t60.5 -17q44 0 82 21z" />
    <glyph glyph-name="uni1EA1" unicode="&#x1ea1;" horiz-adv-x="465" 
d="M79.5 22.5q-34.5 31.5 -34.5 85.5q0 75 55 112.5t154 37.5q33 0 77 -4v68q0 60 -24 82.5t-84 22.5q-42 0 -77 -5l-10 -72h-45q-11 31 -11 61v19q32 18 78.5 32t88.5 14q69 0 107 -37.5t38 -107.5v-331h-52l-4 66h-8q-26 -35 -64.5 -55t-84.5 -20q-65 0 -99.5 31.5z
M271 61q38 21 63 58v89q-45 8 -100 8q-66 0 -103 -11q-12 -23 -17.5 -43.5t-5.5 -44.5q0 -43 20.5 -60t60.5 -17q44 0 82 21zM196.5 -146.5q-13.5 12.5 -13.5 34.5q0 24 13 36.5t37 12.5t37 -12.5t13 -36.5q0 -22 -13 -34.5t-37 -12.5q-23 0 -36.5 12.5z" />
    <glyph glyph-name="agrave" unicode="&#xe0;" horiz-adv-x="465" 
d="M130 696l81 8l83 -142l-45 -8zM79.5 22.5q-34.5 31.5 -34.5 85.5q0 75 55 112.5t154 37.5q33 0 77 -4v68q0 60 -24 82.5t-84 22.5q-42 0 -77 -5l-10 -72h-45q-11 31 -11 61v19q32 18 78.5 32t88.5 14q69 0 107 -37.5t38 -107.5v-331h-52l-4 66h-8q-26 -35 -64.5 -55
t-84.5 -20q-65 0 -99.5 31.5zM271 61q38 21 63 58v89q-45 8 -100 8q-66 0 -103 -11q-12 -23 -17.5 -43.5t-5.5 -44.5q0 -43 20.5 -60t60.5 -17q44 0 82 21z" />
    <glyph glyph-name="uni1EA3" unicode="&#x1ea3;" horiz-adv-x="465" 
d="M213 609v28q51 0 70 6.5t19 29.5q0 18 -10.5 26t-35.5 8q-29 0 -54 -9l-13 37q35 15 76 15q44 0 65 -20.5t21 -55.5q0 -71 -92 -74v-40h-34zM79.5 22.5q-34.5 31.5 -34.5 85.5q0 75 55 112.5t154 37.5q33 0 77 -4v68q0 60 -24 82.5t-84 22.5q-42 0 -77 -5l-10 -72h-45
q-11 31 -11 61v19q32 18 78.5 32t88.5 14q69 0 107 -37.5t38 -107.5v-331h-52l-4 66h-8q-26 -35 -64.5 -55t-84.5 -20q-65 0 -99.5 31.5zM271 61q38 21 63 58v89q-45 8 -100 8q-66 0 -103 -11q-12 -23 -17.5 -43.5t-5.5 -44.5q0 -43 20.5 -60t60.5 -17q44 0 82 21z" />
    <glyph glyph-name="amacron" unicode="&#x101;" horiz-adv-x="465" 
d="M119 613h248v-53h-248v53zM79.5 22.5q-34.5 31.5 -34.5 85.5q0 75 55 112.5t154 37.5q33 0 77 -4v68q0 60 -24 82.5t-84 22.5q-42 0 -77 -5l-10 -72h-45q-11 31 -11 61v19q32 18 78.5 32t88.5 14q69 0 107 -37.5t38 -107.5v-331h-52l-4 66h-8q-26 -35 -64.5 -55
t-84.5 -20q-65 0 -99.5 31.5zM271 61q38 21 63 58v89q-45 8 -100 8q-66 0 -103 -11q-12 -23 -17.5 -43.5t-5.5 -44.5q0 -43 20.5 -60t60.5 -17q44 0 82 21z" />
    <glyph glyph-name="aogonek" unicode="&#x105;" horiz-adv-x="486" 
d="M413 -155q-25 -11 -60 -11q-43 0 -67 20.5t-24 57.5q0 33 20 56.5t57 40.5l-3 57h-8q-26 -35 -64.5 -55t-84.5 -20q-65 0 -99.5 31.5t-34.5 85.5q0 75 55 112.5t154 37.5q33 0 77 -4v68q0 60 -24 82.5t-84 22.5q-42 0 -77 -5l-10 -72h-45q-11 31 -11 61v19q32 18 78.5 32
t88.5 14q69 0 107 -37.5t38 -107.5v-331h-13q-35 -20 -48.5 -39t-13.5 -46q0 -18 6 -30q16 -4 39 -4q22 0 41 5zM334 208q-45 8 -100 8q-66 0 -103 -11q-12 -23 -17.5 -43.5t-5.5 -44.5q0 -43 20.5 -60t60.5 -17q44 0 82 21t63 58v89z" />
    <glyph glyph-name="aring" unicode="&#xe5;" horiz-adv-x="465" 
d="M166 577q-27 22 -27 64q0 39 31.5 66.5t85.5 27.5q49 0 76 -23t27 -66q0 -38 -32 -64.5t-86 -26.5q-48 0 -75 22zM307 601q7 26 7 43q0 24 -15.5 38t-44.5 14q-41 0 -63 -7q-7 -21 -7 -47q0 -23 15.5 -35.5t44.5 -12.5q42 0 63 7zM79.5 22.5q-34.5 31.5 -34.5 85.5
q0 75 55 112.5t154 37.5q33 0 77 -4v68q0 60 -24 82.5t-84 22.5q-42 0 -77 -5l-10 -72h-45q-11 31 -11 61v19q32 18 78.5 32t88.5 14q69 0 107 -37.5t38 -107.5v-331h-52l-4 66h-8q-26 -35 -64.5 -55t-84.5 -20q-65 0 -99.5 31.5zM271 61q38 21 63 58v89q-45 8 -100 8
q-66 0 -103 -11q-12 -23 -17.5 -43.5t-5.5 -44.5q0 -43 20.5 -60t60.5 -17q44 0 82 21z" />
    <glyph glyph-name="aringacute" unicode="&#x1fb;" horiz-adv-x="465" 
d="M209 788l83 142l81 -8l-119 -142zM156 566q-27 22 -27 64q0 39 31.5 66.5t85.5 27.5q49 0 76 -23t27 -66q0 -38 -32 -64.5t-86 -26.5q-48 0 -75 22zM297 590q7 26 7 44q0 24 -15.5 37.5t-44.5 13.5q-41 0 -63 -7q-7 -21 -7 -46q0 -23 15.5 -36t44.5 -13q42 0 63 7z
M79.5 22.5q-34.5 31.5 -34.5 85.5q0 75 55 112.5t154 37.5q33 0 77 -4v68q0 60 -24 82.5t-84 22.5q-42 0 -77 -5l-10 -72h-45q-11 31 -11 61v19q32 18 78.5 32t88.5 14q69 0 107 -37.5t38 -107.5v-331h-52l-4 66h-8q-26 -35 -64.5 -55t-84.5 -20q-65 0 -99.5 31.5zM271 61
q38 21 63 58v89q-45 8 -100 8q-66 0 -103 -11q-12 -23 -17.5 -43.5t-5.5 -44.5q0 -43 20.5 -60t60.5 -17q44 0 82 21z" />
    <glyph glyph-name="uni0251" unicode="&#x251;" horiz-adv-x="506" 
d="M94.5 56q-38.5 64 -38.5 166q0 120 39.5 187t134.5 67q48 0 80.5 -22t55.5 -61h7l5 81h52v-474l-52 -1l-5 70h-7q-32 -36 -67 -56.5t-82 -20.5q-84 0 -122.5 64zM369 122v222q-55 80 -132 80q-66 0 -93 -49t-27 -147q0 -91 28 -137.5t87 -46.5q80 0 137 78z" />
    <glyph glyph-name="atilde" unicode="&#xe3;" horiz-adv-x="465" 
d="M104 566q6 89 78 89q15 0 28.5 -6.5t34.5 -19.5q18 -12 28 -17t21 -5q37 0 44 50l41 -13q-6 -89 -78 -89q-17 0 -31 7t-34 20q-15 11 -25.5 16t-21.5 5q-21 0 -31 -13t-13 -37zM79.5 22.5q-34.5 31.5 -34.5 85.5q0 75 55 112.5t154 37.5q33 0 77 -4v68q0 60 -24 82.5
t-84 22.5q-42 0 -77 -5l-10 -72h-45q-11 31 -11 61v19q32 18 78.5 32t88.5 14q69 0 107 -37.5t38 -107.5v-331h-52l-4 66h-8q-26 -35 -64.5 -55t-84.5 -20q-65 0 -99.5 31.5zM271 61q38 21 63 58v89q-45 8 -100 8q-66 0 -103 -11q-12 -23 -17.5 -43.5t-5.5 -44.5
q0 -43 20.5 -60t60.5 -17q44 0 82 21z" />
    <glyph glyph-name="ae" unicode="&#xe6;" horiz-adv-x="758" 
d="M81.5 23q-36.5 32 -36.5 85q0 75 54.5 112.5t153.5 37.5q42 0 88 -4v68q0 58 -29 81.5t-90 23.5q-41 0 -76 -5l-10 -72h-45q-11 31 -11 61v19q32 18 78 32t88 14q50 0 86 -21t52 -60q49 81 156 81q80 0 124.5 -49t44.5 -134q0 -10 -2 -34l-51 -51l-255 2
q2 -82 35.5 -122.5t105.5 -40.5q44 0 75.5 10t64.5 30l19 -47q-36 -22 -72.5 -33.5t-89.5 -11.5q-120 0 -164 84q-41 -45 -82.5 -66.5t-110.5 -21.5q-64 0 -100.5 32zM648 259q5 20 5 48q0 54 -30 85t-88 31q-74 0 -102.5 -40.5t-32.5 -127.5zM343 107v101q-45 8 -110 8
t-102 -11q-12 -23 -17.5 -43.5t-5.5 -44.5q0 -43 21 -60t63 -17q89 0 151 67z" />
    <glyph glyph-name="aeacute" unicode="&#x1fd;" horiz-adv-x="758" 
d="M353 559l83 143l81 -9l-119 -141zM81.5 23q-36.5 32 -36.5 85q0 75 54.5 112.5t153.5 37.5q42 0 88 -4v68q0 58 -29 81.5t-90 23.5q-41 0 -76 -5l-10 -72h-45q-11 31 -11 61v19q32 18 78 32t88 14q50 0 86 -21t52 -60q49 81 156 81q80 0 124.5 -49t44.5 -134
q0 -10 -2 -34l-51 -51l-255 2q2 -82 35.5 -122.5t105.5 -40.5q44 0 75.5 10t64.5 30l19 -47q-36 -22 -72.5 -33.5t-89.5 -11.5q-120 0 -164 84q-41 -45 -82.5 -66.5t-110.5 -21.5q-64 0 -100.5 32zM648 259q5 20 5 48q0 54 -30 85t-88 31q-74 0 -102.5 -40.5t-32.5 -127.5z
M343 107v101q-45 8 -110 8t-102 -11q-12 -23 -17.5 -43.5t-5.5 -44.5q0 -43 21 -60t63 -17q89 0 151 67z" />
    <glyph glyph-name="b" unicode="b" horiz-adv-x="518" 
d="M80 15v654h60v-193l-3 -75h6q79 75 157 75q85 0 124.5 -62t39.5 -167q0 -125 -56.5 -190.5t-167.5 -65.5q-73 0 -160 24zM363 91q38 47 38 153q0 93 -28 136t-90 43q-79 0 -143 -73v-294q50 -12 102 -12q83 0 121 47z" />
    <glyph glyph-name="c" unicode="c" horiz-adv-x="448" 
d="M53 216q0 120 49.5 190t150.5 70q41 0 76.5 -10.5t61.5 -28.5v-29q0 -41 -12 -74h-41l-7 77q-35 9 -82 9q-67 0 -103 -16q-16 -34 -25 -83t-9 -104q0 -84 35.5 -127.5t113.5 -43.5q73 0 127 42l29 -42q-33 -27 -70 -41t-88 -14q-206 0 -206 225z" />
    <glyph glyph-name="cacute" unicode="&#x107;" horiz-adv-x="448" 
d="M215 559l83 142l81 -8l-119 -142zM53 216q0 120 49.5 190t150.5 70q41 0 76.5 -10.5t61.5 -28.5v-29q0 -41 -12 -74h-41l-7 77q-35 9 -82 9q-67 0 -103 -16q-16 -34 -25 -83t-9 -104q0 -84 35.5 -127.5t113.5 -43.5q73 0 127 42l29 -42q-33 -27 -70 -41t-88 -14
q-206 0 -206 225z" />
    <glyph glyph-name="ccaron" unicode="&#x10d;" horiz-adv-x="448" 
d="M121 692l39 9l89 -89h6l87 89l41 -9l-101 -132h-60zM53 216q0 120 49.5 190t150.5 70q41 0 76.5 -10.5t61.5 -28.5v-29q0 -41 -12 -74h-41l-7 77q-35 9 -82 9q-67 0 -103 -16q-16 -34 -25 -83t-9 -104q0 -84 35.5 -127.5t113.5 -43.5q73 0 127 42l29 -42q-33 -27 -70 -41
t-88 -14q-206 0 -206 225z" />
    <glyph glyph-name="ccedilla" unicode="&#xe7;" horiz-adv-x="448" 
d="M157 -200l14 40q30 -12 68 -12q25 0 50 5q6 15 6 33q0 37 -46 37q-26 0 -44 -7l-36 36l51 62q-167 19 -167 222q0 120 49.5 190t150.5 70q41 0 76.5 -10.5t61.5 -28.5v-29q0 -41 -12 -74h-41l-7 77q-35 9 -82 9q-67 0 -103 -16q-16 -34 -25 -83t-9 -104
q0 -84 35.5 -127.5t113.5 -43.5q73 0 127 42l29 -42q-31 -26 -66.5 -40t-83.5 -15l-40 -55q19 8 45 8q75 0 75 -74q0 -86 -106 -86q-47 0 -84 16z" />
    <glyph glyph-name="ccircumflex" unicode="&#x109;" horiz-adv-x="448" 
d="M116 559l101 132h60l101 -132l-41 -8l-87 88h-6l-89 -88zM53 216q0 120 49.5 190t150.5 70q41 0 76.5 -10.5t61.5 -28.5v-29q0 -41 -12 -74h-41l-7 77q-35 9 -82 9q-67 0 -103 -16q-16 -34 -25 -83t-9 -104q0 -84 35.5 -127.5t113.5 -43.5q73 0 127 42l29 -42
q-33 -27 -70 -41t-88 -14q-206 0 -206 225z" />
    <glyph glyph-name="cdotaccent" unicode="&#x10b;" horiz-adv-x="448" 
d="M218.5 567.5q-13.5 12.5 -13.5 34.5q0 23 13.5 36t36.5 13q24 0 37 -13t13 -36t-13 -35t-37 -12q-23 0 -36.5 12.5zM53 216q0 120 49.5 190t150.5 70q41 0 76.5 -10.5t61.5 -28.5v-29q0 -41 -12 -74h-41l-7 77q-35 9 -82 9q-67 0 -103 -16q-16 -34 -25 -83t-9 -104
q0 -84 35.5 -127.5t113.5 -43.5q73 0 127 42l29 -42q-33 -27 -70 -41t-88 -14q-206 0 -206 225z" />
    <glyph glyph-name="d" unicode="d" horiz-adv-x="520" 
d="M97 53.5q-42 62.5 -42 181.5q0 103 42 172t132 69q83 0 147 -64h7l-4 76v181h60v-669h-51l-4 66h-8q-56 -75 -143 -75q-94 0 -136 62.5zM327.5 67.5q33.5 23.5 51.5 58.5v236q-32 32 -63 46.5t-69 14.5q-67 0 -98 -48.5t-31 -142.5q0 -97 28.5 -142.5t101.5 -45.5
q46 0 79.5 23.5z" />
    <glyph glyph-name="eth" unicode="&#xf0;" horiz-adv-x="561" 
d="M130 38.5q-49 49.5 -49 138.5q0 83 51 130t131 47q41 0 74.5 -15t58.5 -40h6q-4 107 -58 174l-120 -43l-16 38l106 39q-44 41 -104 67l30 41q76 -36 127 -88l104 38l19 -39l-93 -33q37 -52 52.5 -110.5t15.5 -134.5q0 -120 -44.5 -189.5t-158.5 -69.5q-83 0 -132 49.5z
M380 63q12 27 18 64.5t6 74.5q0 27 -2 43q-61 54 -130 54q-130 0 -130 -120q0 -70 33 -102.5t99 -32.5q61 0 106 19z" />
    <glyph glyph-name="dcaron" unicode="&#x10f;" horiz-adv-x="592" 
d="M519 491q17 32 26 62.5t9 67.5h-54v43q18 7 43 7q61 0 61 -66q0 -32 -12.5 -63.5t-34.5 -59.5zM97 53.5q-42 62.5 -42 181.5q0 103 42 172t132 69q83 0 147 -64h7l-4 76v181h60v-669h-51l-4 66h-8q-56 -75 -143 -75q-94 0 -136 62.5zM327.5 67.5q33.5 23.5 51.5 58.5v236
q-32 32 -63 46.5t-69 14.5q-67 0 -98 -48.5t-31 -142.5q0 -97 28.5 -142.5t101.5 -45.5q46 0 79.5 23.5z" />
    <glyph glyph-name="dcroat" unicode="&#x111;" horiz-adv-x="539" 
d="M97 53.5q-42 62.5 -42 181.5q0 103 42 172t132 69q83 0 147 -64h7l-4 76v56h-139v47h139v78h60v-78h59v-47h-59v-544h-51l-4 66h-8q-56 -75 -143 -75q-94 0 -136 62.5zM327.5 67.5q33.5 23.5 51.5 58.5v236q-32 32 -63 46.5t-69 14.5q-67 0 -98 -48.5t-31 -142.5
q0 -97 28.5 -142.5t101.5 -45.5q46 0 79.5 23.5z" />
    <glyph glyph-name="uni1E0D" unicode="&#x1e0d;" horiz-adv-x="520" 
d="M97 53.5q-42 62.5 -42 181.5q0 103 42 172t132 69q83 0 147 -64h7l-4 76v181h60v-669h-51l-4 66h-8q-56 -75 -143 -75q-94 0 -136 62.5zM327.5 67.5q33.5 23.5 51.5 58.5v236q-32 32 -63 46.5t-69 14.5q-67 0 -98 -48.5t-31 -142.5q0 -97 28.5 -142.5t101.5 -45.5
q46 0 79.5 23.5zM237.5 -146.5q-13.5 12.5 -13.5 34.5q0 24 13 36.5t37 12.5t37 -12.5t13 -36.5q0 -22 -13 -34.5t-37 -12.5q-23 0 -36.5 12.5z" />
    <glyph glyph-name="uni1E0F" unicode="&#x1e0f;" horiz-adv-x="520" 
d="M97 53.5q-42 62.5 -42 181.5q0 103 42 172t132 69q83 0 147 -64h7l-4 76v181h60v-669h-51l-4 66h-8q-56 -75 -143 -75q-94 0 -136 62.5zM327.5 67.5q33.5 23.5 51.5 58.5v236q-32 32 -63 46.5t-69 14.5q-67 0 -98 -48.5t-31 -142.5q0 -97 28.5 -142.5t101.5 -45.5
q46 0 79.5 23.5zM83 -71h305v-57h-305v57z" />
    <glyph glyph-name="e" unicode="e" horiz-adv-x="475" 
d="M55 231q0 115 51.5 180t150.5 65q82 0 126 -49t44 -136q0 -10 -2 -32l-51 -51l-260 2q2 -83 37.5 -124.5t108.5 -41.5q44 0 75 9.5t64 29.5l20 -47q-37 -22 -73.5 -33.5t-88.5 -11.5q-202 0 -202 240zM365 259q6 24 6 48q0 54 -30 85t-88 31q-74 0 -105 -41t-35 -127z
" />
    <glyph glyph-name="eacute" unicode="&#xe9;" horiz-adv-x="475" 
d="M217 561l83 142l81 -8l-119 -142zM55 231q0 115 51.5 180t150.5 65q82 0 126 -49t44 -136q0 -10 -2 -32l-51 -51l-260 2q2 -83 37.5 -124.5t108.5 -41.5q44 0 75 9.5t64 29.5l20 -47q-37 -22 -73.5 -33.5t-88.5 -11.5q-202 0 -202 240zM365 259q6 24 6 48q0 54 -30 85
t-88 31q-74 0 -105 -41t-35 -127z" />
    <glyph glyph-name="ebreve" unicode="&#x115;" horiz-adv-x="475" 
d="M161 583q-31 28 -39 78l59 9q4 -33 18.5 -49.5t50.5 -16.5q35 0 49.5 16.5t18.5 49.5l59 -9q-8 -49 -39 -77.5t-88 -28.5q-58 0 -89 28zM55 231q0 115 51.5 180t150.5 65q82 0 126 -49t44 -136q0 -10 -2 -32l-51 -51l-260 2q2 -83 37.5 -124.5t108.5 -41.5q44 0 75 9.5
t64 29.5l20 -47q-37 -22 -73.5 -33.5t-88.5 -11.5q-202 0 -202 240zM365 259q6 24 6 48q0 54 -30 85t-88 31q-74 0 -105 -41t-35 -127z" />
    <glyph glyph-name="ecaron" unicode="&#x11b;" horiz-adv-x="475" 
d="M119 692l39 9l89 -89h6l87 89l41 -9l-101 -132h-60zM55 231q0 115 51.5 180t150.5 65q82 0 126 -49t44 -136q0 -10 -2 -32l-51 -51l-260 2q2 -83 37.5 -124.5t108.5 -41.5q44 0 75 9.5t64 29.5l20 -47q-37 -22 -73.5 -33.5t-88.5 -11.5q-202 0 -202 240zM365 259
q6 24 6 48q0 54 -30 85t-88 31q-74 0 -105 -41t-35 -127z" />
    <glyph glyph-name="ecircumflex" unicode="&#xea;" horiz-adv-x="475" 
d="M122 561l101 133h60l101 -133l-41 -8l-87 88h-6l-89 -88zM55 231q0 115 51.5 180t150.5 65q82 0 126 -49t44 -136q0 -10 -2 -32l-51 -51l-260 2q2 -83 37.5 -124.5t108.5 -41.5q44 0 75 9.5t64 29.5l20 -47q-37 -22 -73.5 -33.5t-88.5 -11.5q-202 0 -202 240zM365 259
q6 24 6 48q0 54 -30 85t-88 31q-74 0 -105 -41t-35 -127z" />
    <glyph glyph-name="uni1EBF" unicode="&#x1ebf;" horiz-adv-x="505" 
d="M377 649l61 106l58 -11l-81 -103zM121 560l101 132h60l101 -132l-41 -9l-87 89h-6l-89 -89zM55 231q0 115 51.5 180t150.5 65q82 0 126 -49t44 -136q0 -10 -2 -32l-51 -51l-260 2q2 -83 37.5 -124.5t108.5 -41.5q44 0 75 9.5t64 29.5l20 -47q-37 -22 -73.5 -33.5
t-88.5 -11.5q-202 0 -202 240zM365 259q6 24 6 48q0 54 -30 85t-88 31q-74 0 -105 -41t-35 -127z" />
    <glyph glyph-name="uni1EC7" unicode="&#x1ec7;" horiz-adv-x="475" 
d="M121 560l101 133h60l101 -133l-41 -8l-87 88h-6l-89 -88zM55 231q0 115 51.5 180t150.5 65q82 0 126 -49t44 -136q0 -10 -2 -32l-51 -51l-260 2q2 -83 37.5 -124.5t108.5 -41.5q44 0 75 9.5t64 29.5l20 -47q-37 -22 -73.5 -33.5t-88.5 -11.5q-202 0 -202 240zM365 259
q6 24 6 48q0 54 -30 85t-88 31q-74 0 -105 -41t-35 -127zM217.5 -151.5q-13.5 12.5 -13.5 34.5q0 24 13 36.5t37 12.5t37 -12.5t13 -36.5q0 -22 -13 -34.5t-37 -12.5q-23 0 -36.5 12.5z" />
    <glyph glyph-name="uni1EC1" unicode="&#x1ec1;" horiz-adv-x="475" 
d="M8 744l59 10l60 -105l-38 -9zM122 559l101 132h59l102 -132l-39 -8l-90 88h-5l-88 -88zM54 231q0 115 51.5 180t150.5 65q82 0 126 -49t44 -136q0 -10 -2 -32l-51 -51l-260 2q2 -83 37.5 -124.5t108.5 -41.5q44 0 75 9.5t64 29.5l20 -47q-37 -22 -73.5 -33.5t-88.5 -11.5
q-202 0 -202 240zM364 259q6 24 6 48q0 54 -30 85t-88 31q-74 0 -105 -41t-35 -127z" />
    <glyph glyph-name="uni1EC3" unicode="&#x1ec3;" horiz-adv-x="500" 
d="M363 697v25q34 0 47 5t13 18q0 12 -6.5 17t-22.5 5q-19 0 -40 -8l-9 32q30 11 55 11q63 0 63 -56q0 -51 -62 -53v-35h-29zM113 559l101 132h60l101 -132l-41 -9l-87 89h-6l-89 -89zM55 231q0 115 51.5 180t150.5 65q82 0 126 -49t44 -136q0 -10 -2 -32l-51 -51l-260 2
q2 -83 37.5 -124.5t108.5 -41.5q44 0 75 9.5t64 29.5l20 -47q-37 -22 -73.5 -33.5t-88.5 -11.5q-202 0 -202 240zM365 259q6 24 6 48q0 54 -30 85t-88 31q-74 0 -105 -41t-35 -127z" />
    <glyph glyph-name="uni1EC5" unicode="&#x1ec5;" horiz-adv-x="475" 
d="M129 753q7 70 66 70q26 0 58 -20q24 -13 35 -13q32 0 40 37l33 -11q-7 -69 -66 -69q-14 0 -25.5 4.5t-26.5 13.5q-12 8 -21 11.5t-19 3.5q-34 0 -40 -37zM115 559l101 132h60l101 -132l-41 -8l-87 88h-6l-89 -88zM55 231q0 115 51.5 180t150.5 65q82 0 126 -49t44 -136
q0 -10 -2 -32l-51 -51l-260 2q2 -83 37.5 -124.5t108.5 -41.5q44 0 75 9.5t64 29.5l20 -47q-37 -22 -73.5 -33.5t-88.5 -11.5q-202 0 -202 240zM365 259q6 24 6 48q0 54 -30 85t-88 31q-74 0 -105 -41t-35 -127z" />
    <glyph glyph-name="edieresis" unicode="&#xeb;" horiz-adv-x="475" 
d="M143.5 564.5q-10.5 9.5 -10.5 26.5q0 18 10.5 27.5t28.5 9.5t28 -9.5t10 -27.5q0 -17 -10 -26.5t-28 -9.5t-28.5 9.5zM300.5 564.5q-10.5 9.5 -10.5 26.5q0 18 10.5 27.5t29.5 9.5q18 0 28 -9.5t10 -27.5q0 -17 -10 -26.5t-28 -9.5q-19 0 -29.5 9.5zM55 231
q0 115 51.5 180t150.5 65q82 0 126 -49t44 -136q0 -10 -2 -32l-51 -51l-260 2q2 -83 37.5 -124.5t108.5 -41.5q44 0 75 9.5t64 29.5l20 -47q-37 -22 -73.5 -33.5t-88.5 -11.5q-202 0 -202 240zM365 259q6 24 6 48q0 54 -30 85t-88 31q-74 0 -105 -41t-35 -127z" />
    <glyph glyph-name="edotaccent" unicode="&#x117;" horiz-adv-x="475" 
d="M213.5 567.5q-13.5 12.5 -13.5 34.5q0 23 13.5 36t36.5 13q24 0 37 -13t13 -36t-13 -35t-37 -12q-23 0 -36.5 12.5zM55 231q0 115 51.5 180t150.5 65q82 0 126 -49t44 -136q0 -10 -2 -32l-51 -51l-260 2q2 -83 37.5 -124.5t108.5 -41.5q44 0 75 9.5t64 29.5l20 -47
q-37 -22 -73.5 -33.5t-88.5 -11.5q-202 0 -202 240zM365 259q6 24 6 48q0 54 -30 85t-88 31q-74 0 -105 -41t-35 -127z" />
    <glyph glyph-name="uni1EB9" unicode="&#x1eb9;" horiz-adv-x="475" 
d="M55 231q0 115 51.5 180t150.5 65q82 0 126 -49t44 -136q0 -10 -2 -32l-51 -51l-260 2q2 -83 37.5 -124.5t108.5 -41.5q44 0 75 9.5t64 29.5l20 -47q-37 -22 -73.5 -33.5t-88.5 -11.5q-202 0 -202 240zM365 259q6 24 6 48q0 54 -30 85t-88 31q-74 0 -105 -41t-35 -127z
M212.5 -146.5q-13.5 12.5 -13.5 34.5q0 24 13 36.5t37 12.5t37 -12.5t13 -36.5q0 -22 -13 -34.5t-37 -12.5q-23 0 -36.5 12.5z" />
    <glyph glyph-name="egrave" unicode="&#xe8;" horiz-adv-x="475" 
d="M129 695l81 8l83 -142l-45 -8zM55 231q0 115 51.5 180t150.5 65q82 0 126 -49t44 -136q0 -10 -2 -32l-51 -51l-260 2q2 -83 37.5 -124.5t108.5 -41.5q44 0 75 9.5t64 29.5l20 -47q-37 -22 -73.5 -33.5t-88.5 -11.5q-202 0 -202 240zM365 259q6 24 6 48q0 54 -30 85
t-88 31q-74 0 -105 -41t-35 -127z" />
    <glyph glyph-name="uni1EBB" unicode="&#x1ebb;" horiz-adv-x="475" 
d="M216 609v28q51 0 70 6.5t19 29.5q0 18 -10.5 26t-35.5 8q-28 0 -54 -9l-13 37q35 15 76 15q44 0 65 -20.5t21 -55.5q0 -71 -92 -74v-40h-34zM55 231q0 115 51.5 180t150.5 65q82 0 126 -49t44 -136q0 -10 -2 -32l-51 -51l-260 2q2 -83 37.5 -124.5t108.5 -41.5
q44 0 75 9.5t64 29.5l20 -47q-37 -22 -73.5 -33.5t-88.5 -11.5q-202 0 -202 240zM365 259q6 24 6 48q0 54 -30 85t-88 31q-74 0 -105 -41t-35 -127z" />
    <glyph glyph-name="emacron" unicode="&#x113;" horiz-adv-x="475" 
d="M109 613h285v-53h-285v53zM55 231q0 115 51.5 180t150.5 65q82 0 126 -49t44 -136q0 -10 -2 -32l-51 -51l-260 2q2 -83 37.5 -124.5t108.5 -41.5q44 0 75 9.5t64 29.5l20 -47q-37 -22 -73.5 -33.5t-88.5 -11.5q-202 0 -202 240zM365 259q6 24 6 48q0 54 -30 85t-88 31
q-74 0 -105 -41t-35 -127z" />
    <glyph glyph-name="eogonek" unicode="&#x119;" horiz-adv-x="476" 
d="M317 -112.5q-24 20.5 -24 57.5q0 29 15 50q-30 -4 -51 -4q-202 0 -202 240q0 115 51.5 180t150.5 65q82 0 126 -49t44 -136q0 -10 -2 -32l-51 -51l-260 2q2 -83 37.5 -124.5t108.5 -41.5q44 0 75 9.5t64 29.5l20 -47l-29 -16q-23 -16 -32.5 -33t-9.5 -39q0 -17 6 -30
q16 -4 39 -4q18 0 41 5l10 -41q-25 -11 -60 -11q-43 0 -67 20.5zM365 259q6 24 6 48q0 54 -30 85t-88 31q-74 0 -105 -41t-35 -127z" />
    <glyph glyph-name="uni1EBD" unicode="&#x1ebd;" horiz-adv-x="475" 
d="M112 563q6 89 78 89q15 0 28.5 -6.5t34.5 -19.5q18 -12 28 -17t21 -5q37 0 44 50l41 -13q-6 -89 -78 -89q-17 0 -31 7t-34 20q-15 11 -25.5 16t-21.5 5q-21 0 -31 -13t-13 -37zM55 231q0 115 51.5 180t150.5 65q82 0 126 -49t44 -136q0 -10 -2 -32l-51 -51l-260 2
q2 -83 37.5 -124.5t108.5 -41.5q44 0 75 9.5t64 29.5l20 -47q-37 -22 -73.5 -33.5t-88.5 -11.5q-202 0 -202 240zM365 259q6 24 6 48q0 54 -30 85t-88 31q-74 0 -105 -41t-35 -127z" />
    <glyph glyph-name="f" unicode="f" horiz-adv-x="329" 
d="M100 417h-65l8 51h57v86q0 36 23 65.5t52 45.5q31 7 62 7q44 0 84 -19l-16 -50q-20 8 -35.5 11t-36.5 3q-34 0 -64 -9q-10 -27 -10 -63v-77h112l-8 -51h-104v-417h-59v417z" />
    <glyph glyph-name="g" unicode="g" horiz-adv-x="504" 
d="M157 -182q-42 10 -71 27l18 47q29 -14 65.5 -22t71.5 -8q44 0 74.5 6t54.5 20v127l3 63h-7q-65 -74 -145 -74q-86 0 -125.5 61.5t-39.5 160.5q0 119 40.5 184.5t135.5 65.5q87 0 134 -80h6l5 73h51v-525q0 -69 -49 -102.5t-133 -33.5q-47 0 -89 10zM368 129v220
q-56 75 -131 75q-67 0 -93.5 -47.5t-26.5 -144.5q0 -89 28.5 -132.5t88.5 -43.5q78 0 134 73z" />
    <glyph glyph-name="gbreve" unicode="&#x11f;" horiz-adv-x="504" 
d="M176 583q-31 28 -39 78l59 9q4 -33 18.5 -49.5t50.5 -16.5q35 0 49.5 16.5t18.5 49.5l59 -9q-8 -49 -39 -77.5t-88 -28.5q-58 0 -89 28zM157 -182q-42 10 -71 27l18 47q29 -14 65.5 -22t71.5 -8q44 0 74.5 6t54.5 20v127l3 63h-7q-65 -74 -145 -74q-86 0 -125.5 61.5
t-39.5 160.5q0 119 40.5 184.5t135.5 65.5q87 0 134 -80h6l5 76h51v-528q0 -69 -49 -102.5t-133 -33.5q-47 0 -89 10zM368 129v220q-56 75 -131 75q-67 0 -93.5 -47.5t-26.5 -144.5q0 -89 28.5 -132.5t88.5 -43.5q78 0 134 73z" />
    <glyph glyph-name="gcaron" unicode="&#x1e7;" horiz-adv-x="504" 
d="M132 692l39 9l89 -89h6l87 89l41 -9l-101 -132h-60zM157 -182q-42 10 -71 27l18 47q29 -14 65.5 -22t71.5 -8q44 0 74.5 6t54.5 20v127l3 63h-7q-65 -74 -145 -74q-86 0 -125.5 61.5t-39.5 160.5q0 119 40.5 184.5t135.5 65.5q87 0 134 -80h6l5 76h51v-528
q0 -69 -49 -102.5t-133 -33.5q-47 0 -89 10zM368 129v220q-56 75 -131 75q-67 0 -93.5 -47.5t-26.5 -144.5q0 -89 28.5 -132.5t88.5 -43.5q78 0 134 73z" />
    <glyph glyph-name="gcircumflex" unicode="&#x11d;" horiz-adv-x="504" 
d="M128 559l101 132h60l101 -132l-41 -8l-87 88h-6l-89 -88zM157 -182q-42 10 -71 27l18 47q29 -14 65.5 -22t71.5 -8q44 0 74.5 6t54.5 20v127l3 63h-7q-65 -74 -145 -74q-86 0 -125.5 61.5t-39.5 160.5q0 119 40.5 184.5t135.5 65.5q87 0 134 -80h6l5 76h51v-528
q0 -69 -49 -102.5t-133 -33.5q-47 0 -89 10zM368 129v220q-56 75 -131 75q-67 0 -93.5 -47.5t-26.5 -144.5q0 -89 28.5 -132.5t88.5 -43.5q78 0 134 73z" />
    <glyph glyph-name="gcommaaccent" unicode="&#x123;" horiz-adv-x="504" 
d="M241 560q18 32 26.5 63t8.5 68h-54v42q21 8 43 8q61 0 61 -67q0 -32 -12.5 -63.5t-34.5 -59.5zM157 -182q-42 10 -71 27l18 47q29 -14 65.5 -22t71.5 -8q44 0 74.5 6t54.5 20v127l3 63h-7q-65 -74 -145 -74q-86 0 -125.5 61.5t-39.5 160.5q0 119 40.5 184.5t135.5 65.5
q87 0 134 -80h6l5 76h51v-528q0 -69 -49 -102.5t-133 -33.5q-47 0 -89 10zM368 129v220q-56 75 -131 75q-67 0 -93.5 -47.5t-26.5 -144.5q0 -89 28.5 -132.5t88.5 -43.5q78 0 134 73z" />
    <glyph glyph-name="gdotaccent" unicode="&#x121;" horiz-adv-x="504" 
d="M226.5 567.5q-13.5 12.5 -13.5 34.5q0 23 13.5 36t36.5 13q24 0 37 -13t13 -36t-13 -35t-37 -12q-23 0 -36.5 12.5zM157 -182q-42 10 -71 27l18 47q29 -14 65.5 -22t71.5 -8q44 0 74.5 6t54.5 20v127l3 63h-7q-65 -74 -145 -74q-86 0 -125.5 61.5t-39.5 160.5
q0 119 40.5 184.5t135.5 65.5q87 0 134 -80h6l5 76h51v-528q0 -69 -49 -102.5t-133 -33.5q-47 0 -89 10zM368 129v220q-56 75 -131 75q-67 0 -93.5 -47.5t-26.5 -144.5q0 -89 28.5 -132.5t88.5 -43.5q78 0 134 73z" />
    <glyph glyph-name="uni1E21" unicode="&#x1e21;" horiz-adv-x="504" 
d="M114 613h285v-53h-285v53zM157 -182q-42 10 -71 27l18 47q29 -14 65.5 -22t71.5 -8q44 0 74.5 6t54.5 20v127l3 63h-7q-65 -74 -145 -74q-86 0 -125.5 61.5t-39.5 160.5q0 119 40.5 184.5t135.5 65.5q87 0 134 -80h6l5 76h51v-528q0 -69 -49 -102.5t-133 -33.5
q-47 0 -89 10zM368 129v220q-56 75 -131 75q-67 0 -93.5 -47.5t-26.5 -144.5q0 -89 28.5 -132.5t88.5 -43.5q78 0 134 73z" />
    <glyph glyph-name="h" unicode="h" horiz-adv-x="517" 
d="M80 669h60v-191l-3 -80h6q78 78 173 78q63 0 93.5 -25.5t30.5 -84.5v-366h-60v410q-31 11 -75 11q-50 0 -92.5 -18.5t-72.5 -50.5v-352h-60v669z" />
    <glyph glyph-name="hbar" unicode="&#x127;" horiz-adv-x="517" 
d="M80 544h-64v47h64v78h61v-78h133v-47h-133v-66l-4 -80h6q78 78 173 78q64 0 94.5 -25.5t30.5 -84.5v-366h-61v410q-31 11 -74 11q-51 0 -93 -18t-72 -51v-352h-61v544z" />
    <glyph glyph-name="uni1E2B" unicode="&#x1e2b;" horiz-adv-x="517" 
d="M80 669h60v-191l-3 -80h6q78 78 173 78q63 0 93.5 -25.5t30.5 -84.5v-366h-60v410q-31 11 -75 11q-50 0 -92.5 -18.5t-72.5 -50.5v-352h-60v669zM170 -145q-31 28 -39 78l59 9q4 -33 18.5 -49.5t50.5 -16.5q35 0 49.5 16.5t18.5 49.5l59 -9q-8 -49 -39 -77.5t-88 -28.5
q-58 0 -89 28z" />
    <glyph glyph-name="hcircumflex" unicode="&#x125;" horiz-adv-x="517" 
d="M148 713l101 132h60l101 -132l-41 -9l-87 89h-6l-89 -89zM80 669h60v-191l-3 -80h6q78 78 173 78q63 0 93.5 -25.5t30.5 -84.5v-366h-60v410q-31 11 -75 11q-50 0 -92.5 -18.5t-72.5 -50.5v-352h-60v669z" />
    <glyph glyph-name="uni1E25" unicode="&#x1e25;" horiz-adv-x="517" 
d="M80 669h60v-191l-3 -80h6q78 78 173 78q63 0 93.5 -25.5t30.5 -84.5v-366h-60v410q-31 11 -75 11q-50 0 -92.5 -18.5t-72.5 -50.5v-352h-60v669zM221.5 -151.5q-13.5 12.5 -13.5 34.5q0 24 13 36.5t37 12.5t37 -12.5t13 -36.5q0 -22 -13 -34.5t-37 -12.5
q-23 0 -36.5 12.5z" />
    <glyph glyph-name="i" unicode="i" horiz-adv-x="222" 
d="M80 647h63v-93h-63v93zM81 467h59v-467h-59v467z" />
    <glyph glyph-name="dotlessi" unicode="&#x131;" horiz-adv-x="224" 
d="M82 467h59v-467h-59v467z" />
    <glyph glyph-name="iacute" unicode="&#xed;" horiz-adv-x="239" 
d="M85 562l83 142l81 -8l-119 -142zM82 467h59v-467h-59v467z" />
    <glyph glyph-name="ibreve" unicode="&#x12d;" horiz-adv-x="239" 
d="M31 583.5q-31 28.5 -39 77.5l59 9q4 -33 18.5 -49.5t49.5 -16.5q36 0 50.5 16.5t18.5 49.5l59 -9q-8 -50 -39 -78t-89 -28q-57 0 -88 28.5zM90 467h59v-467h-59v467z" />
    <glyph glyph-name="uni01D0" unicode="&#x1d0;" horiz-adv-x="239" 
d="M-19 692l39 9l90 -89h5l88 89l40 -9l-101 -132h-60zM82 469h59v-469h-59v469z" />
    <glyph glyph-name="icircumflex" unicode="&#xee;" horiz-adv-x="239" 
d="M-12 559l102 132h59l101 -132l-40 -8l-88 88h-5l-90 -88zM90 467h59v-467h-59v467z" />
    <glyph glyph-name="idieresis" unicode="&#xef;" horiz-adv-x="239" 
d="M12.5 564.5q-10.5 9.5 -10.5 26.5q0 18 10.5 27.5t28.5 9.5t28 -9.5t10 -27.5q0 -17 -10 -26.5t-28 -9.5t-28.5 9.5zM169.5 564.5q-10.5 9.5 -10.5 26.5q0 18 10.5 27.5t29.5 9.5q18 0 28 -9.5t10 -27.5q0 -17 -10 -26.5t-28 -9.5q-19 0 -29.5 9.5zM90 467h59v-467h-59
v467z" />
    <glyph glyph-name="uni1ECB" unicode="&#x1ecb;" horiz-adv-x="242" 
d="M90 647h63v-93h-63v93zM92 466h59v-466h-59v466zM84.5 -151.5q-13.5 12.5 -13.5 34.5q0 24 13 36.5t37 12.5t37 -12.5t13 -36.5q0 -22 -13 -34.5t-37 -12.5q-23 0 -36.5 12.5z" />
    <glyph glyph-name="igrave" unicode="&#xec;" horiz-adv-x="239" 
d="M-25 696l80 8l84 -142l-46 -8zM82 467h59v-467h-59v467z" />
    <glyph glyph-name="uni1EC9" unicode="&#x1ec9;" horiz-adv-x="248" 
d="M85 609v28q51 0 70 6.5t19 29.5q0 18 -10.5 26t-35.5 8q-28 0 -54 -9l-13 37q35 15 76 15q44 0 65 -20.5t21 -55.5q0 -71 -92 -74v-40h-34zM84 469h59v-469h-59v469z" />
    <glyph glyph-name="ij" unicode="&#x133;" horiz-adv-x="471" 
d="M80 647h63v-93h-63v93zM331 647h63v-93h-63v93zM81 466h59v-466h-59v466zM179 -178l14 52q40 -11 75 -11q31 0 56 9q8 23 8 67v527h60v-531q0 -60 -33 -93t-92 -33q-48 0 -88 13z" />
    <glyph glyph-name="imacron" unicode="&#x12b;" horiz-adv-x="239" 
d="M-23 613h285v-53h-285v53zM90 467h59v-467h-59v467z" />
    <glyph glyph-name="iogonek" unicode="&#x12f;" horiz-adv-x="222" 
d="M143 554h-63v93h63v-93zM172 -155q-25 -11 -60 -11q-43 0 -67 20.5t-24 57.5q0 29 16 50t44 35v469h59v-469q-37 -16 -50.5 -34t-13.5 -48q0 -18 6 -30q16 -4 39 -4q22 0 41 5z" />
    <glyph glyph-name="itilde" unicode="&#x129;" horiz-adv-x="239" 
d="M-18 530q6 89 78 89q15 0 28.5 -6.5t34.5 -19.5q18 -12 28 -17t21 -5q21 0 31 13t13 37l41 -13q-6 -89 -78 -89q-17 0 -31.5 7t-32.5 20q-15 11 -26 16t-22 5q-37 0 -44 -50zM90 467h59v-467h-59v467z" />
    <glyph glyph-name="j" unicode="j" horiz-adv-x="263" 
d="M124 647h63v-93h-63v93zM-28 -178l14 52q40 -11 75 -11q30 0 57 9q8 23 8 67v529h59v-533q0 -61 -32.5 -93.5t-92.5 -32.5q-48 0 -88 13z" />
    <glyph glyph-name="uni0237" unicode="&#x237;" horiz-adv-x="261" 
d="M-28 -178l14 52q40 -11 75 -11q30 0 57 9q8 23 8 67v527h59v-531q0 -61 -32.5 -93.5t-92.5 -32.5q-48 0 -88 13z" />
    <glyph glyph-name="jcircumflex" unicode="&#x135;" horiz-adv-x="329" 
d="M78 560l101 132h60l101 -132l-41 -9l-87 89h-6l-89 -89zM31 -178l14 52q40 -11 75 -11q31 0 56 9q8 23 8 67v527h60v-531q0 -60 -33 -93t-92 -33q-48 0 -88 13z" />
    <glyph glyph-name="k" unicode="k" horiz-adv-x="492" 
d="M384 1q-13 8 -21 26l-46 104q-21 47 -47 68.5t-77 21.5h-58v-221h-59v669h59v-399h53q51 0 77 21.5t43 61.5l54 121l58 -22l-53 -119q-16 -34 -35.5 -53.5t-54.5 -30.5v-6q37 -11 56 -29.5t36 -54.5l54 -121l39 -7v-32q-22 -6 -44 -6q-21 0 -34 8z" />
    <glyph glyph-name="kcommaaccent" unicode="&#x137;" horiz-adv-x="492" 
d="M384 1q-13 8 -21 26l-46 104q-21 47 -47 68.5t-77 21.5h-58v-221h-59v646h59v-376h53q51 0 77 21.5t43 61.5l54 121l58 -22l-53 -119q-16 -34 -35.5 -53.5t-54.5 -30.5v-6q37 -11 56 -29.5t36 -54.5l54 -121l39 -7v-32q-22 -6 -44 -6q-21 0 -34 8zM220 -238
q17 32 26 62.5t9 67.5h-54v43q18 7 43 7q61 0 61 -66q0 -32 -12.5 -63.5t-34.5 -59.5z" />
    <glyph glyph-name="kgreenlandic" unicode="&#x138;" horiz-adv-x="496" 
d="M364 27l-45 102q-21 48 -46.5 70t-79.5 22h-58v-221h-59v477h59v-207h53q53 0 79 20.5t43 59.5l53 126l61 -16l-55 -128q-14 -32 -33.5 -51.5t-55.5 -31.5v-6q37 -12 56 -30t34 -54l52 -118l32 -9v-30q-24 -7 -39 -7q-36 0 -51 32z" />
    <glyph glyph-name="l" unicode="l" horiz-adv-x="268" 
d="M99.5 28q-25.5 26 -25.5 48v593h59v-583q0 -16 1.5 -24.5t6.5 -17.5h14l62 30l26 -33q-16 -19 -41 -32t-53 -16q-24 9 -49.5 35z" />
    <glyph glyph-name="lacute" unicode="&#x13a;" horiz-adv-x="273" 
d="M74 706l83 142l81 -8l-119 -142zM100.5 28q-25.5 26 -25.5 48v593h59v-583q0 -16 1.5 -24.5t6.5 -17.5h14l62 30l26 -33q-16 -19 -41 -32t-53 -16q-24 9 -49.5 35z" />
    <glyph glyph-name="lcaron" unicode="&#x13e;" horiz-adv-x="321" 
d="M99.5 28q-25.5 26 -25.5 48v593h59v-583q0 -16 1.5 -24.5t6.5 -17.5h14l62 30l26 -33q-16 -19 -41 -32t-53 -16q-24 9 -49.5 35zM222 476q18 32 26.5 63t8.5 68h-54v42q21 8 43 8q61 0 61 -66q0 -32 -12.5 -64t-34.5 -59z" />
    <glyph glyph-name="lcommaaccent" unicode="&#x13c;" horiz-adv-x="268" 
d="M99.5 28q-25.5 26 -25.5 48v593h59v-583q0 -16 1.5 -24.5t6.5 -17.5h14l62 30l26 -33q-16 -19 -41 -32t-53 -16q-24 9 -49.5 35zM119 -238q17 32 26 62.5t9 67.5h-54v43q18 7 43 7q61 0 61 -66q0 -32 -12.5 -63.5t-34.5 -59.5z" />
    <glyph glyph-name="ldot" unicode="&#x140;" horiz-adv-x="326" 
d="M99.5 28q-25.5 26 -25.5 48v593h59v-583q0 -16 1.5 -24.5t6.5 -17.5h14l62 30l26 -33q-16 -19 -41 -32t-53 -16q-24 9 -49.5 35zM231 251q-14 13 -14 35q0 21 14.5 34.5t35.5 13.5t35 -13.5t14 -34.5q0 -22 -13.5 -35t-35.5 -13t-36 13z" />
    <glyph glyph-name="uni1E37" unicode="&#x1e37;" horiz-adv-x="268" 
d="M99.5 28q-25.5 26 -25.5 48v593h59v-583q0 -16 1.5 -24.5t6.5 -17.5h14l62 30l26 -33q-16 -19 -41 -32t-53 -16q-24 9 -49.5 35zM106.5 -146.5q-13.5 12.5 -13.5 34.5q0 24 13 36.5t37 12.5t37 -12.5t13 -36.5q0 -22 -13 -34.5t-37 -12.5q-23 0 -36.5 12.5z" />
    <glyph glyph-name="uni1E39" unicode="&#x1e39;" horiz-adv-x="280" 
d="M-27 759h285v-53h-285v53zM99.5 28q-25.5 26 -25.5 48v593h59v-583q0 -16 1.5 -24.5t6.5 -17.5h14l62 30l26 -33q-16 -19 -41 -32t-53 -16q-24 9 -49.5 35zM110.5 -146.5q-13.5 12.5 -13.5 34.5q0 24 13 36.5t37 12.5t37 -12.5t13 -36.5q0 -22 -13 -34.5t-37 -12.5
q-23 0 -36.5 12.5z" />
    <glyph glyph-name="uni1E3B" unicode="&#x1e3b;" horiz-adv-x="332" 
d="M107.5 28q-25.5 26 -25.5 48v593h59v-583q0 -16 1.5 -24.5t6.5 -17.5h14l62 30l26 -33q-16 -19 -41 -32t-53 -16q-24 9 -49.5 35zM73 -71h305v-57h-305v57z" />
    <glyph glyph-name="lslash" unicode="&#x142;" horiz-adv-x="282" 
d="M109.5 29.5q-25.5 26.5 -25.5 47.5v219l-103 -33l-15 47l118 38v307h59v-288l106 34l15 -47l-121 -39v-228q0 -16 1.5 -24t5.5 -17h15l62 29l26 -33q-17 -19 -42 -32t-53 -16q-23 9 -48.5 35.5z" />
    <glyph glyph-name="m" unicode="m" horiz-adv-x="802" 
d="M80 468h50l6 -68h7q78 76 166 76q55 0 83.5 -17.5t35.5 -58.5h7q76 76 167 76q64 0 94 -24t30 -86v-366h-61v410q-33 11 -73 11q-45 0 -86.5 -16.5t-72.5 -47.5v-357h-60v410q-33 11 -73 11q-46 0 -87.5 -17t-72.5 -48v-356h-60v468z" />
    <glyph glyph-name="uni1E43" unicode="&#x1e43;" horiz-adv-x="802" 
d="M80 468h50l6 -68h7q78 76 166 76q55 0 83.5 -17.5t35.5 -58.5h7q76 76 167 76q64 0 94 -24t30 -86v-366h-61v410q-33 11 -73 11q-45 0 -86.5 -16.5t-72.5 -47.5v-357h-60v410q-33 11 -73 11q-46 0 -87.5 -17t-72.5 -48v-356h-60v468zM366.5 -146.5q-13.5 12.5 -13.5 34.5
q0 24 13 36.5t37 12.5t37 -12.5t13 -36.5q0 -22 -13 -34.5t-37 -12.5q-23 0 -36.5 12.5z" />
    <glyph glyph-name="n" unicode="n" horiz-adv-x="516" 
d="M80 468h51l5 -70h7q78 78 173 78q63 0 93.5 -25.5t30.5 -84.5v-366h-60v410q-31 11 -75 11q-50 0 -92.5 -18.5t-72.5 -50.5v-352h-60v468z" />
    <glyph glyph-name="nacute" unicode="&#x144;" horiz-adv-x="516" 
d="M238 559l83 143l81 -9l-119 -141zM80 468h51l5 -70h7q78 78 173 78q63 0 93.5 -25.5t30.5 -84.5v-366h-60v410q-31 11 -75 11q-50 0 -92.5 -18.5t-72.5 -50.5v-352h-60v468z" />
    <glyph glyph-name="napostrophe" unicode="&#x149;" horiz-adv-x="612" 
d="M31 336q18 32 26.5 63t8.5 68h-54v43q23 7 43 7q61 0 61 -66q0 -32 -12.5 -64t-34.5 -59zM176 468h51l5 -70h7q78 78 173 78q63 0 93.5 -25.5t30.5 -84.5v-366h-60v410q-31 11 -75 11q-50 0 -92.5 -18.5t-72.5 -50.5v-352h-60v468z" />
    <glyph glyph-name="ncaron" unicode="&#x148;" horiz-adv-x="517" 
d="M142 692l39 9l89 -89h6l87 89l41 -9l-101 -132h-60zM80 468h51l5 -70h7q78 78 173 78q63 0 93.5 -25.5t30.5 -84.5v-366h-60v410q-31 11 -75 11q-50 0 -92.5 -18.5t-72.5 -50.5v-352h-60v468z" />
    <glyph glyph-name="ncommaaccent" unicode="&#x146;" horiz-adv-x="516" 
d="M80 468h51l5 -70h7q78 78 173 78q63 0 93.5 -25.5t30.5 -84.5v-366h-60v410q-31 11 -75 11q-50 0 -92.5 -18.5t-72.5 -50.5v-352h-60v468zM244 -238q17 32 26 62.5t9 67.5h-54v43q18 7 43 7q61 0 61 -66q0 -32 -12.5 -63.5t-34.5 -59.5z" />
    <glyph glyph-name="uni1E45" unicode="&#x1e45;" horiz-adv-x="516" 
d="M238.5 567.5q-13.5 12.5 -13.5 34.5q0 23 13.5 36t36.5 13q24 0 37 -13t13 -36t-13 -35t-37 -12q-23 0 -36.5 12.5zM80 468h51l5 -70h7q78 78 173 78q63 0 93.5 -25.5t30.5 -84.5v-366h-60v410q-31 11 -75 11q-50 0 -92.5 -18.5t-72.5 -50.5v-352h-60v468z" />
    <glyph glyph-name="uni1E47" unicode="&#x1e47;" horiz-adv-x="516" 
d="M80 468h51l5 -70h7q78 78 173 78q63 0 93.5 -25.5t30.5 -84.5v-366h-60v410q-31 11 -75 11q-50 0 -92.5 -18.5t-72.5 -50.5v-352h-60v468zM233.5 -146.5q-13.5 12.5 -13.5 34.5q0 24 13 36.5t37 12.5t37 -12.5t13 -36.5q0 -22 -13 -34.5t-37 -12.5q-23 0 -36.5 12.5z" />
    <glyph glyph-name="eng" unicode="&#x14b;" horiz-adv-x="516" 
d="M259 -165q74 21 112 48q9 26 9 81v446q-31 11 -75 11q-50 0 -92.5 -18.5t-72.5 -50.5v-352h-60v468h51l5 -70h7q78 78 173 78q63 0 93.5 -25.5t30.5 -84.5v-399q0 -72 -34.5 -116t-117.5 -77z" />
    <glyph glyph-name="uni1E49" unicode="&#x1e49;" horiz-adv-x="516" 
d="M80 468h51l5 -70h7q78 78 173 78q63 0 93.5 -25.5t30.5 -84.5v-366h-60v410q-31 11 -75 11q-50 0 -92.5 -18.5t-72.5 -50.5v-352h-60v468zM118 -71h305v-57h-305v57z" />
    <glyph glyph-name="ntilde" unicode="&#xf1;" horiz-adv-x="516" 
d="M125 566q6 89 78 89q15 0 28.5 -6.5t34.5 -19.5q18 -12 28 -17t21 -5q37 0 44 50l41 -13q-6 -89 -78 -89q-17 0 -31 7t-34 20q-15 11 -25.5 16t-21.5 5q-21 0 -31 -13t-13 -37zM80 468h51l5 -70h7q78 78 173 78q63 0 93.5 -25.5t30.5 -84.5v-366h-60v410q-31 11 -75 11
q-50 0 -92.5 -18.5t-72.5 -50.5v-352h-60v468z" />
    <glyph glyph-name="o" unicode="o" horiz-adv-x="507" 
d="M100 53.5q-45 62.5 -45 175.5q0 118 48 184.5t162 66.5q96 0 141.5 -64.5t45.5 -178.5q0 -117 -48 -181.5t-162 -64.5q-97 0 -142 62.5zM361 65q31 55 31 160q0 106 -31.5 153.5t-112.5 47.5q-63 0 -102 -21q-14 -26 -22.5 -69.5t-8.5 -95.5q0 -70 13 -112.5t44.5 -63
t86.5 -20.5q60 0 102 21z" />
    <glyph glyph-name="oacute" unicode="&#xf3;" horiz-adv-x="507" 
d="M225 561l83 142l81 -8l-119 -142zM100 53.5q-45 62.5 -45 175.5q0 118 48 184.5t162 66.5q96 0 141.5 -64.5t45.5 -178.5q0 -117 -48 -181.5t-162 -64.5q-97 0 -142 62.5zM361 65q31 55 31 160q0 106 -31.5 153.5t-112.5 47.5q-63 0 -102 -21q-14 -26 -22.5 -69.5
t-8.5 -95.5q0 -70 13 -112.5t44.5 -63t86.5 -20.5q60 0 102 21z" />
    <glyph glyph-name="obreve" unicode="&#x14f;" horiz-adv-x="507" 
d="M164 583q-31 28 -39 78l59 9q4 -33 18.5 -49.5t50.5 -16.5q35 0 49.5 16.5t18.5 49.5l59 -9q-8 -49 -39 -77.5t-88 -28.5q-58 0 -89 28zM100 53.5q-45 62.5 -45 175.5q0 118 48 184.5t162 66.5q96 0 141.5 -64.5t45.5 -178.5q0 -117 -48 -181.5t-162 -64.5
q-97 0 -142 62.5zM361 65q31 55 31 160q0 106 -31.5 153.5t-112.5 47.5q-63 0 -102 -21q-14 -26 -22.5 -69.5t-8.5 -95.5q0 -70 13 -112.5t44.5 -63t86.5 -20.5q60 0 102 21z" />
    <glyph glyph-name="uni01D2" unicode="&#x1d2;" horiz-adv-x="507" 
d="M121 692l39 9l89 -89h6l87 89l41 -9l-101 -132h-60zM100 53.5q-45 62.5 -45 175.5q0 118 48 184.5t162 66.5q96 0 141.5 -64.5t45.5 -178.5q0 -117 -48 -181.5t-162 -64.5q-97 0 -142 62.5zM361 65q31 55 31 160q0 106 -31.5 153.5t-112.5 47.5q-63 0 -102 -21
q-14 -26 -22.5 -69.5t-8.5 -95.5q0 -70 13 -112.5t44.5 -63t86.5 -20.5q60 0 102 21z" />
    <glyph glyph-name="ocircumflex" unicode="&#xf4;" horiz-adv-x="507" 
d="M122 559l101 132h60l101 -132l-41 -8l-87 88h-6l-89 -88zM100 53.5q-45 62.5 -45 175.5q0 118 48 184.5t162 66.5q96 0 141.5 -64.5t45.5 -178.5q0 -117 -48 -181.5t-162 -64.5q-97 0 -142 62.5zM361 65q31 55 31 160q0 106 -31.5 153.5t-112.5 47.5q-63 0 -102 -21
q-14 -26 -22.5 -69.5t-8.5 -95.5q0 -70 13 -112.5t44.5 -63t86.5 -20.5q60 0 102 21z" />
    <glyph glyph-name="uni1ED1" unicode="&#x1ed1;" horiz-adv-x="532" 
d="M383 648l61 106l58 -11l-81 -103zM126 559l101 132h60l101 -132l-41 -9l-87 89h-6l-89 -89zM100 53.5q-45 62.5 -45 175.5q0 118 48 184.5t162 66.5q96 0 141.5 -64.5t45.5 -178.5q0 -117 -48 -181.5t-162 -64.5q-97 0 -142 62.5zM361 65q31 55 31 160q0 106 -31.5 153.5
t-112.5 47.5q-63 0 -102 -21q-14 -26 -22.5 -69.5t-8.5 -95.5q0 -70 13 -112.5t44.5 -63t86.5 -20.5q60 0 102 21z" />
    <glyph glyph-name="uni1ED9" unicode="&#x1ed9;" horiz-adv-x="507" 
d="M122 559l101 132h60l101 -132l-41 -8l-87 88h-6l-89 -88zM100 53.5q-45 62.5 -45 175.5q0 118 48 184.5t162 66.5q96 0 141.5 -64.5t45.5 -178.5q0 -117 -48 -181.5t-162 -64.5q-97 0 -142 62.5zM361 65q31 55 31 160q0 106 -31.5 153.5t-112.5 47.5q-63 0 -102 -21
q-14 -26 -22.5 -69.5t-8.5 -95.5q0 -70 13 -112.5t44.5 -63t86.5 -20.5q60 0 102 21zM216.5 -151.5q-13.5 12.5 -13.5 34.5q0 24 13 36.5t37 12.5t37 -12.5t13 -36.5q0 -22 -13 -34.5t-37 -12.5q-23 0 -36.5 12.5z" />
    <glyph glyph-name="uni1ED3" unicode="&#x1ed3;" horiz-adv-x="523" 
d="M30 744l59 11l60 -106l-38 -8zM144 560l101 132h59l102 -132l-39 -9l-90 89h-5l-88 -89zM116 53.5q-45 62.5 -45 175.5q0 118 48 184.5t162 66.5q96 0 141.5 -64.5t45.5 -178.5q0 -117 -48 -181.5t-162 -64.5q-97 0 -142 62.5zM377 65q31 55 31 160q0 106 -31.5 153.5
t-112.5 47.5q-63 0 -102 -21q-14 -26 -22.5 -69.5t-8.5 -95.5q0 -70 13 -112.5t44.5 -63t86.5 -20.5q60 0 102 21z" />
    <glyph glyph-name="uni1ED5" unicode="&#x1ed5;" horiz-adv-x="516" 
d="M373 698v24q34 0 47 5.5t13 18.5q0 11 -6.5 16t-22.5 5q-22 0 -40 -7l-9 32q27 10 55 10q63 0 63 -56q0 -51 -62 -53v-34h-29zM123 559l101 132h60l101 -132l-41 -8l-87 88h-6l-89 -88zM101 53.5q-45 62.5 -45 175.5q0 118 48 184.5t162 66.5q96 0 141.5 -64.5
t45.5 -178.5q0 -117 -48 -181.5t-162 -64.5q-97 0 -142 62.5zM362 65q31 55 31 160q0 106 -31.5 153.5t-112.5 47.5q-63 0 -102 -21q-14 -26 -22.5 -69.5t-8.5 -95.5q0 -70 13 -112.5t44.5 -63t86.5 -20.5q60 0 102 21z" />
    <glyph glyph-name="uni1ED7" unicode="&#x1ed7;" horiz-adv-x="507" 
d="M138 753q7 70 66 70q26 0 58 -20q24 -13 35 -13q32 0 40 37l33 -11q-7 -69 -66 -69q-14 0 -25.5 4.5t-26.5 13.5q-12 8 -21 11.5t-19 3.5q-34 0 -40 -37zM124 559l101 132h60l101 -132l-41 -8l-87 88h-6l-89 -88zM100 53.5q-45 62.5 -45 175.5q0 118 48 184.5t162 66.5
q96 0 141.5 -64.5t45.5 -178.5q0 -117 -48 -181.5t-162 -64.5q-97 0 -142 62.5zM361 65q31 55 31 160q0 106 -31.5 153.5t-112.5 47.5q-63 0 -102 -21q-14 -26 -22.5 -69.5t-8.5 -95.5q0 -70 13 -112.5t44.5 -63t86.5 -20.5q60 0 102 21z" />
    <glyph glyph-name="odieresis" unicode="&#xf6;" horiz-adv-x="507" 
d="M145.5 564.5q-10.5 9.5 -10.5 26.5q0 18 10.5 27.5t28.5 9.5t28 -9.5t10 -27.5q0 -17 -10 -26.5t-28 -9.5t-28.5 9.5zM302.5 564.5q-10.5 9.5 -10.5 26.5q0 18 10.5 27.5t29.5 9.5q18 0 28 -9.5t10 -27.5q0 -17 -10 -26.5t-28 -9.5q-19 0 -29.5 9.5zM100 53.5
q-45 62.5 -45 175.5q0 118 48 184.5t162 66.5q96 0 141.5 -64.5t45.5 -178.5q0 -117 -48 -181.5t-162 -64.5q-97 0 -142 62.5zM361 65q31 55 31 160q0 106 -31.5 153.5t-112.5 47.5q-63 0 -102 -21q-14 -26 -22.5 -69.5t-8.5 -95.5q0 -70 13 -112.5t44.5 -63t86.5 -20.5
q60 0 102 21z" />
    <glyph glyph-name="uni1ECD" unicode="&#x1ecd;" horiz-adv-x="507" 
d="M100 53.5q-45 62.5 -45 175.5q0 118 48 184.5t162 66.5q96 0 141.5 -64.5t45.5 -178.5q0 -117 -48 -181.5t-162 -64.5q-97 0 -142 62.5zM361 65q31 55 31 160q0 106 -31.5 153.5t-112.5 47.5q-63 0 -102 -21q-14 -26 -22.5 -69.5t-8.5 -95.5q0 -70 13 -112.5t44.5 -63
t86.5 -20.5q60 0 102 21zM216.5 -151.5q-13.5 12.5 -13.5 34.5q0 24 13 36.5t37 12.5t37 -12.5t13 -36.5q0 -22 -13 -34.5t-37 -12.5q-23 0 -36.5 12.5z" />
    <glyph glyph-name="ograve" unicode="&#xf2;" horiz-adv-x="507" 
d="M133 696l81 8l83 -142l-45 -8zM100 53.5q-45 62.5 -45 175.5q0 118 48 184.5t162 66.5q96 0 141.5 -64.5t45.5 -178.5q0 -117 -48 -181.5t-162 -64.5q-97 0 -142 62.5zM361 65q31 55 31 160q0 106 -31.5 153.5t-112.5 47.5q-63 0 -102 -21q-14 -26 -22.5 -69.5
t-8.5 -95.5q0 -70 13 -112.5t44.5 -63t86.5 -20.5q60 0 102 21z" />
    <glyph glyph-name="uni1ECF" unicode="&#x1ecf;" horiz-adv-x="507" 
d="M225 609v28q51 0 70 6.5t19 29.5q0 18 -10.5 26t-35.5 8q-29 0 -54 -9l-13 37q35 15 76 15q44 0 65 -20.5t21 -55.5q0 -71 -92 -74v-40h-34zM100 53.5q-45 62.5 -45 175.5q0 118 48 184.5t162 66.5q96 0 141.5 -64.5t45.5 -178.5q0 -117 -48 -181.5t-162 -64.5
q-97 0 -142 62.5zM361 65q31 55 31 160q0 106 -31.5 153.5t-112.5 47.5q-63 0 -102 -21q-14 -26 -22.5 -69.5t-8.5 -95.5q0 -70 13 -112.5t44.5 -63t86.5 -20.5q60 0 102 21z" />
    <glyph glyph-name="ohorn" unicode="&#x1a1;" horiz-adv-x="564" 
d="M101 55q-45 62 -45 175q0 118 48 184t162 66q118 0 161 -100h11q26 32 36.5 68t12.5 94h60q-2 -79 -24.5 -128t-78.5 -84q9 -39 9 -92q0 -117 -48 -181t-162 -64q-97 0 -142 62zM362 67q31 55 31 159q0 106 -31.5 153t-112.5 47q-63 0 -102 -21q-14 -26 -22.5 -69
t-8.5 -95q0 -70 13 -112t44 -62.5t87 -20.5q63 0 102 21z" />
    <glyph glyph-name="uni1EDB" unicode="&#x1edb;" horiz-adv-x="564" 
d="M237 559l83 142l81 -8l-119 -142zM101 55q-45 62 -45 175q0 118 48 184t162 66q118 0 161 -100h11q26 32 36.5 68t12.5 94h60q-2 -79 -24.5 -128t-78.5 -84q9 -39 9 -92q0 -117 -48 -181t-162 -64q-97 0 -142 62zM362 67q31 55 31 159q0 106 -31.5 153t-112.5 47
q-63 0 -102 -21q-14 -26 -22.5 -69t-8.5 -95q0 -70 13 -112t44 -62.5t87 -20.5q63 0 102 21z" />
    <glyph glyph-name="uni1EE3" unicode="&#x1ee3;" horiz-adv-x="564" 
d="M101 55q-45 62 -45 175q0 118 48 184t162 66q118 0 161 -100h11q26 32 36.5 68t12.5 94h60q-2 -79 -24.5 -128t-78.5 -84q9 -39 9 -92q0 -117 -48 -181t-162 -64q-97 0 -142 62zM362 67q31 55 31 159q0 106 -31.5 153t-112.5 47q-63 0 -102 -21q-14 -26 -22.5 -69
t-8.5 -95q0 -70 13 -112t44 -62.5t87 -20.5q63 0 102 21zM222.5 -151.5q-13.5 12.5 -13.5 34.5q0 24 13 36.5t37 12.5t37 -12.5t13 -36.5q0 -22 -13 -34.5t-37 -12.5q-23 0 -36.5 12.5z" />
    <glyph glyph-name="uni1EDD" unicode="&#x1edd;" horiz-adv-x="564" 
d="M135 694l81 8l83 -142l-45 -8zM101 55q-45 62 -45 175q0 118 48 184t162 66q118 0 161 -100h11q26 32 36.5 68t12.5 94h60q-2 -79 -24.5 -128t-78.5 -84q9 -39 9 -92q0 -117 -48 -181t-162 -64q-97 0 -142 62zM362 67q31 55 31 159q0 106 -31.5 153t-112.5 47
q-63 0 -102 -21q-14 -26 -22.5 -69t-8.5 -95q0 -70 13 -112t44 -62.5t87 -20.5q63 0 102 21z" />
    <glyph glyph-name="uni1EDF" unicode="&#x1edf;" horiz-adv-x="564" 
d="M226 609v28q51 0 70 6.5t19 29.5q0 18 -10.5 26t-35.5 8q-29 0 -54 -9l-13 37q35 15 76 15q44 0 65 -20.5t21 -55.5q0 -71 -92 -74v-40h-34zM101 55q-45 62 -45 175q0 118 48 184t162 66q118 0 161 -100h11q26 32 36.5 68t12.5 94h60q-2 -79 -24.5 -128t-78.5 -84
q9 -39 9 -92q0 -117 -48 -181t-162 -64q-97 0 -142 62zM362 67q31 55 31 159q0 106 -31.5 153t-112.5 47q-63 0 -102 -21q-14 -26 -22.5 -69t-8.5 -95q0 -70 13 -112t44 -62.5t87 -20.5q63 0 102 21z" />
    <glyph glyph-name="uni1EE1" unicode="&#x1ee1;" horiz-adv-x="564" 
d="M124 563q6 89 78 89q15 0 28.5 -6.5t34.5 -19.5q18 -12 28 -17t21 -5q37 0 44 50l41 -13q-6 -89 -78 -89q-17 0 -31 7t-34 20q-15 11 -25.5 16t-21.5 5q-21 0 -31 -13t-13 -37zM101 55q-45 62 -45 175q0 118 48 184t162 66q118 0 161 -100h11q26 32 36.5 68t12.5 94h60
q-2 -79 -24.5 -128t-78.5 -84q9 -39 9 -92q0 -117 -48 -181t-162 -64q-97 0 -142 62zM362 67q31 55 31 159q0 106 -31.5 153t-112.5 47q-63 0 -102 -21q-14 -26 -22.5 -69t-8.5 -95q0 -70 13 -112t44 -62.5t87 -20.5q63 0 102 21z" />
    <glyph glyph-name="ohungarumlaut" unicode="&#x151;" horiz-adv-x="507" 
d="M141 560q18 33 26.5 64t8.5 67h-54v43q18 7 42 7q60 0 60 -66q0 -32 -12 -64t-34 -59zM306 560q18 33 26.5 64t8.5 67h-54v43q18 7 43 7q30 0 44.5 -16.5t14.5 -49.5q0 -32 -12 -64t-34 -59zM100 53.5q-45 62.5 -45 175.5q0 118 48 184.5t162 66.5q96 0 141.5 -64.5
t45.5 -178.5q0 -117 -48 -181.5t-162 -64.5q-97 0 -142 62.5zM361 65q31 55 31 160q0 106 -31.5 153.5t-112.5 47.5q-63 0 -102 -21q-14 -26 -22.5 -69.5t-8.5 -95.5q0 -70 13 -112.5t44.5 -63t86.5 -20.5q60 0 102 21z" />
    <glyph glyph-name="omacron" unicode="&#x14d;" horiz-adv-x="507" 
d="M112 613h285v-53h-285v53zM100 53.5q-45 62.5 -45 175.5q0 118 48 184.5t162 66.5q96 0 141.5 -64.5t45.5 -178.5q0 -117 -48 -181.5t-162 -64.5q-97 0 -142 62.5zM361 65q31 55 31 160q0 106 -31.5 153.5t-112.5 47.5q-63 0 -102 -21q-14 -26 -22.5 -69.5t-8.5 -95.5
q0 -70 13 -112.5t44.5 -63t86.5 -20.5q60 0 102 21z" />
    <glyph glyph-name="oslash" unicode="&#xf8;" horiz-adv-x="509" 
d="M452 237q0 -117 -48 -181.5t-162 -64.5q-35 0 -64 9l-49 -106l-53 14l53 116q-74 56 -74 205q0 118 48 184.5t162 66.5q38 0 69 -11l37 81l53 -13l-43 -94q71 -58 71 -206zM124 141q9 -39 31 -62l155 338q-26 9 -62 9q-63 0 -102 -21q-14 -26 -22.5 -69.5t-8.5 -95.5
q0 -60 9 -99zM392 225q0 58 -8.5 97.5t-28.5 63.5l-154 -335q24 -7 58 -7q60 0 102 21q31 55 31 160z" />
    <glyph glyph-name="oslashacute" unicode="&#x1ff;" horiz-adv-x="509" 
d="M258 552l-45 8l83 142l81 -8zM452 237q0 -117 -48 -181.5t-162 -64.5q-35 0 -64 9l-49 -106l-53 14l53 116q-74 56 -74 205q0 118 48 184.5t162 66.5q38 0 69 -11l37 81l53 -13l-43 -94q71 -58 71 -206zM124 141q9 -39 31 -62l155 338q-26 9 -62 9q-63 0 -102 -21
q-14 -26 -22.5 -69.5t-8.5 -95.5q0 -60 9 -99zM392 225q0 58 -8.5 97.5t-28.5 63.5l-154 -335q24 -7 58 -7q60 0 102 21q31 55 31 160z" />
    <glyph glyph-name="otilde" unicode="&#xf5;" horiz-adv-x="507" 
d="M116 566q6 89 78 89q15 0 28.5 -6.5t34.5 -19.5q18 -12 28 -17t21 -5q37 0 44 50l41 -13q-6 -89 -78 -89q-17 0 -31 7t-34 20q-15 11 -25.5 16t-21.5 5q-21 0 -31 -13t-13 -37zM100 53.5q-45 62.5 -45 175.5q0 118 48 184.5t162 66.5q96 0 141.5 -64.5t45.5 -178.5
q0 -117 -48 -181.5t-162 -64.5q-97 0 -142 62.5zM361 65q31 55 31 160q0 106 -31.5 153.5t-112.5 47.5q-63 0 -102 -21q-14 -26 -22.5 -69.5t-8.5 -95.5q0 -70 13 -112.5t44.5 -63t86.5 -20.5q60 0 102 21z" />
    <glyph glyph-name="oe" unicode="&#x153;" horiz-adv-x="813" 
d="M100 55q-45 62 -45 175q0 118 48 184t162 66t159 -97h4q24 45 66 69t101 24q80 0 124.5 -49t44.5 -134q0 -10 -2 -34l-51 -51l-260 2q3 -82 38 -122.5t108 -40.5q45 0 76 10t63 30l20 -47q-36 -22 -72.5 -33.5t-89.5 -11.5q-123 0 -169 88h-7q-48 -90 -176 -90
q-97 0 -142 62zM361 67q31 57 31 155q0 73 -13 117t-44.5 65.5t-86.5 21.5q-63 0 -102 -21q-14 -26 -22.5 -69t-8.5 -95q0 -70 13 -112t44 -62.5t87 -20.5q63 0 102 21zM703 259q5 20 5 48q0 54 -29.5 85t-87.5 31q-75 0 -106.5 -41.5t-33.5 -126.5z" />
    <glyph glyph-name="p" unicode="p" horiz-adv-x="524" 
d="M80 468h53l4 -67h8q35 36 73 55.5t84 19.5q86 0 126.5 -61t40.5 -180q0 -107 -42 -173.5t-132 -66.5q-42 0 -81.5 17t-69.5 47h-7l3 -77v-169h-60v655zM377 96q29 48 29 141q0 98 -27.5 142t-95.5 44q-43 0 -80 -23t-62 -58v-231q59 -63 140 -63q67 0 96 48z" />
    <glyph glyph-name="thorn" unicode="&#xfe;" horiz-adv-x="487" 
d="M81 674h63v-250h7q64 42 132 42q81 0 119 -53.5t38 -146.5q0 -92 -39.5 -147.5t-119.5 -55.5q-69 0 -130 40h-7v-283h-63v854zM351.5 158q25.5 37 25.5 108t-25 106.5t-89 35.5q-59 0 -119 -33v-223q30 -16 58 -23.5t61 -7.5q63 0 88.5 37z" />
    <glyph glyph-name="q" unicode="q" horiz-adv-x="518" 
d="M374 -7l4 73h-7q-29 -33 -63.5 -52t-83.5 -19q-87 0 -129 63t-42 162q0 125 57 191t167 66q69 0 157 -26v-644h-60v186zM314.5 67q34.5 19 59.5 52v293q-50 12 -98 12q-83 0 -121.5 -47t-38.5 -154q0 -87 30 -131t94 -44q40 0 74.5 19z" />
    <glyph glyph-name="r" unicode="r" horiz-adv-x="360" 
d="M80 466h49l5 -90h9q23 44 64.5 70t88.5 26q7 0 17.5 -7.5t14.5 -14.5l-7 -47h-41q-51 0 -87.5 -23t-52.5 -65v-315h-60v466z" />
    <glyph glyph-name="racute" unicode="&#x155;" horiz-adv-x="364" 
d="M155 560l83 142l81 -8l-119 -142zM80 466h49l5 -90h9q23 44 64.5 70t88.5 26q7 0 17.5 -7.5t14.5 -14.5l-7 -47h-41q-51 0 -87.5 -23t-52.5 -65v-315h-60v466z" />
    <glyph glyph-name="rcaron" unicode="&#x159;" horiz-adv-x="363" 
d="M72 692l39 9l89 -89h6l87 89l41 -9l-101 -132h-60zM80 466h49l5 -90h9q23 44 64.5 70t88.5 26q7 0 17.5 -7.5t14.5 -14.5l-7 -47h-41q-51 0 -87.5 -23t-52.5 -65v-315h-60v466z" />
    <glyph glyph-name="rcommaaccent" unicode="&#x157;" horiz-adv-x="365" 
d="M81 466h49l5 -90h9q23 44 64.5 70t88.5 26q7 0 17.5 -7.5t14.5 -14.5l-7 -47h-41q-51 0 -87.5 -23t-52.5 -65v-315h-60v466zM92 -238q17 32 26 62.5t9 67.5h-54v43q18 7 43 7q61 0 61 -66q0 -32 -12.5 -63.5t-34.5 -59.5z" />
    <glyph glyph-name="uni1E5B" unicode="&#x1e5b;" horiz-adv-x="378" 
d="M93 466h49l5 -90h9q23 44 64.5 70t88.5 26q7 0 17.5 -7.5t14.5 -14.5l-7 -47h-41q-51 0 -87.5 -23t-52.5 -65v-315h-60v466zM87.5 -146.5q-13.5 12.5 -13.5 34.5q0 24 13 36.5t37 12.5t37 -12.5t13 -36.5q0 -22 -13 -34.5t-37 -12.5q-23 0 -36.5 12.5z" />
    <glyph glyph-name="uni1E5D" unicode="&#x1e5d;" horiz-adv-x="398" 
d="M96 613h285v-53h-285v53zM94 466h49l5 -90h9q23 44 64.5 70t88.5 26q7 0 17.5 -7.5t14.5 -14.5l-7 -47h-41q-51 0 -87.5 -23t-52.5 -65v-315h-60v466zM87.5 -146.5q-13.5 12.5 -13.5 34.5q0 24 13 36.5t37 12.5t37 -12.5t13 -36.5q0 -22 -13 -34.5t-37 -12.5
q-23 0 -36.5 12.5z" />
    <glyph glyph-name="uni1E5F" unicode="&#x1e5f;" horiz-adv-x="378" 
d="M83 466h49l5 -90h9q23 44 64.5 70t88.5 26q7 0 17.5 -7.5t14.5 -14.5l-7 -47h-41q-51 0 -87.5 -23t-52.5 -65v-315h-60v466zM78 -71h305v-57h-305v57z" />
    <glyph glyph-name="s" unicode="s" horiz-adv-x="419" 
d="M49 25l19 49q66 -32 142 -32q52 0 89 12q12 29 12 64q0 29 -8 44.5t-28.5 25.5t-62.5 19q-80 18 -119.5 47t-39.5 87q0 57 41.5 96t125.5 39q75 0 128 -29v-25q0 -31 -12 -64h-40l-7 64q-33 5 -73 5q-57 0 -81 -17.5t-24 -57.5q0 -26 10 -42t34.5 -27.5t70.5 -22.5
q52 -12 82.5 -27t45.5 -39.5t15 -64.5q0 -58 -39.5 -98t-126.5 -40t-154 34z" />
    <glyph glyph-name="sacute" unicode="&#x15b;" horiz-adv-x="419" 
d="M170 559l83 143l81 -9l-119 -141zM49 25l19 49q66 -32 142 -32q52 0 89 12q12 29 12 64q0 29 -8 44.5t-28.5 25.5t-62.5 19q-80 18 -119.5 47t-39.5 87q0 57 41.5 96t125.5 39q75 0 128 -29v-25q0 -31 -12 -64h-40l-7 64q-33 5 -73 5q-57 0 -81 -17.5t-24 -57.5
q0 -26 10 -42t34.5 -27.5t70.5 -22.5q52 -12 82.5 -27t45.5 -39.5t15 -64.5q0 -58 -39.5 -98t-126.5 -40t-154 34z" />
    <glyph glyph-name="scaron" unicode="&#x161;" horiz-adv-x="419" 
d="M75 692l39 9l89 -89h6l87 89l41 -9l-101 -132h-60zM49 25l19 49q66 -32 142 -32q52 0 89 12q12 29 12 64q0 29 -8 44.5t-28.5 25.5t-62.5 19q-80 18 -119.5 47t-39.5 87q0 57 41.5 96t125.5 39q75 0 128 -29v-25q0 -31 -12 -64h-40l-7 64q-33 5 -73 5q-57 0 -81 -17.5
t-24 -57.5q0 -26 10 -42t34.5 -27.5t70.5 -22.5q52 -12 82.5 -27t45.5 -39.5t15 -64.5q0 -58 -39.5 -98t-126.5 -40t-154 34z" />
    <glyph glyph-name="scedilla" unicode="&#x15f;" horiz-adv-x="419" 
d="M128 -200l14 40q30 -12 69 -12q24 0 49 5q6 15 6 33q0 19 -11 28t-35 9q-26 0 -43 -7l-37 36l49 60q-85 3 -140 33l19 49q66 -32 142 -32q52 0 89 12q12 29 12 64q0 29 -8 44.5t-28.5 25.5t-62.5 19q-80 18 -119.5 47t-39.5 87q0 57 41.5 96t125.5 39q75 0 128 -29v-25
q0 -31 -12 -64h-40l-7 64q-33 5 -73 5q-57 0 -81 -17.5t-24 -57.5q0 -26 10 -42t34.5 -27.5t70.5 -22.5q52 -12 82.5 -27t45.5 -39.5t15 -64.5q0 -51 -31 -89.5t-98 -46.5l-42 -57q19 8 45 8q75 0 75 -74q0 -86 -106 -86q-47 0 -84 16z" />
    <glyph glyph-name="scircumflex" unicode="&#x15d;" horiz-adv-x="419" 
d="M79 559l101 132h60l101 -132l-41 -8l-87 88h-6l-89 -88zM49 25l19 49q66 -32 142 -32q52 0 89 12q12 29 12 64q0 29 -8 44.5t-28.5 25.5t-62.5 19q-80 18 -119.5 47t-39.5 87q0 57 41.5 96t125.5 39q75 0 128 -29v-25q0 -31 -12 -64h-40l-7 64q-33 5 -73 5
q-57 0 -81 -17.5t-24 -57.5q0 -26 10 -42t34.5 -27.5t70.5 -22.5q52 -12 82.5 -27t45.5 -39.5t15 -64.5q0 -58 -39.5 -98t-126.5 -40t-154 34z" />
    <glyph glyph-name="scommaaccent" unicode="&#x219;" horiz-adv-x="419" 
d="M49 25l19 49q66 -32 142 -32q52 0 89 12q12 29 12 64q0 29 -8 44.5t-28.5 25.5t-62.5 19q-80 18 -119.5 47t-39.5 87q0 57 41.5 96t125.5 39q75 0 128 -29v-25q0 -31 -12 -64h-40l-7 64q-33 5 -73 5q-57 0 -81 -17.5t-24 -57.5q0 -26 10 -42t34.5 -27.5t70.5 -22.5
q52 -12 82.5 -27t45.5 -39.5t15 -64.5q0 -58 -39.5 -98t-126.5 -40t-154 34zM187 -238q17 32 26 62.5t9 67.5h-54v43q18 7 43 7q61 0 61 -66q0 -32 -12.5 -63.5t-34.5 -59.5z" />
    <glyph glyph-name="uni1E61" unicode="&#x1e61;" horiz-adv-x="419" 
d="M173.5 567.5q-13.5 12.5 -13.5 34.5q0 24 13 36.5t37 12.5t37 -12.5t13 -36.5q0 -22 -13 -34.5t-37 -12.5q-23 0 -36.5 12.5zM49 25l19 49q66 -32 142 -32q52 0 89 12q12 29 12 64q0 29 -8 44.5t-28.5 25.5t-62.5 19q-80 18 -119.5 47t-39.5 87q0 57 41.5 96t125.5 39
q75 0 128 -29v-25q0 -31 -12 -64h-40l-7 64q-33 5 -73 5q-57 0 -81 -17.5t-24 -57.5q0 -26 10 -42t34.5 -27.5t70.5 -22.5q52 -12 82.5 -27t45.5 -39.5t15 -64.5q0 -58 -39.5 -98t-126.5 -40t-154 34z" />
    <glyph glyph-name="uni1E63" unicode="&#x1e63;" horiz-adv-x="419" 
d="M49 25l19 49q66 -32 142 -32q52 0 89 12q12 29 12 64q0 29 -8 44.5t-28.5 25.5t-62.5 19q-80 18 -119.5 47t-39.5 87q0 57 41.5 96t125.5 39q75 0 128 -29v-25q0 -31 -12 -64h-40l-7 64q-33 5 -73 5q-57 0 -81 -17.5t-24 -57.5q0 -26 10 -42t34.5 -27.5t70.5 -22.5
q52 -12 82.5 -27t45.5 -39.5t15 -64.5q0 -58 -39.5 -98t-126.5 -40t-154 34zM182.5 -146.5q-13.5 12.5 -13.5 34.5q0 24 13 36.5t37 12.5t37 -12.5t13 -36.5q0 -22 -13 -34.5t-37 -12.5q-23 0 -36.5 12.5z" />
    <glyph glyph-name="germandbls" unicode="&#xdf;" horiz-adv-x="541" 
d="M211 3l10 54q35 -10 75 -10q30 0 50 1.5t37 8.5q25 50 25 118q0 141 -166 147v57q66 0 97 31.5t31 87.5q0 107 -120 107q-59 0 -110 -13v-592h-62v514q0 75 48.5 111.5t132.5 36.5q80 0 126.5 -43t46.5 -117q0 -57 -26 -91t-83 -53v-6q77 -18 111.5 -62.5t34.5 -113.5
q0 -89 -43.5 -137t-131.5 -48q-42 0 -83 12z" />
    <glyph glyph-name="uni0259" unicode="&#x259;" horiz-adv-x="483" 
d="M98 44q-44 49 -44 135q0 10 2 32l51 51l261 -2q-2 81 -37.5 122t-108.5 41q-44 0 -75.5 -10t-64.5 -30l-20 48q37 22 73.5 33.5t89.5 11.5q201 0 201 -237q0 -115 -51.5 -179.5t-150.5 -64.5q-82 0 -126 49zM333 88.5q31 41.5 35 127.5l-252 -5q-6 -24 -6 -47
q0 -54 30 -85.5t88 -31.5q74 0 105 41.5z" />
    <glyph glyph-name="t" unicode="t" horiz-adv-x="366" 
d="M178 1q-69 38 -69 93v323h-82l8 51h74v128h58v-128h156l-8 -51h-148v-310q0 -26 9 -50q28 -9 56 -9q18 0 41.5 5.5t42.5 13.5l17 -50q-17 -9 -43 -16t-48 -7q-37 0 -64 7z" />
    <glyph glyph-name="tbar" unicode="&#x167;" horiz-adv-x="366" 
d="M178 0q-69 36 -69 93v145h-77v51h77v120h-82l8 51h74v134h58v-134h156l-8 -51h-148v-120h111v-51h-111v-132q0 -16 2 -26.5t7 -23.5q28 -9 56 -9q18 0 41.5 5.5t42.5 13.5l17 -50q-18 -9 -43.5 -16.5t-47.5 -7.5q-34 0 -64 8z" />
    <glyph glyph-name="tcaron" unicode="&#x165;" horiz-adv-x="366" 
d="M37 826l39 9l89 -89h6l87 89l41 -9l-101 -132h-60zM178 1q-69 38 -69 93v315h-82l8 51h74v134h58v-134h156l-8 -51h-148v-302q0 -26 9 -50q28 -9 56 -9q18 0 41.5 5.5t42.5 13.5l17 -50q-17 -9 -43 -16t-48 -7q-37 0 -64 7z" />
    <glyph glyph-name="uni0163" unicode="&#x163;" horiz-adv-x="366" 
d="M107 -200l15 40q30 -12 68 -12q25 0 50 5q5 17 5 33q0 19 -11 28t-35 9q-26 0 -43 -7l-36 36l58 70q-5 3 -26 15.5t-32 31t-11 45.5v315h-82l8 51h74v134h58v-134h156l-8 -51h-148v-302q0 -26 9 -50q28 -9 56 -9q18 0 41.5 5.5t42.5 13.5l17 -50q-17 -9 -43 -16t-48 -7
q-15 0 -22 1l-43 -59q19 8 45 8q75 0 75 -74q0 -86 -106 -86q-47 0 -84 16z" />
    <glyph glyph-name="uni021B" unicode="&#x21b;" horiz-adv-x="366" 
d="M178 1q-69 38 -69 93v315h-82l8 51h74v134h58v-134h156l-8 -51h-148v-302q0 -26 9 -50q28 -9 56 -9q18 0 41.5 5.5t42.5 13.5l17 -50q-17 -9 -43 -16t-48 -7q-37 0 -64 7zM181 -238q17 32 26 62.5t9 67.5h-54v43q18 7 43 7q61 0 61 -66q0 -32 -12.5 -63.5t-34.5 -59.5z
" />
    <glyph glyph-name="uni1E97" unicode="&#x1e97;" horiz-adv-x="369" 
d="M35.5 711q-10.5 10 -10.5 27q0 18 10.5 27.5t28.5 9.5t28 -9.5t10 -27.5q0 -17 -10 -27t-28 -10t-28.5 10zM192.5 711q-10.5 10 -10.5 27q0 18 10.5 27.5t29.5 9.5q18 0 28 -9.5t10 -27.5q0 -17 -10 -27t-28 -10q-19 0 -29.5 10zM177 1q-69 38 -69 93v315h-82l8 51h74
v134h58v-134h156l-8 -51h-148v-302q0 -26 9 -50q29 -9 56 -9q18 0 41.5 5.5t42.5 13.5l17 -50q-17 -9 -43 -16t-48 -7q-37 0 -64 7z" />
    <glyph glyph-name="uni1E6D" unicode="&#x1e6d;" horiz-adv-x="366" 
d="M178 1q-69 38 -69 93v315h-82l8 51h74v134h58v-134h156l-8 -51h-148v-302q0 -26 9 -50q28 -9 56 -9q18 0 41.5 5.5t42.5 13.5l17 -50q-17 -9 -43 -16t-48 -7q-37 0 -64 7zM170.5 -151.5q-13.5 12.5 -13.5 34.5q0 24 13 36.5t37 12.5t37 -12.5t13 -36.5q0 -22 -13 -34.5
t-37 -12.5q-23 0 -36.5 12.5z" />
    <glyph glyph-name="uni1E6F" unicode="&#x1e6f;" horiz-adv-x="375" 
d="M178 1q-69 38 -69 93v315h-82l8 51h74v134h58v-134h156l-8 -51h-148v-302q0 -26 9 -50q28 -9 56 -9q18 0 41.5 5.5t42.5 13.5l17 -50q-17 -9 -43 -16t-48 -7q-37 0 -64 7zM61 -71h305v-57h-305v57z" />
    <glyph glyph-name="u" unicode="u" horiz-adv-x="511" 
d="M105.5 16.5q-30.5 25.5 -30.5 83.5v368h60v-412q36 -11 74 -11q50 0 91.5 19.5t70.5 52.5v351h60v-468h-51l-4 72h-8q-37 -40 -77 -60.5t-92 -20.5q-63 0 -93.5 25.5z" />
    <glyph glyph-name="uacute" unicode="&#xfa;" horiz-adv-x="511" 
d="M215 559l83 142l81 -8l-119 -142zM104.5 16.5q-30.5 25.5 -30.5 83.5v368h60v-412q36 -11 74 -11q50 0 91.5 19.5t70.5 52.5v351h60v-468h-51l-4 72h-8q-37 -40 -77 -60.5t-92 -20.5q-63 0 -93.5 25.5z" />
    <glyph glyph-name="ubreve" unicode="&#x16d;" horiz-adv-x="511" 
d="M167 583q-31 28 -39 78l59 9q4 -33 18.5 -49.5t50.5 -16.5q35 0 49.5 16.5t18.5 49.5l59 -9q-8 -49 -39 -77.5t-88 -28.5q-58 0 -89 28zM104.5 16.5q-30.5 25.5 -30.5 83.5v368h60v-412q36 -11 74 -11q50 0 91.5 19.5t70.5 52.5v351h60v-468h-51l-4 72h-8
q-37 -40 -77 -60.5t-92 -20.5q-63 0 -93.5 25.5z" />
    <glyph glyph-name="uni01D4" unicode="&#x1d4;" horiz-adv-x="511" 
d="M124 692l39 9l89 -89h6l87 89l41 -9l-101 -132h-60zM104.5 16.5q-30.5 25.5 -30.5 83.5v368h60v-412q36 -11 74 -11q50 0 91.5 19.5t70.5 52.5v351h60v-468h-51l-4 72h-8q-37 -40 -77 -60.5t-92 -20.5q-63 0 -93.5 25.5z" />
    <glyph glyph-name="ucircumflex" unicode="&#xfb;" horiz-adv-x="511" 
d="M121 560l101 132h60l101 -132l-41 -9l-87 89h-6l-89 -89zM104.5 16.5q-30.5 25.5 -30.5 83.5v368h60v-412q36 -11 74 -11q50 0 91.5 19.5t70.5 52.5v351h60v-468h-51l-4 72h-8q-37 -40 -77 -60.5t-92 -20.5q-63 0 -93.5 25.5z" />
    <glyph glyph-name="udieresis" unicode="&#xfc;" horiz-adv-x="511" 
d="M148.5 564.5q-10.5 9.5 -10.5 26.5q0 18 10.5 27.5t28.5 9.5t28 -9.5t10 -27.5q0 -17 -10 -26.5t-28 -9.5t-28.5 9.5zM305.5 564.5q-10.5 9.5 -10.5 26.5q0 18 10.5 27.5t29.5 9.5q18 0 28 -9.5t10 -27.5q0 -17 -10 -26.5t-28 -9.5q-19 0 -29.5 9.5zM104.5 16.5
q-30.5 25.5 -30.5 83.5v368h60v-412q36 -11 74 -11q50 0 91.5 19.5t70.5 52.5v351h60v-468h-51l-4 72h-8q-37 -40 -77 -60.5t-92 -20.5q-63 0 -93.5 25.5z" />
    <glyph glyph-name="uni01D8" unicode="&#x1d8;" horiz-adv-x="511" 
d="M231 705l74 128l78 -10l-107 -125zM148.5 564.5q-10.5 9.5 -10.5 26.5q0 18 10.5 27.5t28.5 9.5t28 -9.5t10 -27.5q0 -17 -10 -26.5t-28 -9.5t-28.5 9.5zM305.5 564.5q-10.5 9.5 -10.5 26.5q0 18 10.5 27.5t29.5 9.5q18 0 28 -9.5t10 -27.5q0 -17 -10 -26.5t-28 -9.5
q-19 0 -29.5 9.5zM104.5 16.5q-30.5 25.5 -30.5 83.5v368h60v-412q36 -11 74 -11q50 0 91.5 19.5t70.5 52.5v351h60v-468h-51l-4 72h-8q-37 -40 -77 -60.5t-92 -20.5q-63 0 -93.5 25.5z" />
    <glyph glyph-name="uni01DA" unicode="&#x1da;" horiz-adv-x="511" 
d="M130 817l39 9l84 -84h6l83 84l40 -9l-96 -126h-60zM147.5 564.5q-10.5 9.5 -10.5 26.5q0 18 10.5 27.5t28.5 9.5t28 -9.5t10 -27.5q0 -17 -10 -26.5t-28 -9.5t-28.5 9.5zM304.5 564.5q-10.5 9.5 -10.5 26.5q0 18 10.5 27.5t29.5 9.5q18 0 28 -9.5t10 -27.5
q0 -17 -10 -26.5t-28 -9.5q-19 0 -29.5 9.5zM104.5 16.5q-30.5 25.5 -30.5 83.5v368h60v-412q36 -11 74 -11q50 0 91.5 19.5t70.5 52.5v351h60v-468h-51l-4 72h-8q-37 -40 -77 -60.5t-92 -20.5q-63 0 -93.5 25.5z" />
    <glyph glyph-name="uni01DC" unicode="&#x1dc;" horiz-adv-x="511" 
d="M131 823l77 9l75 -127l-46 -8zM147.5 564.5q-10.5 9.5 -10.5 26.5q0 18 10 27.5t28 9.5q19 0 29 -9.5t10 -27.5q0 -17 -10 -26.5t-29 -9.5q-17 0 -27.5 9.5zM305.5 564.5q-10.5 9.5 -10.5 26.5q0 18 10.5 27.5t28.5 9.5t28 -9.5t10 -27.5q0 -17 -10 -26.5t-28 -9.5
t-28.5 9.5zM104.5 16.5q-30.5 25.5 -30.5 83.5v368h60v-412q36 -11 74 -11q50 0 91.5 19.5t70.5 52.5v351h60v-468h-51l-4 72h-8q-37 -40 -77 -60.5t-92 -20.5q-63 0 -93.5 25.5z" />
    <glyph glyph-name="uni01D6" unicode="&#x1d6;" horiz-adv-x="511" 
d="M112 745h285v-52h-285v52zM147.5 564.5q-10.5 9.5 -10.5 26.5q0 18 10.5 27.5t28.5 9.5t28 -9.5t10 -27.5q0 -17 -10 -26.5t-28 -9.5t-28.5 9.5zM304.5 564.5q-10.5 9.5 -10.5 26.5q0 18 10.5 27.5t29.5 9.5q18 0 28 -9.5t10 -27.5q0 -17 -10 -26.5t-28 -9.5
q-19 0 -29.5 9.5zM104.5 16.5q-30.5 25.5 -30.5 83.5v368h60v-412q36 -11 74 -11q50 0 91.5 19.5t70.5 52.5v351h60v-468h-51l-4 72h-8q-37 -40 -77 -60.5t-92 -20.5q-63 0 -93.5 25.5z" />
    <glyph glyph-name="uni1EE5" unicode="&#x1ee5;" horiz-adv-x="511" 
d="M104.5 16.5q-30.5 25.5 -30.5 83.5v368h60v-412q36 -11 74 -11q50 0 91.5 19.5t70.5 52.5v351h60v-468h-51l-4 72h-8q-37 -40 -77 -60.5t-92 -20.5q-63 0 -93.5 25.5zM219.5 -151.5q-13.5 12.5 -13.5 34.5q0 24 13 36.5t37 12.5t37 -12.5t13 -36.5q0 -22 -13 -34.5
t-37 -12.5q-23 0 -36.5 12.5z" />
    <glyph glyph-name="ugrave" unicode="&#xf9;" horiz-adv-x="511" 
d="M130 695l81 8l83 -142l-45 -8zM104.5 16.5q-30.5 25.5 -30.5 83.5v368h60v-412q36 -11 74 -11q50 0 91.5 19.5t70.5 52.5v351h60v-468h-51l-4 72h-8q-37 -40 -77 -60.5t-92 -20.5q-63 0 -93.5 25.5z" />
    <glyph glyph-name="uni1EE7" unicode="&#x1ee7;" horiz-adv-x="511" 
d="M223 609v28q51 0 70 6.5t19 29.5q0 18 -10.5 26t-35.5 8q-28 0 -54 -9l-13 37q35 15 76 15q44 0 65 -20.5t21 -55.5q0 -71 -92 -74v-40h-34zM104.5 16.5q-30.5 25.5 -30.5 83.5v368h60v-412q36 -11 74 -11q50 0 91.5 19.5t70.5 52.5v351h60v-468h-51l-4 72h-8
q-37 -40 -77 -60.5t-92 -20.5q-63 0 -93.5 25.5z" />
    <glyph glyph-name="uhorn" unicode="&#x1b0;" horiz-adv-x="611" 
d="M104.5 19q-30.5 25 -30.5 84v365h60v-409q36 -11 74 -11q49 0 91 18.5t71 50.5v351h60v-90h9q51 23 74 58t24 106h60q0 -86 -39.5 -136t-127.5 -81v-325h-51l-4 72h-8q-38 -39 -78.5 -58.5t-90.5 -19.5q-63 0 -93.5 25z" />
    <glyph glyph-name="uni1EE9" unicode="&#x1ee9;" horiz-adv-x="611" 
d="M219 559l83 143l81 -9l-119 -141zM104.5 19q-30.5 25 -30.5 84v365h60v-409q36 -11 74 -11q49 0 91 18.5t71 50.5v351h60v-90h9q51 23 74 58t24 106h60q0 -86 -39.5 -136t-127.5 -81v-325h-51l-4 72h-8q-38 -39 -78.5 -58.5t-90.5 -19.5q-63 0 -93.5 25z" />
    <glyph glyph-name="uni1EF1" unicode="&#x1ef1;" horiz-adv-x="611" 
d="M104.5 19q-30.5 25 -30.5 84v365h60v-409q36 -11 74 -11q49 0 91 18.5t71 50.5v351h60v-90h9q51 23 74 58t24 106h60q0 -86 -39.5 -136t-127.5 -81v-325h-51l-4 72h-8q-38 -39 -78.5 -58.5t-90.5 -19.5q-63 0 -93.5 25zM214.5 -151.5q-13.5 12.5 -13.5 34.5q0 24 13 36.5
t37 12.5t37 -12.5t13 -36.5q0 -22 -13 -34.5t-37 -12.5q-23 0 -36.5 12.5z" />
    <glyph glyph-name="uni1EEB" unicode="&#x1eeb;" horiz-adv-x="611" 
d="M128 694l81 8l83 -142l-45 -8zM104.5 19q-30.5 25 -30.5 84v365h60v-409q36 -11 74 -11q49 0 91 18.5t71 50.5v351h60v-90h9q51 23 74 58t24 106h60q0 -86 -39.5 -136t-127.5 -81v-325h-51l-4 72h-8q-38 -39 -78.5 -58.5t-90.5 -19.5q-63 0 -93.5 25z" />
    <glyph glyph-name="uni1EED" unicode="&#x1eed;" horiz-adv-x="611" 
d="M223 609v28q51 0 70 6.5t19 29.5q0 18 -10.5 26t-35.5 8q-28 0 -54 -9l-13 37q35 15 76 15q44 0 65 -20.5t21 -55.5q0 -71 -92 -74v-40h-34zM104.5 19q-30.5 25 -30.5 84v365h60v-409q36 -11 74 -11q49 0 91 18.5t71 50.5v351h60v-90h9q51 23 74 58t24 106h60
q0 -86 -39.5 -136t-127.5 -81v-325h-51l-4 72h-8q-38 -39 -78.5 -58.5t-90.5 -19.5q-63 0 -93.5 25z" />
    <glyph glyph-name="uni1EEF" unicode="&#x1eef;" horiz-adv-x="611" 
d="M114 563q6 89 78 89q15 0 28.5 -6.5t34.5 -19.5q18 -12 28 -17t21 -5q37 0 44 50l41 -13q-6 -89 -78 -89q-17 0 -31 7t-34 20q-15 11 -25.5 16t-21.5 5q-21 0 -31 -13t-13 -37zM104.5 19q-30.5 25 -30.5 84v365h60v-409q36 -11 74 -11q49 0 91 18.5t71 50.5v351h60v-90h9
q51 23 74 58t24 106h60q0 -86 -39.5 -136t-127.5 -81v-325h-51l-4 72h-8q-38 -39 -78.5 -58.5t-90.5 -19.5q-63 0 -93.5 25z" />
    <glyph glyph-name="uhungarumlaut" unicode="&#x171;" horiz-adv-x="511" 
d="M141 559q18 33 26.5 64t8.5 67h-54v43q18 7 42 7q60 0 60 -66q0 -32 -12 -64t-34 -59zM306 559q18 33 26.5 64t8.5 67h-54v43q18 7 43 7q30 0 44.5 -16.5t14.5 -49.5q0 -32 -12 -64t-34 -59zM104.5 16.5q-30.5 25.5 -30.5 83.5v368h60v-412q36 -11 74 -11q50 0 91.5 19.5
t70.5 52.5v351h60v-468h-51l-4 72h-8q-37 -40 -77 -60.5t-92 -20.5q-63 0 -93.5 25.5z" />
    <glyph glyph-name="umacron" unicode="&#x16b;" horiz-adv-x="511" 
d="M113 613h285v-53h-285v53zM104.5 16.5q-30.5 25.5 -30.5 83.5v368h60v-412q36 -11 74 -11q50 0 91.5 19.5t70.5 52.5v351h60v-468h-51l-4 72h-8q-37 -40 -77 -60.5t-92 -20.5q-63 0 -93.5 25.5z" />
    <glyph glyph-name="uogonek" unicode="&#x173;" horiz-adv-x="511" 
d="M449 -155q-25 -11 -60 -11q-43 0 -67 20.5t-24 57.5q0 35 20.5 58t59.5 40l-3 62h-8q-37 -40 -77 -60.5t-92 -20.5q-63 0 -93.5 25.5t-30.5 83.5v368h60v-412q36 -11 74 -11q50 0 91.5 19.5t70.5 52.5v351h60v-468h-14q-36 -20 -49.5 -39t-13.5 -46q0 -18 6 -30
q16 -4 39 -4q22 0 41 5z" />
    <glyph glyph-name="uring" unicode="&#x16f;" horiz-adv-x="511" 
d="M172 574q-27 22 -27 64q0 39 31.5 66.5t85.5 27.5q49 0 76 -23t27 -66q0 -38 -32 -64.5t-86 -26.5q-48 0 -75 22zM313 598q7 26 7 44q0 24 -15.5 37.5t-44.5 13.5q-41 0 -63 -7q-7 -21 -7 -46q0 -23 15.5 -36t44.5 -13q42 0 63 7zM104.5 16.5q-30.5 25.5 -30.5 83.5v368
h60v-412q36 -11 74 -11q50 0 91.5 19.5t70.5 52.5v351h60v-468h-51l-4 72h-8q-37 -40 -77 -60.5t-92 -20.5q-63 0 -93.5 25.5z" />
    <glyph glyph-name="utilde" unicode="&#x169;" horiz-adv-x="511" 
d="M118 566q6 89 78 89q15 0 28.5 -6.5t34.5 -19.5q18 -12 28 -17t21 -5q37 0 44 50l41 -13q-6 -89 -78 -89q-17 0 -31 7t-34 20q-15 11 -25.5 16t-21.5 5q-21 0 -31 -13t-13 -37zM104.5 16.5q-30.5 25.5 -30.5 83.5v368h60v-412q36 -11 74 -11q50 0 91.5 19.5t70.5 52.5
v351h60v-468h-51l-4 72h-8q-37 -40 -77 -60.5t-92 -20.5q-63 0 -93.5 25.5z" />
    <glyph glyph-name="v" unicode="v" horiz-adv-x="469" 
d="M32 465l61 6q73 -258 137 -414h9q67 164 138 414l59 -6q-77 -254 -166 -465h-74q-85 198 -164 465z" />
    <glyph glyph-name="w" unicode="w" horiz-adv-x="705" 
d="M40 465l59 6q66 -276 111 -411h8q67 169 110 313q-4 16 -19 86l54 6q50 -219 117 -408h9q52 138 125 416l58 -7q-45 -157 -77.5 -261.5t-71.5 -204.5h-76q-58 156 -94 284h-5q-20 -60 -84 -236l-18 -48h-69q-78 218 -137 465z" />
    <glyph glyph-name="wacute" unicode="&#x1e83;" horiz-adv-x="705" 
d="M321 559l83 143l81 -9l-119 -141zM40 465l59 6q66 -276 111 -411h8q67 169 110 313q-4 16 -19 86l54 6q50 -219 117 -408h9q52 138 125 416l58 -7q-45 -157 -77.5 -261.5t-71.5 -204.5h-76q-58 156 -94 284h-5q-20 -60 -84 -236l-18 -48h-69q-78 218 -137 465z" />
    <glyph glyph-name="wcircumflex" unicode="&#x175;" horiz-adv-x="705" 
d="M219 559l101 132h60l101 -132l-41 -8l-87 88h-6l-89 -88zM40 465l59 6q66 -276 111 -411h8q67 169 110 313q-4 16 -19 86l54 6q50 -219 117 -408h9q52 138 125 416l58 -7q-45 -157 -77.5 -261.5t-71.5 -204.5h-76q-58 156 -94 284h-5q-20 -60 -84 -236l-18 -48h-69
q-78 218 -137 465z" />
    <glyph glyph-name="wdieresis" unicode="&#x1e85;" horiz-adv-x="705" 
d="M242.5 564.5q-10.5 9.5 -10.5 26.5q0 18 10.5 27.5t28.5 9.5t28 -9.5t10 -27.5q0 -17 -10 -26.5t-28 -9.5t-28.5 9.5zM399.5 564.5q-10.5 9.5 -10.5 26.5q0 18 10.5 27.5t29.5 9.5q18 0 28 -9.5t10 -27.5q0 -17 -10 -26.5t-28 -9.5q-19 0 -29.5 9.5zM40 465l59 6
q66 -276 111 -411h8q67 169 110 313q-4 16 -19 86l54 6q50 -219 117 -408h9q52 138 125 416l58 -7q-45 -157 -77.5 -261.5t-71.5 -204.5h-76q-58 156 -94 284h-5q-20 -60 -84 -236l-18 -48h-69q-78 218 -137 465z" />
    <glyph glyph-name="wgrave" unicode="&#x1e81;" horiz-adv-x="705" 
d="M228 693l81 9l83 -143l-45 -7zM40 465l59 6q66 -276 111 -411h8q67 169 110 313q-4 16 -19 86l54 6q50 -219 117 -408h9q52 138 125 416l58 -7q-45 -157 -77.5 -261.5t-71.5 -204.5h-76q-58 156 -94 284h-5q-20 -60 -84 -236l-18 -48h-69q-78 218 -137 465z" />
    <glyph glyph-name="x" unicode="x" horiz-adv-x="479" 
d="M34 5q59 105 147 228q-84 120 -144 228l62 11q64 -121 127 -212h25q79 107 133 212l59 -10q-59 -106 -147 -225q79 -115 143 -232l-60 -12q-45 88 -128 216h-25q-88 -129 -133 -216z" />
    <glyph glyph-name="y" unicode="y" horiz-adv-x="488" 
d="M58 -172v25q0 32 9 59h44v-47q18 -3 42 -3q16 0 44 4q22 53 59 156h-67q-52 127 -87 228.5t-66 215.5l60 6q55 -208 128 -397h50q63 189 111 397l61 -6q-40 -162 -88 -313.5t-96 -266.5q-16 -37 -49 -56t-73 -19q-48 0 -82 17z" />
    <glyph glyph-name="yacute" unicode="&#xfd;" horiz-adv-x="488" 
d="M215 561l83 142l81 -8l-119 -142zM58 -172v25q0 32 9 59h44v-47q18 -3 42 -3q16 0 44 4q22 53 59 156h-67q-52 127 -87 228.5t-66 215.5l60 6q55 -208 128 -397h50q63 189 111 397l61 -6q-40 -162 -88 -313.5t-96 -266.5q-16 -37 -49 -56t-73 -19q-48 0 -82 17z" />
    <glyph glyph-name="ycircumflex" unicode="&#x177;" horiz-adv-x="488" 
d="M117 559l101 132h60l101 -132l-41 -8l-87 88h-6l-89 -88zM58 -172v25q0 32 9 59h44v-47q18 -3 42 -3q16 0 44 4q22 53 59 156h-67q-52 127 -87 228.5t-66 215.5l60 6q55 -208 128 -397h50q63 189 111 397l61 -6q-40 -162 -88 -313.5t-96 -266.5q-16 -37 -49 -56t-73 -19
q-48 0 -82 17z" />
    <glyph glyph-name="ydieresis" unicode="&#xff;" horiz-adv-x="488" 
d="M138.5 564.5q-10.5 9.5 -10.5 26.5q0 18 10.5 27.5t28.5 9.5t28 -9.5t10 -27.5q0 -17 -10 -26.5t-28 -9.5t-28.5 9.5zM295.5 564.5q-10.5 9.5 -10.5 26.5q0 18 10.5 27.5t29.5 9.5q18 0 28 -9.5t10 -27.5q0 -17 -10 -26.5t-28 -9.5q-19 0 -29.5 9.5zM58 -172v25
q0 32 9 59h44v-47q18 -3 42 -3q16 0 44 4q22 53 59 156h-67q-52 127 -87 228.5t-66 215.5l60 6q55 -208 128 -397h50q63 189 111 397l61 -6q-40 -162 -88 -313.5t-96 -266.5q-16 -37 -49 -56t-73 -19q-48 0 -82 17z" />
    <glyph glyph-name="uni1E8F" unicode="&#x1e8f;" horiz-adv-x="488" 
d="M211.5 569.5q-13.5 12.5 -13.5 34.5q0 23 13.5 36t36.5 13q24 0 37 -13t13 -36t-13 -35t-37 -12q-23 0 -36.5 12.5zM58 -172v25q0 32 9 59h44v-47q18 -3 42 -3q16 0 44 4q22 53 59 156h-67q-52 127 -87 228.5t-66 215.5l60 6q55 -208 128 -397h50q63 189 111 397l61 -6
q-40 -162 -88 -313.5t-96 -266.5q-16 -37 -49 -56t-73 -19q-48 0 -82 17z" />
    <glyph glyph-name="uni1EF5" unicode="&#x1ef5;" horiz-adv-x="488" 
d="M58 -172v25q0 32 9 59h44v-47q18 -3 42 -3q16 0 44 4q22 53 59 156h-67q-52 127 -87 228.5t-66 215.5l60 6q55 -208 128 -397h50q63 189 111 397l61 -6q-40 -162 -88 -313.5t-96 -266.5q-16 -37 -49 -56t-73 -19q-48 0 -82 17zM199.5 -307q-13.5 12 -13.5 34
q0 24 13 36.5t37 12.5t37 -12.5t13 -36.5q0 -22 -13 -34t-37 -12q-23 0 -36.5 12z" />
    <glyph glyph-name="ygrave" unicode="&#x1ef3;" horiz-adv-x="488" 
d="M123 693l81 8l83 -142l-45 -8zM58 -172v25q0 32 9 59h44v-47q18 -3 42 -3q16 0 44 4q22 53 59 156h-67q-52 127 -87 228.5t-66 215.5l60 6q55 -208 128 -397h50q63 189 111 397l61 -6q-40 -162 -88 -313.5t-96 -266.5q-16 -37 -49 -56t-73 -19q-48 0 -82 17z" />
    <glyph glyph-name="uni1EF7" unicode="&#x1ef7;" horiz-adv-x="488" 
d="M211 609v28q51 0 70 6.5t19 29.5q0 18 -10.5 26t-35.5 8q-28 0 -54 -9l-13 37q35 15 76 15q44 0 65 -20.5t21 -55.5q0 -71 -92 -74v-40h-34zM58 -172v25q0 32 9 59h44v-47q18 -3 42 -3q16 0 44 4q22 53 59 156h-67q-52 127 -87 228.5t-66 215.5l60 6q55 -208 128 -397h50
q63 189 111 397l61 -6q-40 -162 -88 -313.5t-96 -266.5q-16 -37 -49 -56t-73 -19q-48 0 -82 17z" />
    <glyph glyph-name="uni1EF9" unicode="&#x1ef9;" horiz-adv-x="488" 
d="M108 549q6 89 78 89q15 0 28.5 -6.5t34.5 -19.5q18 -12 28 -17t21 -5q37 0 44 50l41 -13q-6 -89 -78 -89q-17 0 -31 7t-34 20q-15 11 -25.5 16t-21.5 5q-21 0 -31 -13t-13 -37zM58 -172v25q0 32 9 59h44v-47q18 -3 42 -3q16 0 44 4q22 53 59 156h-67q-52 127 -87 228.5
t-66 215.5l60 6q55 -208 128 -397h50q63 189 111 397l61 -6q-40 -162 -88 -313.5t-96 -266.5q-16 -37 -49 -56t-73 -19q-48 0 -82 17z" />
    <glyph glyph-name="z" unicode="z" horiz-adv-x="442" 
d="M53 60l260 350v8h-191l-7 -61h-42q-11 35 -11 67v44h317v-62l-260 -347v-10h213l6 64h42q11 -37 11 -67v-46h-338v60z" />
    <glyph glyph-name="zacute" unicode="&#x17a;" horiz-adv-x="442" 
d="M182 560l83 142l81 -8l-119 -142zM53 60l260 350v8h-191l-7 -61h-42q-11 35 -11 67v44h317v-62l-260 -347v-10h213l6 64h42q11 -37 11 -67v-46h-338v60z" />
    <glyph glyph-name="zcaron" unicode="&#x17e;" horiz-adv-x="444" 
d="M98 692l39 9l89 -89h6l87 89l41 -9l-101 -132h-60zM55 60l260 350v8h-191l-7 -61h-42q-11 35 -11 67v44h317v-62l-260 -347v-10h213l6 64h42q11 -37 11 -67v-46h-338v60z" />
    <glyph glyph-name="zdotaccent" unicode="&#x17c;" horiz-adv-x="442" 
d="M186.5 567.5q-13.5 12.5 -13.5 34.5q0 23 13.5 36t36.5 13q24 0 37 -13t13 -36t-13 -35t-37 -12q-23 0 -36.5 12.5zM53 60l260 350v8h-191l-7 -61h-42q-11 35 -11 67v44h317v-62l-260 -347v-10h213l6 64h42q11 -37 11 -67v-46h-338v60z" />
    <glyph glyph-name="uni1E93" unicode="&#x1e93;" horiz-adv-x="443" 
d="M55 60l260 350v8h-191l-7 -61h-42q-11 35 -11 67v44h317v-62l-260 -347v-10h213l6 64h42q11 -37 11 -67v-46h-338v60zM194.5 -146.5q-13.5 12.5 -13.5 34.5q0 24 13 36.5t37 12.5t37 -12.5t13 -36.5q0 -22 -13 -34.5t-37 -12.5q-23 0 -36.5 12.5z" />
    <glyph glyph-name="ordfeminine" unicode="&#xaa;" horiz-adv-x="355" 
d="M74 288.5q-25 23.5 -25 61.5q0 54 41.5 82t112.5 28q27 0 48 -4v52q0 36 -14 49.5t-51 13.5q-32 0 -67 -7l-6 -42h-32q-7 25 -7 46v19q26 13 59 21t64 8q51 0 78.5 -26.5t27.5 -74.5v-245h-45l-3 47h-6q-40 -52 -104 -52q-46 0 -71 23.5zM209.5 323.5
q23.5 12.5 43.5 36.5v51q-26 5 -66 5q-41 0 -73 -7q-11 -22 -11 -49q0 -25 12.5 -37t40.5 -12q30 0 53.5 12.5z" />
    <glyph glyph-name="ordmasculine" unicode="&#xba;" horiz-adv-x="373" 
d="M80 309q-32 44 -32 124q0 84 35.5 128t113.5 44q65 0 96.5 -44t31.5 -125q0 -84 -35.5 -127.5t-113.5 -43.5q-64 0 -96 44zM255 322q17 41 17 106q0 70 -19 100t-67 30q-38 0 -67 -11q-17 -40 -17 -105q0 -69 19 -99.5t67 -30.5q37 0 67 10z" />
    <glyph glyph-name="uni207F" unicode="&#x207f;" horiz-adv-x="394" 
d="M61 616h44l5 -55h6q59 59 127 59q47 0 68 -21.5t21 -65.5v-268h-53v299q-23 8 -50 8q-63 0 -115 -49v-258h-53v351z" />
    <glyph glyph-name="pi" unicode="&#x3c0;" horiz-adv-x="599" 
d="M411 18q-25 26 -25 86v309h-196v-413h-63v413h-86v55h496v-55h-89v-319q0 -24 4 -43q20 -4 42 -4q19 0 39 2v-53q-15 -4 -43 -4q-54 0 -79 26z" />
    <glyph glyph-name="uni0E01" unicode="&#xe01;" horiz-adv-x="551" 
d="M129 311l-69 92v42q51 38 108 58.5t126 20.5q60 0 99.5 -17.5t58.5 -45t19 -57.5v-404h-62v441q-54 27 -122 27q-109 0 -172 -46v-5l62 -78q11 -14 11 -33q0 -5 -2 -19l-45 -287h-60z" />
    <glyph glyph-name="uni0E16" unicode="&#xe16;" horiz-adv-x="559" 
d="M118 10q-21 20 -21 57q0 13 1 19l36 225l-70 92v42q108 79 238 79q60 0 99.5 -17.5t58.5 -45t19 -57.5v-404h-62v441q-50 26 -121 26q-50 0 -96 -11.5t-81 -33.5v-5l62 -78q11 -14 11 -32q0 -6 -2 -20l-34 -198q-1 -6 -1 -15q0 -16 8.5 -23t27.5 -7h62v-41
q-37 -13 -78 -13q-36 0 -57 20z" />
    <glyph glyph-name="uni0E20" unicode="&#xe20;" horiz-adv-x="573" 
d="M48 2v41h43q21 0 29.5 7.5t11.5 26.5l33 234l-73 92v42q52 38 105.5 58.5t117.5 20.5q60 0 100 -17.5t59 -45t19 -57.5v-404h-62v441q-48 27 -122 27q-95 0 -162 -46v-5l65 -78q11 -12 11 -31q0 -5 -2 -21l-33 -223q-6 -36 -25 -55t-57 -19q-32 0 -58 12z" />
    <glyph glyph-name="uni0E24" unicode="&#xe24;" horiz-adv-x="559" 
d="M417 441q-50 26 -121 26q-50 0 -96 -11.5t-81 -33.5v-5l62 -78q11 -14 11 -32q0 -6 -2 -20l-34 -198q-1 -6 -1 -15q0 -16 8.5 -23t27.5 -7h62v-41q-37 -13 -78 -13q-36 0 -57 20t-21 57q0 13 1 19l36 225l-70 92v42q108 79 238 79q60 0 99.5 -17.5t58.5 -45t19 -57.5
v-599h-62v636z" />
    <glyph glyph-name="uni0E24.short" horiz-adv-x="559" 
d="M417 441q-50 26 -121 26q-50 0 -96 -11.5t-81 -33.5v-5l62 -78q11 -14 11 -32q0 -6 -2 -20l-34 -195q-1 -6 -1 -15q0 -17 8.5 -24t27.5 -7h62v-41q-37 -13 -78 -13q-36 0 -57 20.5t-21 57.5q0 13 1 19l36 222l-70 92v42q108 79 238 79q60 0 99.5 -17.5t58.5 -45t19 -57.5
v-599h-62v636z" />
    <glyph glyph-name="uni0E26" unicode="&#xe26;" horiz-adv-x="568" 
d="M426 441q-54 27 -120 27q-92 0 -159 -46v-5l65 -78q11 -12 11 -31q0 -5 -2 -21l-33 -223q-6 -36 -25 -55t-57 -19q-32 0 -58 12v41h43q21 0 29.5 7.5t11.5 26.5l33 234l-73 92v42q52 38 104.5 58.5t116.5 20.5q60 0 99 -17.5t57.5 -44.5t18.5 -58v-599h-62v636z" />
    <glyph glyph-name="uni0E26.short" horiz-adv-x="568" 
d="M426 441q-54 27 -120 27q-92 0 -159 -46v-5l65 -78q11 -12 11 -31q0 -5 -2 -21l-33 -220q-11 -75 -82 -75q-32 0 -58 12v41h43q21 0 29.5 7.5t11.5 27.5l33 231l-73 92v42q52 38 104.5 58.5t116.5 20.5q60 0 99 -17.5t57.5 -44.5t18.5 -58v-599h-62v636z" />
    <glyph glyph-name="uni0E0E" unicode="&#xe0e;" horiz-adv-x="573" 
d="M136 -131q47 13 82 18t73 5q64 0 133 -26h7v575q-48 27 -122 27q-95 0 -162 -46v-5l65 -78q11 -12 11 -31q0 -5 -2 -21l-33 -223q-6 -36 -25 -55t-57 -19q-32 0 -58 12v41h43q21 0 29.5 7.5t11.5 26.5l33 234l-73 92v42q52 38 105.5 58.5t117.5 20.5q60 0 100 -17.5
t59 -45t19 -57.5v-473q0 -46 -25.5 -77.5t-67.5 -32.5q-53 17 -101 17q-40 0 -71.5 -4t-76.5 -15z" />
    <glyph glyph-name="doChadathai.short" horiz-adv-x="573" 
d="M136 -108q51 14 85.5 20t69.5 6q69 0 133 -26h7v549q-48 27 -122 27q-95 0 -162 -46v-5l65 -78q11 -12 11 -31q0 -5 -2 -21l-33 -220q-6 -37 -25.5 -56t-56.5 -19q-32 0 -58 12v41h43q21 0 29.5 7.5t11.5 27.5l33 231l-73 92v42q52 38 105.5 58.5t117.5 20.5
q60 0 100 -17.5t59 -45t19 -57.5v-447q0 -45 -25.5 -77t-67.5 -33q-51 17 -101 17q-39 0 -70.5 -5t-77.5 -17z" />
    <glyph glyph-name="uni0E0F" unicode="&#xe0f;" horiz-adv-x="573" 
d="M291 -136q-21 -26 -45 -38t-67 -12q-34 0 -80 19l17 52q36 -14 70 -14q62 0 95 20l-22 57h59l27 -89q19 0 42.5 2t35.5 6q8 22 8 63v511q-48 27 -122 27q-95 0 -162 -46v-5l65 -78q11 -12 11 -31q0 -5 -2 -21l-33 -223q-6 -36 -25 -55t-57 -19q-32 0 -58 12v41h43
q21 0 29.5 7.5t11.5 26.5l33 234l-73 92v42q52 38 105.5 58.5t117.5 20.5q60 0 100 -17.5t59 -45t19 -57.5v-449q0 -69 -31.5 -106t-94.5 -37h-61z" />
    <glyph glyph-name="toPatakthai.short" horiz-adv-x="573" 
d="M291 -116q-21 -26 -45 -38t-67 -12q-34 0 -80 19l17 52q36 -14 70 -14q62 0 95 20l-22 57h59l27 -89q19 0 42.5 2t35.5 6q8 22 8 63v491q-48 27 -122 27q-95 0 -162 -46v-5l65 -78q11 -12 11 -31q0 -5 -2 -21l-33 -220q-6 -37 -25.5 -56t-56.5 -19q-32 0 -58 12v41h43
q21 0 29.5 7.5t11.5 27.5l33 231l-73 92v42q52 38 105.5 58.5t117.5 20.5q60 0 100 -17.5t59 -45t19 -57.5v-429q0 -69 -31.5 -106t-94.5 -37h-61z" />
    <glyph glyph-name="uni0E0D" unicode="&#xe0d;" horiz-adv-x="846" 
d="M505 -167.5q-34 4.5 -78 15.5l15 55q79 -20 136 -20q26 0 56 4t48 10q2 16 2 28q0 42 -12 78q-39 -11 -81 -11q-86 0 -134 38.5t-48 115.5v297q-48 24 -116 24q-101 0 -174 -45v-5l62 -78q11 -14 11 -32q0 -12 -2 -20l-34 -198q-2 -12 -2 -16q0 -15 9 -22t28 -7h62v-41
q-37 -13 -78 -13q-37 0 -58 19.5t-21 55.5q0 7 2 21l36 225l-70 92v42q108 79 235 79q87 0 129.5 -35.5t42.5 -84.5v-245q0 -61 28.5 -85.5t93.5 -24.5q62 0 111 18v447h62v-415q0 -27 -11.5 -45t-36.5 -32v-2l21 -26q2 -20 2 -28q0 -69 -44.5 -103.5t-119.5 -34.5
q-38 0 -72 4.5z" />
    <glyph glyph-name="yoYingthai.less" horiz-adv-x="846" 
d="M117 12q-21 20 -21 56q0 7 2 21l36 222l-70 92v42q108 79 235 79q87 0 129.5 -35.5t42.5 -84.5v-245q0 -61 28.5 -85.5t93.5 -24.5q62 0 111 18v447h62v-415q0 -51 -50.5 -79t-124.5 -28q-87 1 -134.5 39t-47.5 115v297q-48 24 -116 24q-101 0 -174 -45v-5l62 -78
q11 -14 11 -32q0 -12 -2 -20l-34 -195l-2 -16q0 -16 9 -23t28 -7h62v-41q-37 -13 -78 -13q-37 0 -58 20z" />
    <glyph glyph-name="uni0E02" unicode="&#xe02;" horiz-adv-x="495" 
d="M101 35q-41 45 -41 121v77q0 31 11.5 54t33.5 51q18 23 27 39.5t9 37.5q0 23 -10 33.5t-33 10.5h-42v55h52q51 0 73 -26.5t22 -66.5q0 -28 -10 -49.5t-30 -50.5q-20 -28 -30.5 -50t-10.5 -50v-69q0 -52 26.5 -78.5t97.5 -26.5q62 0 107 14v453h62v-384q0 -59 -42 -99.5
t-127 -40.5q-104 0 -145 45z" />
    <glyph glyph-name="uni0E03" unicode="&#xe03;" horiz-adv-x="514" 
d="M116.5 35.5q-41.5 45.5 -41.5 120.5v74q0 36 17 59.5t49 50.5q24 20 35.5 34.5t11.5 33.5q0 20 -6 39h-6q-12 -18 -28 -28t-41 -10q-27 0 -41 16.5t-14 47.5q0 24 5 41h45v-60q8 -2 12 -2q24 0 35.5 16t15.5 46h58q12 -26 18 -49.5t6 -53.5t-14 -51t-41 -46
q-28 -27 -41.5 -47t-13.5 -50v-65q0 -52 27 -78.5t98 -26.5q65 0 110 14v453h62v-384q0 -59 -43.5 -99.5t-128.5 -40.5q-104 0 -145.5 45.5z" />
    <glyph glyph-name="uni0E0A" unicode="&#xe0a;" horiz-adv-x="507" 
d="M64 156v77q0 31 11.5 54t33.5 51q18 23 27 39.5t9 37.5q0 23 -10 33.5t-33 10.5h-42v55h52q51 0 73 -26.5t22 -66.5q0 -28 -10 -49.5t-30 -50.5q-20 -28 -30.5 -50t-10.5 -50v-69q0 -52 28 -78.5t99 -26.5q69 0 113 14v188q0 41 -20 60t-62 30v47q63 0 79 57q10 36 13 78
l65 -11q-3 -43 -20 -83q-19 -44 -73 -59v-4q41 -15 60.5 -38.5t19.5 -66.5v-129q0 -59 -44.5 -99.5t-130.5 -40.5q-189 0 -189 166z" />
    <glyph glyph-name="uni0E0B" unicode="&#xe0b;" horiz-adv-x="538" 
d="M131.5 36q-44.5 46 -44.5 120v74q0 36 17 60t48 50q24 21 35 35t11 33q0 20 -6 39h-6q-12 -18 -28 -28t-41 -10q-27 0 -41 16.5t-14 47.5q0 24 5 41h45v-60q8 -2 12 -2q24 0 35.5 16t15.5 46h58q12 -26 18 -49.5t6 -53.5t-13.5 -50.5t-40.5 -46.5t-40.5 -46t-13.5 -51
v-65q0 -51 29.5 -78t101.5 -27q35 0 66 4.5t51 11.5v186q0 41 -20 60t-62 30v47q65 0 79 57q10 36 13 78l65 -11q-3 -43 -20 -83q-19 -44 -73 -59v-4q41 -15 60.5 -38.5t19.5 -66.5v-129q0 -37 -20.5 -69t-61 -51.5t-97.5 -19.5q-104 0 -148.5 46z" />
    <glyph glyph-name="uni0E04" unicode="&#xe04;" horiz-adv-x="568" 
d="M116 137q-32 47 -48.5 90.5t-16.5 94.5q0 98 60 150t179 52q88 0 143 -34.5t55 -92.5v-397h-61v443q-24 10 -63.5 17t-77.5 7q-90 0 -132 -34t-42 -114q0 -35 7.5 -63.5t22.5 -59.5h7q26 29 60.5 53.5t70.5 36.5l53 -13l1 -16q2 -41 -5 -71h-47l-7 43q-20 -5 -44.5 -19
t-46.5 -31l-55 -179h-64z" />
    <glyph glyph-name="uni0E05" unicode="&#xe05;" horiz-adv-x="586" 
d="M118 137q-32 48 -49.5 92t-17.5 97q0 198 142 198q70 0 109 -65q19 31 48.5 48t65.5 17q52 0 90 -18v-506h-62v463q-13 4 -41 4q-30 0 -52 -14.5t-32 -37.5h-40q-13 25 -31 39t-45 14q-52 0 -71.5 -36.5t-19.5 -107.5q0 -36 8 -66t24 -62h7q26 29 60.5 53.5t70.5 36.5
l54 -13l1 -16q2 -37 -6 -71h-47l-7 43q-20 -5 -44.5 -19t-46.5 -31l-55 -179h-64z" />
    <glyph glyph-name="uni0E28" unicode="&#xe28;" horiz-adv-x="597" 
d="M116 137q-32 47 -48.5 90.5t-16.5 94.5q0 98 60 150t179 52q45 0 84 -10t65 -28l45 36l83 18l12 -55l-110 -29q19 -27 19 -59v-397h-61v443q-24 10 -63.5 17t-77.5 7q-90 0 -132 -34t-42 -114q0 -35 7.5 -63.5t22.5 -59.5h7q26 29 60.5 53.5t70.5 36.5l53 -13l1 -16
q2 -41 -5 -71h-47l-7 43q-20 -5 -44.5 -19t-46.5 -31l-55 -179h-64z" />
    <glyph glyph-name="uni0E14" unicode="&#xe14;" horiz-adv-x="558" 
d="M102.5 57q-42.5 62 -42.5 192q0 128 57.5 201.5t179.5 73.5q95 0 181 -35v-489h-62v452q-56 16 -119 16q-95 0 -135 -56.5t-40 -162.5q0 -107 27 -152.5t88 -45.5q31 0 55 7l13 -49q-28 -14 -71 -14q-89 0 -131.5 62z" />
    <glyph glyph-name="uni0E15" unicode="&#xe15;" horiz-adv-x="577" 
d="M99.5 56.5q-39.5 61.5 -39.5 200.5q0 134 34.5 200.5t110.5 66.5q63 0 98 -64q19 30 47.5 47t64.5 17q53 0 82 -21v-503h-62v463q-11 4 -34 4q-54 0 -80 -52h-41q-13 27 -27.5 40t-39.5 13q-50 0 -70.5 -55t-20.5 -156q0 -113 25.5 -159.5t83.5 -46.5q31 0 55 7l13 -49
q-30 -14 -72 -14q-88 0 -127.5 61.5z" />
    <glyph glyph-name="uni0E17" unicode="&#xe17;" horiz-adv-x="556" 
d="M82 514h57l4 -79h8q40 42 89.5 65.5t105.5 23.5q130 0 130 -100v-424h-62v455q-35 12 -81 12q-95 0 -189 -83v-384h-62v514z" />
    <glyph glyph-name="uni0E11" unicode="&#xe11;" horiz-adv-x="558" 
d="M84 230q0 36 16 59.5t46 50.5q23 20 34 34.5t11 33.5q0 20 -6 39h-6q-12 -18 -28 -28t-41 -10q-27 0 -41 16.5t-14 47.5q0 24 5 41h45v-60q8 -2 12 -2q24 0 35.5 16t15.5 46h58q16 -35 21 -58h6q36 34 66.5 51t66.5 17q43 0 67.5 -23.5t24.5 -63.5v-437h-62v460
q-20 7 -47 7q-52 0 -119 -54q-1 -32 -14.5 -53t-39.5 -46q-25 -25 -37.5 -45t-12.5 -50v-219h-62v230z" />
    <glyph glyph-name="uni0E19" unicode="&#xe19;" horiz-adv-x="556" 
d="M82 90v424h62v-455q18 -7 36.5 -9.5t45.5 -2.5q103 0 188 78v389h62v-514h-56l-5 75h-8q-80 -85 -193 -85q-132 0 -132 100z" />
    <glyph glyph-name="uni0E21" unicode="&#xe21;" horiz-adv-x="545" 
d="M236 9q-45 19 -85 61h-8l-4 -70h-57v514h62v-394q77 -73 179 -73q26 0 44 2.5t36 9.5v455h62v-424q0 -100 -129 -100q-55 0 -100 19z" />
    <glyph glyph-name="uni0E0C" unicode="&#xe0c;" horiz-adv-x="853" 
d="M117.5 10q-20.5 20 -20.5 57q0 12 1 19l36 225l-70 92v42q108 79 235 79q86 0 129.5 -35t43.5 -85v-286q39 -37 78.5 -54t86.5 -17q25 0 40.5 2.5t33.5 9.5v455h62v-424q0 -100 -123 -100q-50 0 -91 18.5t-80 58.5h-8l-4 -67h-55v443q-48 24 -119 24q-101 0 -174 -45v-5
l62 -78q11 -14 11 -32q0 -12 -2 -20l-34 -198q-2 -12 -2 -16q0 -15 9 -22t28 -7h62v-41q-37 -13 -79 -13q-36 0 -56.5 20z" />
    <glyph glyph-name="uni0E13" unicode="&#xe13;" horiz-adv-x="850" 
d="M118 10q-21 20 -21 57q0 13 1 19l36 225l-70 92v42q108 79 235 79q86 0 129 -35t43 -85v-347q31 -10 70 -10q48 0 88 18t80 54l-1 395h62v-514h-56l-4 69h-8q-41 -41 -79.5 -60t-93.5 -19q-60 0 -89.5 24t-29.5 76v353q-46 24 -117 24q-101 0 -174 -45v-5l62 -78
q11 -14 11 -32q0 -6 -2 -20l-34 -198q-1 -6 -1 -15q0 -16 8.5 -23t27.5 -7h62v-41q-37 -13 -78 -13q-36 0 -57 20z" />
    <glyph glyph-name="uni0E12" unicode="&#xe12;" horiz-adv-x="863" 
d="M568.5 8.5q-41.5 18.5 -79.5 58.5h-8l-5 -67h-55v463q-12 4 -35 4q-52 0 -75 -52h-41q-11 26 -26 39.5t-39 13.5q-47 0 -65 -52.5t-18 -158.5q0 -113 25.5 -159.5t83.5 -46.5q31 0 55 7l13 -49q-30 -14 -72 -14q-88 0 -127.5 61.5t-39.5 200.5q0 132 31 199.5t105 67.5
q33 0 56 -16t41 -48q39 64 106 64q54 0 83 -21v-385q71 -71 159 -71q27 0 44.5 2.5t35.5 9.5v455h62v-424q0 -51 -32.5 -75.5t-92.5 -24.5q-48 0 -89.5 18.5z" />
    <glyph glyph-name="uni0E06" unicode="&#xe06;" horiz-adv-x="562" 
d="M156 67h-7l-5 -67h-56v230q0 36 15.5 59.5t44.5 50.5q22 20 32.5 34.5t10.5 33.5q0 20 -6 39h-6q-12 -18 -28 -28t-41 -10q-27 0 -41 16.5t-14 47.5q0 24 5 41h45v-60q8 -2 12 -2q24 0 35.5 16t15.5 46h58q12 -26 18 -49.5t6 -53.5t-12.5 -50.5t-37.5 -46.5t-37.5 -46
t-12.5 -51v-101q41 -35 84 -52t95 -17q56 0 91 15v452h62v-419q0 -52 -36 -78.5t-104 -26.5q-106 0 -186 77z" />
    <glyph glyph-name="uni0E18" unicode="&#xe18;" horiz-adv-x="517" 
d="M123 25q-47 35 -47 110v80h62v-69q0 -57 28.5 -78.5t98.5 -21.5q76 0 124 20v195l-210 26q-58 8 -86 33t-28 77q0 59 55.5 93t152.5 34q95 0 171 -23l-17 -51q-70 17 -151 17q-86 0 -136 -11q-14 -30 -14 -58q0 -29 14.5 -41t52.5 -17l174 -23q12 -1 32 -15.5t35.5 -32
t15.5 -27.5v-145q0 -53 -50 -80t-135 -27q-95 0 -142 35z" />
    <glyph glyph-name="uni0E23" unicode="&#xe23;" horiz-adv-x="462" 
d="M49 30l19 53q38 -19 71 -27.5t82 -8.5q66 0 109 18q16 28 16 71t-27.5 64.5t-97.5 29.5q-77 8 -121.5 42.5t-44.5 89.5q0 70 45.5 116t137.5 46q47 0 81.5 -6t68.5 -21l-29 -52q-30 11 -61.5 16.5t-73.5 5.5q-54 0 -86 -12q-21 -32 -21 -73q0 -34 11.5 -52t38 -26.5
t80.5 -15.5q76 -11 118.5 -42t42.5 -92q0 -72 -45.5 -118t-144.5 -46q-106 0 -169 40z" />
    <glyph glyph-name="uni0E08" unicode="&#xe08;" horiz-adv-x="514" 
d="M133 194q-6 16 -12 21.5t-22 5.5h-28v53h46q31 0 43 -11.5t23 -37.5l67 -174h55q40 47 65 110t25 136q0 63 -13 99.5t-46 53.5t-94 17q-60 0 -122 -14v-70h-44q-12 33 -12 74v36q95 31 186 31q114 0 160 -56t46 -169q0 -88 -29.5 -156.5t-88.5 -142.5h-132z" />
    <glyph glyph-name="uni0E27" unicode="&#xe27;" horiz-adv-x="480" 
d="M61 40l29 48q55 -41 131 -41q82 0 112 50.5t30 152.5q0 81 -10 126t-40.5 68t-90.5 23q-53 0 -101 -19l-6 -76h-43q-10 32 -10 69v38q26 19 72 32t95 13q76 0 119 -32.5t60 -92t17 -149.5q0 -122 -45 -191t-154 -69q-99 0 -165 50z" />
    <glyph glyph-name="uni0E07" unicode="&#xe07;" horiz-adv-x="487" 
d="M28 399l60 17l132 -360h46q100 135 100 307q0 61 -18 97q-14 4 -25 5.5t-29 1.5q-20 0 -53 -6l-10 55q22 4 38 6t35 2q59 0 91.5 -40t32.5 -120q0 -102 -32.5 -191.5t-98.5 -172.5h-120z" />
    <glyph glyph-name="uni0E10" unicode="&#xe10;" horiz-adv-x="555" 
d="M129 194q-6 16 -12 21.5t-22 5.5h-28v53h46q31 0 43 -11.5t23 -37.5l67 -174h55q40 47 65 110t25 136q0 63 -13 99.5t-46 53.5t-94 17q-60 0 -122 -14v-66h-44q-12 33 -12 74v32q95 31 186 31q89 0 139 -39l45 37l83 18l12 -55l-113 -30q40 -53 40 -156
q0 -88 -29.5 -156.5t-88.5 -142.5h-132zM232 -161q-21 -26 -45 -38t-66 -12q-35 0 -81 19l17 52q36 -14 70 -14q62 0 95 20l-21 57h57l27 -89q62 0 86 8q1 6 1 20q0 44 -14 86l63 8q4 -36 4 -49q0 -59 -26.5 -89.5t-77.5 -30.5h-74z" />
    <glyph glyph-name="thoThanthai.less" horiz-adv-x="555" 
d="M129 194q-6 16 -12 21.5t-22 5.5h-28v53h46q31 0 43 -11.5t23 -37.5l67 -174h55q40 47 65 110t25 136q0 63 -13 99.5t-46 53.5t-94 17q-60 0 -122 -14v-66h-44q-12 33 -12 74v32q95 31 186 31q89 0 139 -39l45 37l83 18l12 -55l-113 -30q40 -53 40 -156
q0 -88 -29.5 -156.5t-88.5 -142.5h-132z" />
    <glyph glyph-name="uni0E09" unicode="&#xe09;" horiz-adv-x="548" 
d="M113 91v121h-40v53h60q41 0 41 -42v-166q31 -10 74 -10q45 0 83 18.5t75 55.5v221q0 70 -32.5 97.5t-107.5 27.5q-70 0 -141 -16v-69h-43q-14 39 -14 76v30q106 36 207 36q96 0 144.5 -44t48.5 -126v-354h-57l-4 73h-7q-34 -40 -72 -61.5t-91 -21.5q-124 0 -124 101z" />
    <glyph glyph-name="uni0E25" unicode="&#xe25;" horiz-adv-x="519" 
d="M83 27.5q-37 37.5 -37 103.5q0 83 48 120.5t150 37.5q38 0 67.5 -3.5t66.5 -13.5v70q0 49 -11 75.5t-38 38t-77 11.5q-57 0 -115 -11v-75h-44q-14 39 -14 79v33q53 16 94.5 23.5t89.5 7.5q96 0 136 -43t40 -127v-354h-60v223q-63 14 -131 14q-72 0 -124 -13
q-16 -43 -16 -83q0 -50 20 -72.5t61 -22.5q39 0 66 10l15 -52q-44 -14 -84 -14q-66 0 -103 37.5z" />
    <glyph glyph-name="uni0E2A" unicode="&#xe2a;" horiz-adv-x="558" 
d="M83 27.5q-37 37.5 -37 103.5q0 83 48 120.5t150 37.5q38 0 67.5 -3.5t66.5 -13.5v70q0 49 -11 75.5t-38 38t-77 11.5q-57 0 -115 -11v-75h-44q-14 37 -14 79v33q53 16 94.5 23.5t89.5 7.5q84 0 127 -35l40 33l83 18l13 -55l-109 -29q22 -36 22 -102v-354h-60v223
q-63 14 -131 14q-72 0 -124 -13q-16 -43 -16 -83q0 -50 20 -72.5t61 -22.5q39 0 66 10l15 -52q-44 -14 -84 -14q-66 0 -103 37.5z" />
    <glyph glyph-name="uni0E1A" unicode="&#xe1a;" horiz-adv-x="556" 
d="M134 26q-52 36 -52 111v377h62v-367q0 -55 33 -77.5t105 -22.5q38 0 73.5 5.5t58.5 14.5v447h62v-415q0 -53 -54 -81t-140 -28q-96 0 -148 36z" />
    <glyph glyph-name="uni0E1B" unicode="&#xe1b;" horiz-adv-x="556" 
d="M134 26q-52 36 -52 111v377h62v-367q0 -55 33 -77.5t105 -22.5q38 0 73.5 5.5t58.5 14.5v631h62v-599q0 -53 -54 -81t-140 -28q-96 0 -148 36z" />
    <glyph glyph-name="uni0E29" unicode="&#xe29;" horiz-adv-x="597" 
d="M136 27q-54 37 -54 111v376h62v-366q0 -55 35.5 -78t108.5 -23q38 0 74.5 6t58.5 15v162q-40 0 -59 2q-58 3 -103 20v95h56v-60q34 -6 85 -6h21v233h62v-222q30 8 65 29l28 -47q-49 -26 -93 -36v-138q0 -54 -54.5 -82t-140.5 -28q-98 0 -152 37z" />
    <glyph glyph-name="uni0E22" unicode="&#xe22;" horiz-adv-x="538" 
d="M113 25.5q-55 39.5 -55 121.5q0 51 24.5 84.5t69.5 44.5v7q-85 28 -85 113q0 56 35 92t102 36q24 0 62 -8l-8 -53q-25 4 -55 4q-29 0 -65 -6q-10 -31 -10 -64q0 -93 102 -93h41v-55h-46q-51 0 -78.5 -26t-27.5 -73q0 -56 36.5 -81.5t108.5 -25.5q86 0 130 26v445h64v-386
q0 -142 -194 -142q-96 0 -151 39.5z" />
    <glyph glyph-name="uni0E1C" unicode="&#xe1c;" horiz-adv-x="604" 
d="M93 56.5q-33 61.5 -33 198.5q0 101 14 159t46.5 84t90.5 26q36 0 71 -14l-12 -50q-31 8 -56 8q-38 0 -57.5 -20t-27.5 -65.5t-8 -127.5q0 -76 8 -120t27 -64t52 -20q49 0 69 32v146h58v-146q14 -16 35.5 -24t43.5 -8q27 0 48 6v457h62v-490q-39 -29 -94 -29
q-38 0 -66 12.5t-52 39.5h-7q-19 -27 -43 -39.5t-61 -12.5q-75 0 -108 61.5z" />
    <glyph glyph-name="uni0E1D" unicode="&#xe1d;" horiz-adv-x="604" 
d="M93 56.5q-33 61.5 -33 198.5q0 101 14 159t46.5 84t90.5 26q36 0 71 -14l-12 -50q-31 8 -56 8q-38 0 -57.5 -20t-27.5 -65.5t-8 -127.5q0 -76 8 -120t27 -64t52 -20q49 0 69 32v146h58v-146q14 -16 35.5 -24t43.5 -8q27 0 48 6v641h62v-674q-39 -29 -94 -29
q-38 0 -66 12.5t-52 39.5h-7q-19 -27 -43 -39.5t-61 -12.5q-75 0 -108 61.5z" />
    <glyph glyph-name="uni0E1F" unicode="&#xe1f;" horiz-adv-x="635" 
d="M68 517l60 5q11 -223 34 -462h7q22 56 57 161.5t62 194.5h54q27 -89 62 -194.5t57 -161.5h7q10 101 22.5 291t20.5 346l60 -6q-12 -180 -28.5 -376.5t-33.5 -314.5h-77q-28 75 -60.5 170.5t-54.5 171.5h-4q-24 -80 -57 -177t-59 -165h-76q-35 241 -53 517z" />
    <glyph glyph-name="uni0E1E" unicode="&#xe1e;" horiz-adv-x="630" 
d="M68 517l60 5q11 -223 34 -462h7q22 56 57 161.5t62 194.5h54q27 -89 62 -194.5t57 -161.5h7q23 260 34 462l60 -5q-21 -297 -53 -517h-77q-28 75 -60.5 170.5t-54.5 171.5h-4q-24 -80 -57 -177t-59 -165h-76q-35 241 -53 517z" />
    <glyph glyph-name="uni0E2B" unicode="&#xe2b;" horiz-adv-x="538" 
d="M82 514h60v-182l198 8q21 21 35 59q8 24 14 54.5t11 65.5l62 -7q-9 -97 -40 -152q-7 -12 -26 -24.5t-41 -20.5q34 -10 52.5 -34.5t27.5 -70.5l37 -210h-63l-34 199q-8 46 -29 65t-67 19h-137v-283h-60v514z" />
    <glyph glyph-name="uni0E2C" unicode="&#xe2c;" horiz-adv-x="647" 
d="M68 517l60 5q11 -223 34 -462h7q77 189 119 324h54q42 -135 119 -324h6q25 204 37 366q-16 13 -39.5 23.5t-48.5 14.5v62q12 -1 40 -1q43 0 84 5.5t69 14.5l16 -58q-28 -7 -71 -7q-32 0 -72 7v-5q39 -13 57 -34t18 -51l-1 -13q-15 -164 -47 -384h-77q-84 210 -115 310h-5
q-31 -100 -115 -310h-76q-35 241 -53 517z" />
    <glyph glyph-name="loChulathai.short" horiz-adv-x="645" 
d="M68 517l60 5q11 -223 34 -462h7q77 189 119 324h54q42 -135 119 -324h6q13 97 20 166.5t15 175.5q-15 13 -39 24t-49 15v61q21 -1 70 1q78 3 123 18l16 -57q-29 -8 -78 -8q-31 1 -65 8v-6q39 -13 57 -33.5t18 -50.5l-1 -13q-9 -96 -18.5 -172.5t-26.5 -188.5h-77
q-84 210 -115 310h-5q-31 -100 -115 -310h-76q-35 241 -53 517z" />
    <glyph glyph-name="uni0E2D" unicode="&#xe2d;" horiz-adv-x="515" 
d="M54 161v79q0 8 22 27t33 19h142v-54h-136v-74q0 -61 29.5 -86.5t101.5 -25.5q61 0 92.5 19.5t43.5 62.5t12 122q0 88 -14 134.5t-42.5 64.5t-78.5 18q-65 0 -130 -11v-74h-44q-12 43 -12 77v28q97 37 186 37q74 0 117 -29t61.5 -88.5t18.5 -156.5q0 -133 -46.5 -196.5
t-162.5 -63.5q-193 0 -193 171z" />
    <glyph glyph-name="uni0E2E" unicode="&#xe2e;" horiz-adv-x="563" 
d="M54 161v79q0 8 22 27t33 19h142v-54h-136v-74q0 -61 29.5 -86.5t101.5 -25.5q61 0 92.5 19.5t43.5 62.5t12 122q0 88 -14 134.5t-42.5 64.5t-78.5 18q-65 0 -130 -11v-74h-44q-12 43 -12 77v28q97 37 186 37q80 0 128 -37l43 35l83 18l12 -55l-111 -30q22 -32 32 -82.5
t10 -122.5q0 -133 -46.5 -196.5t-162.5 -63.5q-193 0 -193 171z" />
    <glyph glyph-name="uni0E32" unicode="&#xe32;" horiz-adv-x="397" 
d="M255 449q-40 15 -93 15q-34 0 -61 -3.5t-57 -12.5l-12 49q66 22 137 22t109.5 -27.5t38.5 -77.5v-414h-62v449z" />
    <glyph glyph-name="uni0E33" unicode="&#xe33;" horiz-adv-x="397" 
d="M-258 609q-26 22 -26 64q0 40 30.5 67.5t85.5 27.5q49 0 75 -23.5t26 -65.5q0 -39 -31 -65.5t-85 -26.5q-49 0 -75 22zM-121 636q8 24 8 41q0 49 -57 49q-39 0 -60 -7q-8 -23 -8 -44q0 -46 57 -46q36 0 60 7zM255 449q-40 15 -93 15q-34 0 -61 -3.5t-57 -12.5l-12 49
q66 22 137 22t109.5 -27.5t38.5 -77.5v-414h-62v449z" />
    <glyph glyph-name="uni0E45" unicode="&#xe45;" horiz-adv-x="397" 
d="M255 449q-40 15 -93 15q-34 0 -61 -3.5t-57 -12.5l-12 49q66 22 137 22t109.5 -27.5t38.5 -77.5v-618h-62v653z" />
    <glyph glyph-name="uni0E30" unicode="&#xe30;" horiz-adv-x="459" 
d="M68 347v88h59v-51q33 -11 88 -11q44 0 77.5 8.5t67.5 27.5l27 -49q-40 -22 -80 -30.5t-93 -8.5q-86 0 -146 26zM68 105v88h59v-51q33 -11 88 -11q44 0 77.5 8.5t67.5 27.5l27 -49q-40 -22 -80 -30.5t-93 -8.5q-86 0 -146 26z" />
    <glyph glyph-name="uni0E40" unicode="&#xe40;" horiz-adv-x="298" 
d="M111 21q-29 31 -29 82v411h61v-430q0 -20 4 -36q19 -4 43 -4h51v-42q-24 -12 -57 -12q-44 0 -73 31z" />
    <glyph glyph-name="uni0E41" unicode="&#xe41;" horiz-adv-x="558" 
d="M111 21q-29 31 -29 82v411h61v-430q0 -20 4 -36q19 -4 43 -4h51v-42q-24 -12 -57 -12q-44 0 -73 31zM371 21q-29 31 -29 82v411h61v-430q0 -20 4 -36q19 -4 43 -4h51v-42q-24 -12 -57 -12q-44 0 -73 31z" />
    <glyph glyph-name="uni0E44" unicode="&#xe44;" horiz-adv-x="396" 
d="M196.5 21.5q-28.5 30.5 -28.5 82.5v321q0 33 4 50.5t17 35.5l121 180v7q-40 0 -85.5 -14t-86.5 -36v-47l-27 -8q-17 37 -50 69.5t-70 46.5l16 45q37 -15 62 -32t44 -41q48 35 94.5 54t101.5 23l56 -44v-25q0 -10 -3.5 -18t-10.5 -20l-108 -167q-10 -16 -12.5 -28.5
t-2.5 -37.5v-333q0 -22 5 -37q21 -3 42 -3h51v-42q-24 -12 -57 -12q-44 0 -72.5 30.5z" />
    <glyph glyph-name="uni0E43" unicode="&#xe43;" horiz-adv-x="365" 
d="M175 21q-29 31 -29 82v363q0 22 5 34.5t19 24.5l101 87v86q-42 13 -94 13q-61 0 -109 -17v-80h-44q-13 41 -14 79v30q29 18 73.5 30t99.5 12q73 0 111.5 -30t38.5 -79q0 -36 -9 -58t-34 -41l-62 -50q-13 -11 -17 -21t-4 -28v-374q0 -20 4 -36q20 -4 43 -4h51v-42
q-24 -12 -57 -12q-44 0 -73 31z" />
    <glyph glyph-name="uni0E42" unicode="&#xe42;" horiz-adv-x="347" 
d="M157 21q-29 31 -29 83v349q0 27 -2 40.5t-11 23.5l-114 146v42l52 38q80 -3 146 -3q88 0 136 11l16 -48q-62 -18 -146 -18q-44 0 -79.5 2.5t-78.5 11.5v-8l119 -146q15 -18 19 -37.5t4 -55.5v-368q0 -20 4 -36q19 -4 43 -4h51v-41q-26 -13 -57 -13q-44 0 -73 31z" />
    <glyph glyph-name="uni0261" unicode="&#x261;" horiz-adv-x="505" 
d="M385 393h7l5 75h51v-528q0 -69 -49 -102.5t-133 -33.5q-47 0 -88.5 10.5t-71.5 26.5l17 48q29 -14 66 -22.5t72 -8.5q44 0 74 6.5t55 19.5v128l3 62h-8q-65 -74 -144 -74q-86 0 -125.5 61.5t-39.5 160.5q0 119 40 184.5t135 65.5q89 0 134 -79zM164 373q-27 -48 -27 -145
q0 -89 28.5 -132t88.5 -43q78 0 134 73v219q-57 76 -130 76q-67 0 -94 -48z" />
    <glyph glyph-name="zero" unicode="0" horiz-adv-x="622" 
d="M128.5 65.5q-56.5 72.5 -56.5 222.5q0 157 55 236.5t193 79.5q120 0 175.5 -72t55.5 -224q0 -104 -22.5 -173t-77.5 -105.5t-149 -36.5q-117 0 -173.5 72.5zM385 57.5q36 5.5 59 14.5q42 100 42 222q0 92 -16.5 146t-55 79.5t-106.5 25.5q-35 0 -71 -6t-60 -15
q-42 -96 -42 -221q0 -92 17 -146t55.5 -79.5t106.5 -25.5q35 0 71 5.5z" />
    <glyph glyph-name="one" unicode="1" horiz-adv-x="375" 
d="M207 527l-9 7l-124 -47l-17 43l147 74q20 -2 43.5 -17t23.5 -28v-559h-64v527z" />
    <glyph glyph-name="two" unicode="2" horiz-adv-x="561" 
d="M70 79q106 72 175 128t112 114t43 115q0 61 -28.5 85.5t-94.5 24.5q-61 0 -124 -20v-95h-48q-15 45 -15 90v40q46 21 92 32t101 11q93 0 136.5 -40.5t43.5 -122.5q0 -72 -42.5 -136.5t-108.5 -119.5t-166 -121v-8h278v71h49q14 -40 14 -85v-42h-417v79z" />
    <glyph glyph-name="three" unicode="3" horiz-adv-x="526" 
d="M63 16l11 56q76 -22 170 -22q65 0 117 11q23 36 23 95q0 58 -31 85t-107 27h-89v56h89q66 0 98.5 28t32.5 81q0 58 -31 86t-93 28q-59 0 -124 -15v-86h-48q-15 45 -15 84v36q50 19 94.5 28.5t98.5 9.5q92 0 136 -42.5t44 -120.5q0 -54 -22 -86t-70 -54v-6
q56 -19 77.5 -51.5t21.5 -87.5q0 -78 -46 -121t-157 -43q-90 0 -180 24z" />
    <glyph glyph-name="four" unicode="4" horiz-adv-x="569" 
d="M364 120h-293l-18 61l294 423h77v-428h86v-56h-86v-120h-60v120zM364 176v201l7 155h-7l-242 -349l2 -7h240z" />
    <glyph glyph-name="five" unicode="5" horiz-adv-x="527" 
d="M160 -2q-42 6 -89 20l9 58q96 -26 176 -26q38 0 65.5 4t56.5 12q22 57 22 119q0 69 -29 95.5t-95 26.5q-38 0 -67.5 -5.5t-66.5 -19.5l-54 42l20 280h313v-58h-255l-15 -203q37 11 67.5 16.5t64.5 5.5q88 0 134 -41.5t46 -131.5q0 -99 -48.5 -149.5t-164.5 -50.5
q-48 0 -90 6z" />
    <glyph glyph-name="six" unicode="6" horiz-adv-x="523" 
d="M122.5 61q-51.5 61 -51.5 170q0 120 56.5 208.5t167.5 162.5l55 -29q-93 -62 -142 -121t-68 -138q78 47 159 47q87 0 130.5 -44.5t43.5 -131.5q0 -79 -45.5 -132t-149.5 -53t-155.5 61zM337 60.5q23 3.5 50 10.5q22 48 22 114q0 64 -26.5 91.5t-94.5 27.5q-78 0 -154 -43
q-1 -11 -1 -30q0 -91 35.5 -132.5t112.5 -41.5q33 0 56 3.5z" />
    <glyph glyph-name="seven" unicode="7" horiz-adv-x="541" 
d="M188 9q34 162 89 288t136 243v6h-285v-87h-48q-15 40 -15 91v54h414v-72q-89 -134 -142 -258.5t-84 -271.5z" />
    <glyph glyph-name="eight" unicode="8" horiz-adv-x="568" 
d="M129 37q-52 44 -52 125q0 56 20 86.5t63 61.5v7q-35 24 -51.5 50t-16.5 68q0 79 53 124t156 45q89 0 134 -44.5t45 -126.5q0 -46 -17 -76.5t-52 -52.5v-8q44 -26 62.5 -57.5t18.5 -79.5q0 -82 -49 -124t-161 -42q-101 0 -153 44zM405 343q14 36 14 79q0 50 -13 76.5
t-42 37.5t-82 11q-64 0 -111 -17q-10 -24 -14 -44t-4 -45q0 -64 36 -88t116 -24q61 0 100 14zM416 70q13 33 13 76q0 51 -13.5 79.5t-45.5 41t-89 12.5q-70 0 -112 -11q-17 -23 -24 -47t-7 -57q0 -66 37.5 -90.5t125.5 -24.5q68 0 115 21z" />
    <glyph glyph-name="nine" unicode="9" horiz-adv-x="526" 
d="M177 29q89 60 136 111t67 119q-37 -22 -73 -33.5t-79 -11.5q-81 0 -129 47.5t-48 132.5q0 91 50 149.5t155 58.5q101 0 150 -65t49 -178q0 -122 -54 -203.5t-170 -155.5zM318 280q36 10 73 34q2 28 2 45q0 186 -145 186q-63 0 -108 -15q-13 -34 -19.5 -66t-6.5 -70
q0 -124 124 -124q44 0 80 10z" />
    <glyph glyph-name="fraction" unicode="&#x2044;" horiz-adv-x="182" 
d="M-124 11l381 610l49 -13l-381 -610z" />
    <glyph glyph-name="onehalf" unicode="&#xbd;" horiz-adv-x="788" 
d="M160 9l383 612l48 -13l-382 -613zM145 554l-5 4l-66 -26l-13 36l84 50q17 -1 37 -11.5t20 -19.5v-331h-57v298zM523 71q90 55 134.5 98.5t44.5 84.5q0 31 -13 43t-46 12q-31 0 -57 -6v-42h-43q-8 22 -8 57v19q54 23 113 23q109 0 109 -103q0 -57 -48 -105t-132 -101v-4
h136v32h43q8 -24 8 -56v-23h-241v71z" />
    <glyph glyph-name="uni2153" unicode="&#x2153;" horiz-adv-x="838" 
d="M160 9l383 612l48 -13l-382 -613zM145 554l-5 4l-66 -26l-13 36l84 50q17 -1 37 -11.5t20 -19.5v-331h-57v298zM538 8l7 47q50 -12 99 -12q38 0 64 6q9 18 9 46q0 56 -77 56h-42v47h42q35 0 52 14.5t17 44.5q0 28 -15 41t-45 13q-28 0 -57 -4v-36h-42q-9 21 -9 49v19
q53 21 112 21q55 0 83 -26.5t28 -70.5q0 -33 -15 -53t-46 -33v-3q37 -11 52.5 -32t15.5 -52q0 -95 -127 -95q-54 0 -106 13z" />
    <glyph glyph-name="uni2154" unicode="&#x2154;" horiz-adv-x="874" 
d="M224 9l383 612l48 -13l-382 -613zM66 329q89 54 133.5 98t44.5 85q0 31 -12.5 43t-45.5 12q-31 0 -57 -6v-42h-43q-8 22 -8 57v19q54 23 113 23q58 0 82.5 -27.5t24.5 -75.5q0 -56 -47.5 -105t-130.5 -101v-4h134v32h43q8 -24 8 -56v-23h-239v71zM575 7l7 47
q44 -12 99 -12q37 0 64 5q9 18 9 46q0 56 -77 56h-42v47h42q35 0 52 14.5t17 44.5q0 28 -15 41t-45 13q-28 0 -57 -4v-36h-42q-9 21 -9 49v20q54 20 112 20q55 0 83 -26.5t28 -70.5q0 -32 -15 -52.5t-46 -33.5v-3q37 -11 52.5 -31.5t15.5 -51.5q0 -96 -127 -96
q-56 0 -106 14z" />
    <glyph glyph-name="onequarter" unicode="&#xbc;" horiz-adv-x="792" 
d="M160 9l383 612l48 -13l-382 -613zM145 554l-5 4l-66 -26l-13 36l84 50q17 -1 37 -11.5t20 -19.5v-331h-57v298zM622 66h-152l-19 47l169 242h57v-243h52v-46h-52v-66h-55v66zM625 112v58q0 58 7 122h-4l-114 -175l2 -5h109z" />
    <glyph glyph-name="threequarters" unicode="&#xbe;" horiz-adv-x="819" 
d="M215 9l383 612l48 -13l-382 -613zM64 262l7 47q49 -12 99 -12q38 0 64 6q9 18 9 46q0 56 -77 56h-42v47h42q35 0 52 14.5t17 44.5q0 28 -15 41t-45 13q-28 0 -57 -4v-36h-42q-9 21 -9 49v19q52 21 112 21q55 0 83 -26.5t28 -70.5q0 -33 -15 -53t-46 -33v-3
q37 -11 52.5 -32t15.5 -52q0 -95 -127 -95q-54 0 -106 13zM649 66h-152l-19 47l169 242h57v-243h52v-46h-52v-66h-55v66zM651 112v58q0 58 7 122h-4l-114 -175l2 -5h109z" />
    <glyph glyph-name="oneeighth" unicode="&#x215b;" horiz-adv-x="805" 
d="M143 9l383 612l48 -13l-382 -613zM148 557l-5 4l-69 -26l-13 33l84 50q17 -1 37 -11.5t20 -19.5v-331h-54v301zM518.5 18q-32.5 27 -32.5 75q0 33 13 53t42 38v4q-23 14 -34 29.5t-11 41.5q0 44 34 70.5t94 26.5q51 0 79.5 -27t28.5 -73q0 -49 -44 -77v-4
q27 -17 38.5 -37t11.5 -50q0 -47 -32.5 -72t-99.5 -25q-55 0 -87.5 27zM646 203q11 1 22 4q10 19 10 39q0 32 -15 46.5t-52 14.5q-28 0 -52 -6q-8 -23 -8 -46q0 -24 17 -38.5t53 -14.5q14 0 25 1zM676 48q7 16 7 41q0 36 -16.5 51.5t-55.5 15.5q-36 0 -58 -7
q-7 -16 -9.5 -27t-2.5 -25q0 -30 18.5 -43.5t59.5 -13.5q33 0 57 8z" />
    <glyph glyph-name="threeeighths" unicode="&#x215c;" horiz-adv-x="875" 
d="M213 9l383 612l48 -13l-382 -613zM64 265l7 47q44 -12 99 -12q37 0 64 5q9 18 9 46q0 56 -77 56h-42v47h42q35 0 52 14.5t17 44.5q0 29 -15 42t-45 13q-29 0 -57 -5v-36h-42q-9 23 -9 50v19q54 20 112 20q55 0 83 -26.5t28 -70.5q0 -32 -15 -52.5t-46 -32.5v-3
q37 -12 52.5 -32.5t15.5 -51.5q0 -96 -127 -96q-56 0 -106 14zM589.5 18q-32.5 27 -32.5 75q0 33 13 53t42 38v4q-23 14 -34 29.5t-11 41.5q0 44 34 70.5t94 26.5q51 0 79.5 -27t28.5 -73q0 -49 -44 -77v-4q27 -17 38.5 -37t11.5 -50q0 -47 -32.5 -72t-99.5 -25
q-55 0 -87.5 27zM717 203q11 1 22 4q10 19 10 39q0 32 -15 46.5t-52 14.5q-28 0 -52 -6q-8 -23 -8 -46q0 -24 17 -38.5t53 -14.5q14 0 25 1zM746 48q7 16 7 41q0 36 -16.5 51.5t-55.5 15.5q-36 0 -58 -7q-7 -16 -9.5 -27t-2.5 -25q0 -30 18.5 -43.5t59.5 -13.5q33 0 57 8z
" />
    <glyph glyph-name="fiveeighths" unicode="&#x215d;" horiz-adv-x="871" 
d="M209 9l383 612l48 -13l-382 -613zM68 267l6 48q47 -13 93 -13q37 0 68 8q9 29 9 57q0 30 -14 44t-45 14q-21 0 -37 -2.5t-37 -9.5l-37 34l13 167h181v-50h-133l-7 -100q32 9 71 9q49 0 74 -25.5t25 -73.5q0 -120 -136 -120q-42 0 -94 13zM584.5 18q-32.5 27 -32.5 75
q0 33 13 53t42 38v4q-23 14 -34 29.5t-11 41.5q0 44 34 70.5t94 26.5q51 0 79.5 -27t28.5 -73q0 -49 -44 -77v-4q27 -17 38.5 -37t11.5 -50q0 -47 -32.5 -72t-99.5 -25q-55 0 -87.5 27zM712 203q11 1 22 4q10 19 10 39q0 32 -15 46.5t-52 14.5q-28 0 -52 -6q-8 -23 -8 -46
q0 -24 17 -38.5t53 -14.5q14 0 25 1zM742 48q7 16 7 41q0 36 -16.5 51.5t-55.5 15.5q-36 0 -58 -7q-7 -16 -9.5 -27t-2.5 -25q0 -30 18.5 -43.5t59.5 -13.5q33 0 57 8z" />
    <glyph glyph-name="seveneighths" unicode="&#x215e;" horiz-adv-x="826" 
d="M164 9l383 612l48 -13l-382 -613zM118 259q14 89 47 161t85 138v4h-139v-45h-45q-10 27 -10 64v33h251v-62q-58 -78 -87.5 -145.5t-44.5 -151.5zM539.5 18q-32.5 27 -32.5 75q0 33 13 53t42 38v4q-23 14 -34 29.5t-11 41.5q0 44 34 70.5t94 26.5q51 0 79.5 -27t28.5 -73
q0 -49 -44 -77v-4q27 -17 38.5 -37t11.5 -50q0 -47 -32.5 -72t-99.5 -25q-55 0 -87.5 27zM667 203q11 1 22 4q10 19 10 39q0 32 -15 46.5t-52 14.5q-28 0 -52 -6q-8 -23 -8 -46q0 -24 17 -38.5t53 -14.5q14 0 25 1zM697 48q7 16 7 41q0 36 -16.5 51.5t-55.5 15.5
q-36 0 -58 -7q-7 -16 -9.5 -27t-2.5 -25q0 -30 18.5 -43.5t59.5 -13.5q33 0 57 8z" />
    <glyph glyph-name="uni2080" unicode="&#x2080;" horiz-adv-x="357" 
d="M70.5 -91.5q-33.5 44.5 -33.5 132.5t35.5 138t110.5 50q70 0 103.5 -44.5t33.5 -132.5t-36 -138t-110 -50q-70 0 -103.5 44.5zM248 -74q16 54 16 119q0 70 -17 100.5t-69 30.5q-39 0 -68 -10q-17 -56 -17 -118q0 -70 17.5 -101t68.5 -31q39 0 69 10z" />
    <glyph glyph-name="uni2081" unicode="&#x2081;" horiz-adv-x="224" 
d="M116 169l-5 4l-69 -26l-13 33l84 50q17 -1 37 -11.5t20 -19.5v-331h-54v301z" />
    <glyph glyph-name="uni2082" unicode="&#x2082;" horiz-adv-x="324" 
d="M41 -60q90 55 134.5 98.5t44.5 84.5q0 31 -13 43t-46 12q-31 0 -57 -6v-42h-43q-8 22 -8 57v19q54 23 113 23q109 0 109 -103q0 -57 -47 -104t-133 -102v-4h136v32h43q8 -24 8 -56v-23h-241v71z" />
    <glyph glyph-name="uni2083" unicode="&#x2083;" horiz-adv-x="307" 
d="M32 -123l7 47q49 -12 99 -12q38 0 64 6q9 18 9 46q0 56 -77 56h-42v47h42q35 0 52 14.5t17 44.5q0 28 -15 41t-45 13q-28 0 -57 -4v-36h-42q-9 21 -9 49v19q53 21 112 21q55 0 83 -26.5t28 -70.5q0 -33 -15 -53t-46 -33v-3q37 -11 52.5 -32t15.5 -52q0 -95 -127 -95
q-54 0 -106 13z" />
    <glyph glyph-name="uni2084" unicode="&#x2084;" horiz-adv-x="332" 
d="M194 -65h-152l-19 47l169 242h57v-243h52v-46h-52v-66h-55v66zM197 -19v58q0 58 7 122h-4l-114 -175l2 -5h109z" />
    <glyph glyph-name="uni2085" unicode="&#x2085;" horiz-adv-x="301" 
d="M37 -123l6 48q47 -13 93 -13q37 0 68 8q9 28 9 57q0 30 -14 44t-45 14q-21 0 -37 -2.5t-37 -9.5l-37 34l13 167h181v-50h-133l-7 -100q32 9 71 9q49 0 74 -25.5t25 -73.5q0 -120 -136 -120q-42 0 -94 13z" />
    <glyph glyph-name="uni2086" unicode="&#x2086;" horiz-adv-x="312" 
d="M63.5 -98q-30.5 38 -30.5 100q0 71 34.5 124t105.5 101l43 -24q-51 -35 -78.5 -63.5t-40.5 -66.5q41 21 81 21q51 0 76.5 -28t25.5 -79q0 -50 -32.5 -86.5t-93.5 -36.5q-60 0 -90.5 38zM219 -79q9 32 9 58q0 65 -60 65q-38 0 -80 -19q-1 -8 -1 -23q0 -44 18 -66.5
t62 -22.5q29 0 52 8z" />
    <glyph glyph-name="uni2087" unicode="&#x2087;" horiz-adv-x="312" 
d="M89 -131q14 89 47 161t85 138v4h-139v-45h-45q-10 27 -10 64v33h251v-62q-58 -78 -87.5 -145.5t-44.5 -151.5z" />
    <glyph glyph-name="uni2088" unicode="&#x2088;" horiz-adv-x="322" 
d="M63.5 -110q-32.5 27 -32.5 75q0 33 13.5 53t41.5 38v4q-23 15 -34 29.5t-11 40.5q0 44 34 71t94 27q51 0 79.5 -27.5t28.5 -73.5q0 -50 -44 -76v-5q27 -16 38.5 -36t11.5 -51q0 -46 -32.5 -71t-99.5 -25q-55 0 -87.5 27zM213 78q10 20 10 40q0 31 -15.5 46t-51.5 15
q-28 0 -52 -6q-8 -24 -8 -46q0 -25 17 -39.5t53 -14.5q27 0 47 5zM221 -80q7 16 7 41q0 35 -16.5 51t-55.5 16q-36 0 -58 -7q-12 -28 -12 -53q0 -29 18.5 -43t59.5 -14q30 0 57 9z" />
    <glyph glyph-name="uni2089" unicode="&#x2089;" horiz-adv-x="354" 
d="M100 -108q41 28 68.5 55t47.5 63q-38 -19 -74 -19q-49 0 -77 28t-28 77q0 56 33.5 94.5t92.5 38.5q62 0 92 -37t30 -99q0 -70 -35.5 -124t-105.5 -101zM192.5 44.5q16.5 4.5 37.5 15.5q2 13 2 33q0 43 -18.5 64.5t-59.5 21.5q-31 0 -55 -8q-9 -34 -9 -66q0 -35 15.5 -50
t50.5 -15q20 0 36.5 4.5z" />
    <glyph glyph-name="uni2070" unicode="&#x2070;" horiz-adv-x="360" 
d="M71.5 374q-34.5 45 -34.5 131q0 88 35.5 138.5t110.5 50.5q70 0 105 -45.5t35 -131.5q0 -88 -36 -138t-111 -50q-70 0 -104.5 45zM249 393q15 53 15 116q0 69 -17.5 99.5t-68.5 30.5q-38 0 -68 -10q-15 -54 -15 -116q0 -68 17.5 -99t69.5 -31q37 0 67 10z" />
    <glyph glyph-name="uni00B9" unicode="&#xb9;" horiz-adv-x="224" 
d="M116 633l-5 4l-69 -26l-13 33l84 50q17 -1 37 -11.5t20 -19.5v-331h-54v301z" />
    <glyph glyph-name="uni00B2" unicode="&#xb2;" horiz-adv-x="324" 
d="M41 405q90 55 134.5 98.5t44.5 84.5q0 31 -13 43t-46 12q-31 0 -57 -6v-42h-43q-8 22 -8 57v19q54 23 113 23q109 0 109 -103q0 -57 -48 -105t-132 -101v-4h136v32h43q8 -24 8 -56v-23h-241v71z" />
    <glyph glyph-name="uni00B3" unicode="&#xb3;" horiz-adv-x="307" 
d="M32 343l7 47q49 -12 99 -12q38 0 64 6q9 18 9 46q0 56 -77 56h-42v47h42q35 0 52 14.5t17 44.5q0 28 -15 41t-45 13q-28 0 -57 -4v-36h-42q-9 21 -9 49v19q53 21 112 21q55 0 83 -26.5t28 -70.5q0 -33 -15 -53t-46 -33v-3q37 -11 52.5 -32t15.5 -52q0 -95 -127 -95
q-54 0 -106 13z" />
    <glyph glyph-name="uni2074" unicode="&#x2074;" horiz-adv-x="332" 
d="M194 400h-152l-19 47l169 242h57v-243h52v-46h-52v-66h-55v66zM197 446v58q0 58 7 122h-4l-114 -175l2 -5h109z" />
    <glyph glyph-name="uni2075" unicode="&#x2075;" horiz-adv-x="301" 
d="M37 342l6 48q48 -12 93 -12q42 0 68 8q9 27 9 57t-14 43.5t-45 13.5q-36 0 -74 -11l-37 33l13 167h181v-50h-133l-7 -100q36 10 71 10q48 0 73.5 -26t25.5 -74q0 -120 -136 -120q-42 0 -94 13z" />
    <glyph glyph-name="uni2076" unicode="&#x2076;" horiz-adv-x="312" 
d="M63.5 367q-30.5 38 -30.5 100q0 71 34.5 124t105.5 101l43 -24q-51 -35 -78.5 -63.5t-40.5 -66.5q41 21 81 21q51 0 76.5 -28t25.5 -79q0 -50 -32.5 -86.5t-93.5 -36.5q-60 0 -90.5 38zM219 386q9 32 9 58q0 65 -60 65q-38 0 -80 -19q-1 -8 -1 -23q0 -44 18 -66.5
t62 -22.5q29 0 52 8z" />
    <glyph glyph-name="uni2077" unicode="&#x2077;" horiz-adv-x="312" 
d="M89 334q14 89 47 161t85 138v4h-139v-45h-45q-10 27 -10 64v33h251v-62q-58 -78 -87.5 -145.5t-44.5 -151.5z" />
    <glyph glyph-name="uni2078" unicode="&#x2078;" horiz-adv-x="322" 
d="M63.5 356q-32.5 27 -32.5 75q0 33 13.5 53t41.5 38v4q-23 15 -34 29.5t-11 40.5q0 44 34 71t94 27q51 0 79.5 -27.5t28.5 -73.5q0 -50 -44 -76v-5q27 -16 38.5 -36t11.5 -51q0 -46 -32.5 -71t-99.5 -25q-55 0 -87.5 27zM213 544q10 20 10 40q0 31 -15.5 46t-51.5 15
q-28 0 -52 -6q-8 -24 -8 -46q0 -25 17 -39.5t53 -14.5q27 0 47 5zM221 386q7 16 7 41q0 35 -16.5 51t-55.5 16q-36 0 -58 -7q-12 -28 -12 -53q0 -29 18.5 -43t59.5 -14q30 0 57 9z" />
    <glyph glyph-name="uni2079" unicode="&#x2079;" horiz-adv-x="354" 
d="M100 357q41 28 68.5 55t47.5 63q-35 -19 -74 -19q-49 0 -77 28t-28 77q0 56 33.5 94.5t92.5 38.5q62 0 92 -37t30 -99q0 -70 -35.5 -124t-105.5 -101zM192.5 509.5q16.5 4.5 37.5 15.5q2 13 2 33q0 43 -18.5 64.5t-59.5 21.5q-31 0 -55 -8q-9 -34 -9 -66q0 -35 15.5 -50
t50.5 -15q20 0 36.5 4.5z" />
    <glyph glyph-name="uni0E50" unicode="&#xe50;" horiz-adv-x="538" 
d="M105.5 52q-49.5 59 -49.5 169q0 115 57.5 175t173.5 60q96 0 145.5 -60t49.5 -170q0 -233 -230 -233q-97 0 -146.5 59zM332.5 51.5q30.5 6.5 53.5 16.5q36 55 36 147q0 99 -35.5 142.5t-119.5 43.5q-32 0 -62.5 -6t-52.5 -16q-36 -55 -36 -148q0 -100 35.5 -143
t119.5 -43q31 0 61.5 6.5z" />
    <glyph glyph-name="uni0E51" unicode="&#xe51;" horiz-adv-x="528" 
d="M174 0q108 11 171 64.5t63 146.5q0 100 -39 173q-26 9 -50.5 13t-57.5 4q-72 0 -109 -28t-37 -90q0 -48 28.5 -71t92.5 -25l-9 -52q-82 2 -126.5 41t-44.5 107q0 81 53 127t157 46q107 0 154 -61t47 -179q0 -116 -76.5 -188t-214.5 -82z" />
    <glyph glyph-name="uni0E52" unicode="&#xe52;" horiz-adv-x="623" 
d="M71 172v361h60v-357q0 -70 43 -100.5t141 -30.5q109 0 179 27v324q-12 4 -34 4q-24 0 -38.5 -16t-20.5 -42h-38q-6 26 -20.5 42t-37.5 16t-31 -17.5t-8 -49.5q0 -34 7 -68l-55 -4q-9 39 -9 77q0 118 84 118q32 0 52.5 -16t35.5 -48h6q28 64 92 64q37 0 74 -15v-312
q0 -68 -55.5 -102.5t-182.5 -34.5q-244 0 -244 180z" />
    <glyph glyph-name="uni0E53" unicode="&#xe53;" horiz-adv-x="609" 
d="M95.5 45q-35.5 53 -35.5 162q0 134 32 192t107 58q37 0 62.5 -14t46.5 -42h7q47 56 122 56q51 0 93 -29v-428h-59v396q-18 7 -50 7q-50 0 -85 -32v-126h-54v125q-15 16 -33 25t-43 9q-33 0 -52 -19t-27 -61.5t-8 -116.5q0 -82 21.5 -122t69.5 -40q27 0 58 9l13 -46
q-36 -16 -76 -16q-74 0 -109.5 53z" />
    <glyph glyph-name="uni0E54" unicode="&#xe54;" horiz-adv-x="559" 
d="M105 49.5q-49 55.5 -49 157.5q0 122 49.5 184.5t178.5 62.5h134q12 55 12 122h58q0 -66 -10.5 -103t-39.5 -54.5t-83 -17.5h-80q-65 0 -99.5 -22.5t-47.5 -64t-13 -105.5q0 -87 34.5 -124.5t103.5 -37.5q74 0 135 29l-25 126q18 32 53 48h71v-50h-72l32 -153l65 -11v-38
q-24 -4 -39 -4q-30 0 -44.5 11t-24.5 36h-7q-30 -22 -67 -34.5t-91 -12.5q-85 0 -134 55.5z" />
    <glyph glyph-name="uni0E55" unicode="&#xe55;" horiz-adv-x="559" 
d="M105 49.5q-49 55.5 -49 157.5q0 78 20 127.5t64 77.5v3q-29 20 -29 61q0 37 31.5 62.5t84.5 25.5q48 0 75 -22t27 -58q0 -17 -6 -28l2 -3h105q11 49 11 123h59q0 -65 -12 -102.5t-42 -55t-85 -17.5h-86q-64 0 -99 -23t-48 -64t-13 -105q0 -87 34.5 -124.5t103.5 -37.5
q74 0 135 29l-25 126q18 32 53 48h71v-50h-72l32 -153l65 -11v-38q-24 -4 -39 -4q-30 0 -44.5 11t-24.5 36h-7q-30 -22 -67 -34.5t-91 -12.5q-85 0 -134 55.5zM276 440q6 17 6 34q0 23 -15 35t-42 12q-39 0 -61 -7q-7 -20 -7 -38q0 -22 14.5 -32t43.5 -10q39 0 61 6z" />
    <glyph glyph-name="uni0E56" unicode="&#xe56;" horiz-adv-x="521" 
d="M161 2.5q-41 10.5 -66 26.5v34q0 30 10 60h41l9 -66q37 -11 99 -11q69 0 115 18q36 62 36 162q0 89 -31 133t-100 44q-37 0 -66 -11t-62 -36l3 -51l-51 -6q-6 59 -22 134.5t-35 131.5l61 11q29 -98 30 -173l9 -3q65 56 146 56q89 0 133 -61t44 -169q0 -114 -53 -174
t-161 -60q-48 0 -89 10.5z" />
    <glyph glyph-name="uni0E57" unicode="&#xe57;" horiz-adv-x="765" 
d="M98 49q-38 54 -38 159q0 129 27 188.5t97 59.5q35 0 59 -15.5t44 -45.5h4q42 61 110 61q54 0 83 -20v-383h62q44 0 78 11q7 36 7 101v348h57v-362q0 -73 -38.5 -112t-124.5 -39h-98v398q-15 4 -42 4q-48 0 -77 -50h-41q-13 25 -30 38t-44 13q-45 0 -60 -45.5t-15 -149.5
q0 -85 24.5 -122.5t79.5 -37.5q30 0 64 10l12 -47q-34 -16 -81 -16q-81 0 -119 54z" />
    <glyph glyph-name="uni0E58" unicode="&#xe58;" horiz-adv-x="575" 
d="M60 211q0 81 19 133.5t68.5 81t137.5 28.5h161q12 55 12 122h58q-1 -66 -11 -103t-37.5 -54.5t-81.5 -17.5h-111q-62 0 -96 -21.5t-47 -62t-13 -104.5q0 -61 6 -96.5t23.5 -53.5t50.5 -18q35 0 51 19.5t20 54.5h69q2 -34 20 -54t53 -20q34 0 56 5v163h-107v52h101
q23 -11 36.5 -25t24.5 -34v-101q0 -56 -28.5 -84.5t-80.5 -28.5q-76 0 -107 77h-6q-20 -40 -45 -58.5t-70 -18.5q-126 0 -126 219z" />
    <glyph glyph-name="uni0E59" unicode="&#xe59;" horiz-adv-x="570" 
d="M96.5 44.5q-36.5 52.5 -36.5 160.5q0 133 40.5 192.5t124.5 59.5q60 0 92.5 -28.5t48.5 -87.5q62 0 92 12q12 45 12 125q0 33 -3 75l55 7q2 -29 2 -77q0 -92 -23.5 -140.5t-87.5 -48.5q-12 0 -20.5 1t-14.5 2l69 -243l-51 -12l-98 347q-18 8 -33.5 11.5t-38.5 3.5
q-40 0 -63 -19.5t-33.5 -62.5t-10.5 -117q0 -81 21 -120.5t72 -39.5q25 0 54 8l13 -48q-31 -13 -71 -13q-75 0 -111.5 52.5z" />
    <glyph glyph-name="asterisk" unicode="*" horiz-adv-x="478" 
d="M115 350l89 113l-2 4l-125 34l17 53l122 -51l3 3l-7 139h55l-8 -139l4 -3l122 51l17 -53l-126 -34l-1 -4l89 -113l-45 -32l-76 119h-7l-76 -119z" />
    <glyph glyph-name="backslash" unicode="\" horiz-adv-x="426" 
d="M64 621l54 13l244 -638l-55 -14z" />
    <glyph glyph-name="periodcentered" unicode="&#xb7;" horiz-adv-x="345" 
d="M137 234.5q-14 13.5 -14 34.5t14.5 35t35.5 14t35 -13.5t14 -35.5q0 -21 -13.5 -34.5t-35.5 -13.5t-36 13.5z" />
    <glyph glyph-name="bullet" unicode="&#x2022;" horiz-adv-x="336" 
d="M103 206.5q-26 26.5 -26 66.5q0 38 26.5 63.5t64.5 25.5q39 0 65.5 -26t26.5 -64q0 -40 -26.5 -66t-65.5 -26t-65 26.5z" />
    <glyph glyph-name="colon" unicode=":" horiz-adv-x="241" 
d="M81 425h79v-81h-79v81zM81 90h79v-81h-79v81z" />
    <glyph glyph-name="comma" unicode="," horiz-adv-x="238" 
d="M87 -89q17 32 26 62.5t9 67.5h-54v43q21 8 43 8q61 0 61 -67q0 -32 -12.5 -63.5t-34.5 -59.5z" />
    <glyph glyph-name="ellipsis" unicode="&#x2026;" horiz-adv-x="590" 
d="M77 81h79v-81h-79v81zM256 81h79v-81h-79v81zM434 81h79v-81h-79v81z" />
    <glyph glyph-name="exclam" unicode="!" horiz-adv-x="253" 
d="M93 417v197h66v-197l-7 -246h-52zM93 85h68v-85h-68v85z" />
    <glyph glyph-name="exclamdown" unicode="&#xa1;" horiz-adv-x="232" 
d="M82 614h68v-86h-68v86zM83 197l7 246h52l7 -246v-197h-66v197z" />
    <glyph glyph-name="numbersign" unicode="#" horiz-adv-x="697" 
d="M161 -1l24 183h-108v56h116l21 151h-112v56h119l26 181l59 -3l-24 -178h161l25 181l59 -3l-24 -178h108v-56h-115l-20 -151h110v-56h-118l-25 -186l-61 3l25 183h-160l-26 -186zM415 238l20 151h-161l-20 -151h161z" />
    <glyph glyph-name="period" unicode="." horiz-adv-x="241" 
d="M81 81h79v-81h-79v81z" />
    <glyph glyph-name="question" unicode="?" horiz-adv-x="535" 
d="M207 220q0 22 5.5 34.5t20.5 24.5l160 120v69q0 53 -29.5 76t-94.5 23q-77 0 -132 -16v-77h-46q-14 39 -14 78v31q29 17 83 29.5t111 12.5q98 0 141 -40.5t43 -120.5q0 -47 -11.5 -76t-45.5 -53l-110 -81q-12 -10 -15.5 -18t-3.5 -26v-56h-62v66zM205 83h65v-83h-65v83z
" />
    <glyph glyph-name="questiondown" unicode="&#xbf;" horiz-adv-x="515" 
d="M251 517h65v-83h-65v83zM109.5 -67.5q-43.5 40.5 -43.5 120.5q0 46 12 75.5t45 53.5l110 81q12 10 15.5 18t3.5 26v56h62v-66q0 -22 -5.5 -34.5t-20.5 -24.5l-160 -120v-69q0 -53 29.5 -76t94.5 -23q77 0 132 16v77h47q11 -37 13 -78v-31q-29 -17 -83 -29.5t-111 -12.5
q-97 0 -140.5 40.5z" />
    <glyph glyph-name="quotedbl" unicode="&#x22;" horiz-adv-x="330" 
d="M203 548l-8 -125h-38h-22l-8 125q-2 37 3 66h48h22q5 -29 3 -66z" />
    <glyph glyph-name="quotesingle" unicode="'" horiz-adv-x="231" 
d="M88 548q-2 37 3 66h48q5 -29 3 -66l-8 -125h-38z" />
    <glyph glyph-name="semicolon" unicode=";" horiz-adv-x="266" 
d="M89 425h79v-81h-79v81zM100 -40q17 32 26 62.5t9 67.5h-54v43q21 8 43 8q61 0 61 -67q0 -32 -12.5 -63.5t-34.5 -59.5z" />
    <glyph glyph-name="slash" unicode="/" horiz-adv-x="464" 
d="M75 -79l261 740l54 -13l-261 -741z" />
    <glyph glyph-name="underscore" unicode="_" horiz-adv-x="562" 
d="M66 0h429v-42h-429v42z" />
    <glyph glyph-name="uni208D" unicode="&#x208d;" horiz-adv-x="233" 
d="M93.5 -177q-20.5 15 -22.5 28v348q2 12 23 27.5t39 21.5q18 0 33 -3v-46h-45v-349h45v-46q-20 -2 -33 -2q-19 6 -39.5 21z" />
    <glyph glyph-name="uni208E" unicode="&#x208e;" horiz-adv-x="235" 
d="M71 -196v46h45v348h-45v47q20 2 33 2q19 -6 39.5 -21t22.5 -28v-348q-2 -12 -23 -27.5t-39 -21.5q-18 0 -33 3z" />
    <glyph glyph-name="braceleft" unicode="{" horiz-adv-x="409" 
d="M219.5 -78.5q-40.5 39.5 -40.5 128.5q0 18 1 28l4 83q8 131 -118 131v48q126 0 118 132l-4 70q-1 10 -1 28q0 89 40.5 128.5t132.5 43.5v-56q-65 -2 -103 -17q-11 -46 -11 -100l1 -30l4 -82q6 -111 -90 -138v-5q96 -27 90 -139l-4 -94l-1 -30q0 -54 11 -100
q38 -15 103 -17v-56q-92 4 -132.5 43.5z" />
    <glyph glyph-name="braceright" unicode="}" horiz-adv-x="409" 
d="M56 -66q65 2 103 17q11 46 11 100l-1 30l-4 94q-6 112 90 139v5q-96 27 -90 138l4 82l1 30q0 54 -11 100q-38 15 -103 17v56q92 -4 132.5 -43.5t40.5 -128.5q0 -18 -1 -28l-4 -70q-8 -132 118 -132v-48q-126 0 -118 -131l4 -83q1 -10 1 -28q0 -89 -40.5 -128.5
t-132.5 -43.5v56z" />
    <glyph glyph-name="bracketleft" unicode="[" horiz-adv-x="283" 
d="M81 707h123v-55h-62v-683h62v-54h-123v792z" />
    <glyph glyph-name="bracketright" unicode="]" horiz-adv-x="283" 
d="M78 -31h62v683h-62v55h123v-792h-123v54z" />
    <glyph glyph-name="parenleft" unicode="(" horiz-adv-x="327" 
d="M118.5 -65q-22.5 23 -26.5 49v646q4 25 26.5 48t53.5 33q35 0 67 -5v-55h-84v-688h84v-55q-32 -5 -67 -5q-31 9 -53.5 32z" />
    <glyph glyph-name="parenright" unicode=")" horiz-adv-x="327" 
d="M89 -92v55h84v688h-84v55q32 5 67 5q31 -10 53.5 -33t26.5 -48v-646q-4 -26 -26.5 -49t-53.5 -32q-35 0 -67 5z" />
    <glyph glyph-name="uni207D" unicode="&#x207d;" horiz-adv-x="233" 
d="M93.5 323q-20.5 15 -22.5 28v348q2 12 23 27.5t39 21.5q18 0 33 -3v-46h-45v-349h45v-46q-20 -2 -33 -2q-19 6 -39.5 21z" />
    <glyph glyph-name="uni207E" unicode="&#x207e;" horiz-adv-x="235" 
d="M71 304v46h45v349h-45v46q15 3 33 3q18 -6 39 -21.5t23 -27.5v-348q-2 -13 -22.5 -28t-39.5 -21q-13 0 -33 2z" />
    <glyph glyph-name="emdash" unicode="&#x2014;" horiz-adv-x="679" 
d="M71 299h537v-55h-537v55z" />
    <glyph glyph-name="endash" unicode="&#x2013;" horiz-adv-x="502" 
d="M71 299h360v-55h-360v55z" />
    <glyph glyph-name="figuredash" unicode="&#x2012;" horiz-adv-x="533" 
d="M56 299h420v-55h-420v55z" />
    <glyph glyph-name="hyphen" unicode="-" horiz-adv-x="405" 
d="M71 306h263v-53h-263v53z" />
    <glyph glyph-name="uni00AD" unicode="&#xad;" horiz-adv-x="353" 
d="M71 288h211v-56h-211v56z" />
    <glyph glyph-name="uni2010" unicode="&#x2010;" horiz-adv-x="464" 
d="M56 299h351v-54h-351v54z" />
    <glyph glyph-name="uni2015" unicode="&#x2015;" horiz-adv-x="912" 
d="M56 299h799v-54h-799v54z" />
    <glyph glyph-name="guillemotleft" unicode="&#xab;" horiz-adv-x="463" 
d="M57 251l130 174l44 -20l-113 -151v-6l113 -151l-44 -20zM217 251l130 174l44 -20l-113 -151v-6l113 -151l-44 -20z" />
    <glyph glyph-name="guillemotright" unicode="&#xbb;" horiz-adv-x="452" 
d="M61 97l113 151v6l-113 151l44 20l130 -174l-130 -174zM221 97l113 151v6l-113 151l44 20l130 -174l-130 -174z" />
    <glyph glyph-name="guilsinglleft" unicode="&#x2039;" horiz-adv-x="303" 
d="M57 261l130 174l45 -17l-114 -157l114 -158l-45 -17z" />
    <glyph glyph-name="guilsinglright" unicode="&#x203a;" horiz-adv-x="293" 
d="M61 103l114 158l-114 157l45 17l130 -174l-130 -175z" />
    <glyph glyph-name="quotedblbase" unicode="&#x201e;" horiz-adv-x="418" 
d="M94 439q17 32 26 62.5t9 67.5h-54v43q21 8 42 8q60 0 60 -67q0 -32 -12 -64t-34 -59zM259 439q17 32 26 62.5t9 67.5h-54v43q21 8 43 8q59 0 59 -67q0 -32 -12 -64t-34 -59z" />
    <glyph glyph-name="quotedblleft" unicode="&#x201c;" horiz-adv-x="418" 
d="M76 496q0 33 12 65t35 59l36 -9q-18 -32 -26.5 -63t-8.5 -68h54v-42q-21 -8 -43 -8q-59 0 -59 66zM241 496q0 33 12 65t35 59l36 -9q-18 -32 -26.5 -63t-8.5 -68h54v-42q-21 -8 -41 -8q-61 0 -61 66z" />
    <glyph glyph-name="quotedblright" unicode="&#x201d;" horiz-adv-x="418" 
d="M94 439q17 32 26 62.5t9 67.5h-54v43q21 8 42 8q60 0 60 -67q0 -32 -12 -64t-34 -59zM259 439q17 32 26 62.5t9 67.5h-54v43q21 8 43 8q59 0 59 -67q0 -32 -12 -64t-34 -59z" />
    <glyph glyph-name="quoteleft" unicode="&#x2018;" horiz-adv-x="253" 
d="M76 496q0 33 12 65t35 59l36 -9q-18 -32 -26.5 -63t-8.5 -68h54v-42q-21 -8 -41 -8q-61 0 -61 66z" />
    <glyph glyph-name="quoteright" unicode="&#x2019;" horiz-adv-x="253" 
d="M94 439q17 32 26 62.5t9 67.5h-54v43q21 8 43 8q59 0 59 -67q0 -32 -12 -64t-34 -59z" />
    <glyph glyph-name="quotesinglbase" unicode="&#x201a;" horiz-adv-x="254" 
d="M94 -89q17 32 26 62.5t9 67.5h-54v43q21 8 43 8q61 0 61 -67q0 -32 -12.5 -63.5t-34.5 -59.5z" />
    <glyph glyph-name="uni0E5A" unicode="&#xe5a;" horiz-adv-x="735" 
d="M353 279q-34 -22 -70.5 -34.5t-81.5 -12.5q-69 0 -104 39t-35 108q0 62 10 135h55v-158q0 -36 7 -57q29 -11 65 -11q80 0 154 36v190h62v-514h-62v279zM593 514h62v-514h-62v514z" />
    </font>
</defs>
</svg>
